SplineFontDB: 3.2
FontName: Novafont-Regular
FullName: Novafont Regular
FamilyName: Novafont
Weight: Regular
Copyright: Copyright (c) 2024, Ravelin Wright
UComments: "2024-7-24: Created with FontForge (http://fontforge.org)"
Version: 001.000
ItalicAngle: 0
UnderlinePosition: -100
UnderlineWidth: 50
Ascent: 672
Descent: 328
InvalidEm: 0
LayerCount: 2
Layer: 0 0 "Back" 1
Layer: 1 0 "Fore" 0
XUID: [1021 317 855815283 14267]
OS2Version: 0
OS2_WeightWidthSlopeOnly: 0
OS2_UseTypoMetrics: 1
CreationTime: 1721800324
ModificationTime: 1721810215
OS2TypoAscent: 0
OS2TypoAOffset: 1
OS2TypoDescent: 0
OS2TypoDOffset: 1
OS2TypoLinegap: 0
OS2WinAscent: 0
OS2WinAOffset: 1
OS2WinDescent: 0
OS2WinDOffset: 1
HheadAscent: 0
HheadAOffset: 1
HheadDescent: 0
HheadDOffset: 1
OS2Vendor: 'PfEd'
Lookup: 258 0 0 "'kern' Horizontal Kerning in Latin lookup 0" { "'kern' Horizontal Kerning in Latin lookup 0-2" [30,0,3] "'kern' Horizontal Kerning in Latin lookup 0-1" [15,0,3] } ['kern' ('DFLT' <'dflt' > 'latn' <'dflt' > ) ]
MarkAttachClasses: 1
DEI: 91125
Encoding: ISO8859-1
UnicodeInterp: none
NameList: AGL For New Fonts
DisplaySize: -48
AntiAlias: 1
FitToEm: 0
WidthSeparation: 30
WinInfo: 19 19 13
BeginPrivate: 0
EndPrivate
BeginChars: 256 61

StartChar: A
Encoding: 65 65 0
Width: 853
Flags: HW
LayerCount: 2
Fore
SplineSet
135 34.099609375 m 1
 140.599609375 52.099609375 159.69921875 58 164 59.099609375 c 1
 164 9.2001953125 l 1
 159.69921875 10.2001953125 140.69921875 16 135 34.099609375 c 1
5.599609375 4.599609375 m 1
 10.900390625 11.5 27.900390625 31.2001953125 56.69921875 46.2001953125 c 1
 62.400390625 40 79.099609375 30.099609375 127.099609375 29.7001953125 c 1
 131.900390625 16.2998046875 142.298828125 8.7001953125 150.69921875 4.599609375 c 1
 5.599609375 4.599609375 l 1
455.5 306.400390625 m 2
 455.5 390.700195312 l 1
 397.5 390.700195312 l 1
 397.5 306.400390625 l 1
 330.599609375 364.5 l 1
 340.69921875 373.900390625 349.69921875 384.900390625 353.19921875 396.400390625 c 0
 365.298828125 424.900390625 394.798828125 444 426.5 444 c 0
 458.19921875 444 487.69921875 424.900390625 499.798828125 396.400390625 c 0
 503.400390625 384.900390625 512.400390625 373.900390625 522.400390625 364.5 c 1
 455.5 306.400390625 l 2
323.798828125 358.5 m 1
 390.69921875 300.200195312 l 1
 216.900390625 294.299804688 19.400390625 63.599609375 100.798828125 63.599609375 c 2
 150.599609375 63.599609375 l 1
 142.19921875 59.5 131.900390625 52 127 38.599609375 c 1
 74 39.099609375 63.69921875 51.400390625 62.400390625 53.2998046875 c 0
 56.400390625 90.7998046875 74.798828125 139.299804688 114.400390625 189.900390625 c 0
 156.298828125 243.5 219.5 295.599609375 292.298828125 336.700195312 c 0
 293.5 337.299804688 308.69921875 345.900390625 323.798828125 358.5 c 1
53.19921875 54.400390625 m 1
 26.099609375 40.5 8.900390625 22.7001953125 1.099609375 13.400390625 c 1
 27.599609375 189.099609375 262.099609375 457.200195312 426.5 522.599609375 c 1
 590.900390625 457.299804688 825.400390625 189.200195312 851.900390625 13.5 c 1
 844.099609375 22.7998046875 826.900390625 40.599609375 799.798828125 54.5 c 1
 805.099609375 94.099609375 786 144 745.69921875 195.5 c 0
 703.099609375 250 639 302.900390625 565.099609375 344.599609375 c 0
 564.599609375 344.799804688 516.69921875 371.700195312 508.400390625 399.200195312 c 2
 508.19921875 399.700195312 l 2
 494.69921875 431.599609375 461.900390625 453 426.5 453 c 0
 391.099609375 453 358.298828125 431.599609375 344.798828125 399.700195312 c 2
 344.599609375 399.200195312 l 2
 336.298828125 371.599609375 288.400390625 344.799804688 287.900390625 344.5 c 0
 214 302.799804688 149.900390625 249.900390625 107.298828125 195.400390625 c 0
 67.099609375 143.900390625 47.900390625 94 53.19921875 54.400390625 c 1
796.298828125 46.099609375 m 1
 825 31.2001953125 842 11.5 847.400390625 4.5 c 1
 702.298828125 4.5 l 1
 710.69921875 8.599609375 721.099609375 16.2001953125 725.900390625 29.599609375 c 1
 774 30.099609375 790.599609375 39.900390625 796.298828125 46.099609375 c 1
752.099609375 63.7001953125 m 2
 833.599609375 63.7001953125 636.099609375 294.400390625 462.19921875 300.400390625 c 1
 529.19921875 358.599609375 l 1
 544.298828125 345.900390625 559.5 337.400390625 560.599609375 336.799804688 c 0
 633.400390625 295.700195312 696.599609375 243.599609375 738.5 190 c 0
 778.099609375 139.299804688 796.5 90.900390625 790.5 53.400390625 c 0
 789.19921875 51.5 778.900390625 39.2001953125 725.900390625 38.7001953125 c 1
 721.099609375 52 710.69921875 59.599609375 702.298828125 63.7001953125 c 1
 752.099609375 63.7001953125 l 2
397.5 300.400390625 m 1
 397.5 300.400390625 l 1
 397.5 300.400390625 l 1
718 34.099609375 m 1
 712.298828125 16.099609375 693.298828125 10.2998046875 689 9.099609375 c 1
 689 59 l 1
 693.298828125 57.900390625 712.298828125 52.099609375 718 34.099609375 c 1
EndSplineSet
EndChar

StartChar: B
Encoding: 66 66 1
Width: 722
Flags: HW
LayerCount: 2
Fore
SplineSet
595.002929688 263.5 m 1
 951.903320312 128.599609375 467.502929688 23.2998046875 232.203125 28.599609375 c 1
 232.203125 28.5 232.302734375 28.5 232.302734375 28.400390625 c 0
 213.103515625 12 174.703125 5.099609375 145.903320312 5.099609375 c 0
 117.103515625 5.099609375 61.203125 11.900390625 42.0029296875 28.400390625 c 1
 94.4033203125 75.7001953125 101.903320312 156.5 102.603515625 248.099609375 c 1
 185.403320312 223 l 1
 161.703125 192.5 l 1
 127.302734375 192.5 l 1
 127.002929688 188.400390625 l 2
 123.002929688 139.5 89.103515625 54.099609375 88.802734375 53.2001953125 c 2
 86.802734375 48.2998046875 l 1
 92.0029296875 47.2001953125 l 2
 92.302734375 47.099609375 119.502929688 41.2998046875 149.403320312 39.2001953125 c 0
 156.802734375 38.7001953125 163.603515625 38.400390625 170.002929688 38.400390625 c 0
 198.103515625 38.400390625 217.302734375 43.400390625 227.203125 53.2998046875 c 1
 279.002929688 53.400390625 370.302734375 59.7001953125 460.502929688 76.7998046875 c 0
 535.002929688 90.900390625 633.203125 117.599609375 678.502929688 164 c 0
 678.603515625 164 678.603515625 164.099609375 678.703125 164.200195312 c 0
 678.802734375 164.299804688 678.903320312 164.299804688 678.903320312 164.400390625 c 0
 678.903320312 164.5 679.002929688 164.5 679.002929688 164.599609375 c 0
 679.002929688 164.700195312 679.103515625 164.900390625 679.203125 165 c 0
 679.302734375 165.099609375 679.302734375 165.299804688 679.403320312 165.400390625 c 0
 679.502929688 165.5 679.603515625 165.700195312 679.603515625 165.799804688 c 0
 679.603515625 165.900390625 679.703125 166.099609375 679.703125 166.200195312 c 0
 679.802734375 166.299804688 679.802734375 166.5 679.802734375 166.599609375 c 0
 679.802734375 166.700195312 679.802734375 166.900390625 679.802734375 167 c 0
 679.802734375 167.099609375 679.802734375 167.299804688 679.802734375 167.400390625 c 0
 679.802734375 167.5 679.802734375 167.700195312 679.802734375 167.799804688 c 0
 679.802734375 167.900390625 679.703125 168.099609375 679.703125 168.200195312 c 0
 679.703125 168.299804688 679.603515625 168.5 679.603515625 168.599609375 c 0
 679.502929688 168.700195312 679.502929688 168.900390625 679.403320312 169 c 0
 679.302734375 169.099609375 679.302734375 169.299804688 679.203125 169.400390625 c 0
 679.203125 169.599609375 679.103515625 169.700195312 679.002929688 169.799804688 c 0
 678.903320312 170 678.802734375 170.099609375 678.703125 170.200195312 c 0
 678.703125 170.299804688 678.603515625 170.400390625 678.603515625 170.400390625 c 2
 678.502929688 170.5 678.502929688 170.5 678.403320312 170.599609375 c 0
 678.302734375 170.700195312 678.302734375 170.700195312 678.203125 170.799804688 c 2
 547.502929688 272.099609375 l 1
 590.302734375 289.599609375 661.502929688 323 679.403320312 358.200195312 c 0
 679.502929688 358.200195312 679.502929688 358.299804688 679.502929688 358.299804688 c 2
 679.603515625 358.5 679.603515625 358.599609375 679.703125 358.799804688 c 0
 679.703125 358.900390625 679.802734375 359.099609375 679.802734375 359.200195312 c 0
 679.903320312 359.299804688 679.903320312 359.5 679.903320312 359.599609375 c 0
 679.903320312 359.700195312 679.903320312 359.900390625 679.903320312 360 c 0
 679.903320312 360.099609375 679.903320312 360.299804688 679.903320312 360.400390625 c 0
 679.903320312 360.5 679.903320312 360.700195312 679.903320312 360.799804688 c 0
 679.903320312 360.900390625 679.802734375 361.099609375 679.802734375 361.200195312 c 0
 679.802734375 361.299804688 679.703125 361.5 679.703125 361.599609375 c 0
 679.603515625 361.700195312 679.603515625 361.900390625 679.502929688 362 c 0
 679.403320312 362.099609375 679.403320312 362.299804688 679.302734375 362.400390625 c 0
 679.302734375 362.5 679.203125 362.599609375 679.103515625 362.700195312 c 0
 679.002929688 362.799804688 678.903320312 363 678.802734375 363.099609375 c 2
 678.703125 363.200195312 l 2
 633.403320312 409.599609375 535.203125 436.200195312 460.703125 450.400390625 c 0
 370.502929688 467.5 279.203125 473.700195312 227.403320312 473.900390625 c 1
 215.302734375 486 189.203125 490.799804688 149.603515625 488 c 0
 119.703125 485.900390625 92.5029296875 480.099609375 92.203125 480 c 2
 87.0029296875 478.900390625 l 1
 89.0029296875 474 l 2
 89.302734375 473.099609375 123.203125 387.599609375 127.203125 338.799804688 c 2
 127.502929688 334.700195312 l 1
 161.703125 334.700195312 l 1
 185.403320312 304.200195312 l 1
 102.502929688 279.099609375 l 1
 101.103515625 369.900390625 85.9033203125 444.200195312 0.0029296875 498.799804688 c 1
 19.203125 515.200195312 117.103515625 522.099609375 145.903320312 522.099609375 c 0
 174.703125 522.099609375 213.103515625 515.299804688 232.302734375 498.799804688 c 0
 232.302734375 498.700195312 232.203125 498.700195312 232.203125 498.599609375 c 1
 467.502929688 503.700195312 951.903320312 398.400390625 595.002929688 263.5 c 1
512.203125 268 m 1
 512.203125 267.900390625 l 1
 150.802734375 267.900390625 l 1
 180.103515625 278 262.802734375 301.5 397.103515625 301.5 c 0
 523.703125 301.5 617.603515625 350.200195312 617.603515625 350.200195312 c 1
 570.703125 389.099609375 336.203125 451 207.603515625 438.400390625 c 1
 198.502929688 403.099609375 192.802734375 358.900390625 190.502929688 312.400390625 c 1
 166.203125 343.599609375 l 1
 135.802734375 343.599609375 l 1
 131.002929688 387.5 106.502929688 453.5 99.302734375 472.200195312 c 1
 131.703125 478.599609375 203.903320312 487.5 222.002929688 466.400390625 c 2
 222.103515625 466.299804688 l 2
 222.203125 466.200195312 222.302734375 466.099609375 222.403320312 466 c 0
 222.502929688 465.900390625 222.603515625 465.799804688 222.703125 465.700195312 c 0
 222.802734375 465.599609375 223.002929688 465.599609375 223.103515625 465.5 c 0
 223.203125 465.400390625 223.403320312 465.400390625 223.502929688 465.299804688 c 0
 223.603515625 465.200195312 223.802734375 465.099609375 223.903320312 465.099609375 c 0
 224.002929688 465.099609375 224.203125 465 224.302734375 465 c 0
 224.403320312 464.900390625 224.603515625 464.900390625 224.703125 464.900390625 c 0
 224.903320312 464.900390625 225.002929688 464.900390625 225.203125 464.900390625 c 0
 225.302734375 464.900390625 225.302734375 464.900390625 225.403320312 464.900390625 c 0
 276.403320312 464.900390625 368.203125 458.700195312 458.903320312 441.5 c 0
 561.603515625 422 634.302734375 393.599609375 669.802734375 359.200195312 c 1
 643.203125 315 522.403320312 271.599609375 512.203125 268 c 1
668.502929688 166.599609375 m 1
 632.603515625 132.799804688 560.302734375 104.799804688 458.802734375 85.400390625 c 0
 368.103515625 68.099609375 276.302734375 62 225.302734375 62 c 0
 225.203125 62 225.203125 62 225.103515625 62 c 0
 224.903320312 62 224.802734375 62 224.603515625 62 c 0
 224.502929688 62 224.302734375 61.900390625 224.203125 61.900390625 c 0
 224.103515625 61.900390625 223.903320312 61.900390625 223.802734375 61.7998046875 c 0
 223.703125 61.7001953125 223.502929688 61.7001953125 223.403320312 61.599609375 c 0
 223.302734375 61.5 223.103515625 61.5 223.002929688 61.400390625 c 0
 222.802734375 61.400390625 222.703125 61.2998046875 222.603515625 61.2001953125 c 0
 222.502929688 61.099609375 222.403320312 61 222.302734375 60.900390625 c 0
 222.203125 60.7998046875 222.103515625 60.7001953125 222.002929688 60.599609375 c 2
 221.903320312 60.5 l 2
 203.903320312 39.400390625 131.603515625 48.400390625 99.203125 54.7001953125 c 1
 106.403320312 73.400390625 130.903320312 139.400390625 135.703125 183.299804688 c 1
 166.002929688 183.299804688 l 1
 190.302734375 214.5 l 1
 192.703125 168 198.403320312 123.799804688 207.403320312 88.5 c 1
 336.103515625 75.7998046875 570.502929688 137.799804688 617.403320312 176.700195312 c 1
 617.403320312 176.700195312 523.502929688 225.400390625 396.903320312 225.400390625 c 0
 262.603515625 225.400390625 179.903320312 248.900390625 150.603515625 259 c 1
 513.002929688 259 l 1
 513.002929688 259 l 1
 513.203125 259 513.502929688 259 513.802734375 259.099609375 c 0
 513.903320312 259.099609375 514.002929688 259.200195312 514.103515625 259.200195312 c 0
 514.203125 259.200195312 514.302734375 259.299804688 514.403320312 259.299804688 c 0
 515.703125 259.799804688 524.703125 262.900390625 537.703125 268 c 1
 668.502929688 166.599609375 l 1
EndSplineSet
EndChar

StartChar: C
Encoding: 67 67 2
Width: 766
Flags: HW
LayerCount: 2
Fore
SplineSet
107.75 116.200195312 m 1
 3.650390625 85.400390625 l 1
 37.75 120.299804688 54.9501953125 191.599609375 55.349609375 263.400390625 c 0
 54.9501953125 335.200195312 37.650390625 406.599609375 3.650390625 441.400390625 c 1
 107.75 410.799804688 l 1
 123.150390625 387.900390625 133.950195312 330 134.75 265.599609375 c 0
 135.549804688 197.599609375 125.25 140.700195312 107.75 116.200195312 c 1
110.75 419.400390625 m 1
 8.4501953125 449.299804688 l 1
 211.849609375 468 524.950195312 576.200195312 762.25 474.5 c 1
 730.650390625 320.700195312 l 1
 705.650390625 323.099609375 l 1
 725.25 369.099609375 712.450195312 439.099609375 711.849609375 442.200195312 c 2
 711.450195312 444.299804688 l 1
 709.650390625 445.299804688 l 2
 648.049804688 480.200195312 546.950195312 487.299804688 492.150390625 488.5 c 0
 417.650390625 490.099609375 340.049804688 482.900390625 303.25 471.099609375 c 0
 192.950195312 435.599609375 120.150390625 421.200195312 110.75 419.400390625 c 1
707.450195312 80.900390625 m 1
 592.450195312 30.400390625 375.950195312 51 294.25 68.400390625 c 0
 239.450195312 80 142.650390625 107.700195312 117.849609375 114.900390625 c 1
 134.950195312 142.799804688 144.650390625 198.200195312 143.849609375 265.700195312 c 0
 143.049804688 329 133.049804688 384.799804688 117.950195312 411.5 c 1
 138.650390625 415.700195312 207.450195312 430.599609375 306.049804688 462.400390625 c 0
 336.349609375 472.200195312 409.950195312 481.099609375 491.950195312 479.400390625 c 0
 583.75 477.400390625 658.75 462.900390625 703.349609375 438.400390625 c 1
 705.349609375 426.200195312 714.450195312 363.099609375 696.150390625 323.900390625 c 1
 664.349609375 326.900390625 l 1
 762.150390625 474.5 162.349609375 546.700195312 162.349609375 263.400390625 c 0
 162.349609375 -19.900390625 762.150390625 52.2998046875 664.349609375 199.900390625 c 1
 694.75 202.799804688 l 1
 706.950195312 170.700195312 707.450195312 96.400390625 707.450195312 80.900390625 c 1
703.950195312 203.700195312 m 1
 730.75 206.099609375 l 1
 762.349609375 52.2998046875 l 1
 524.950195312 -49.400390625 211.950195312 58.900390625 8.5498046875 77.5 c 1
 110.650390625 107.5 l 1
 123.549804688 103.799804688 232.650390625 72.2001953125 292.349609375 59.5 c 0
 335.950195312 50.2001953125 417.450195312 40.099609375 501.849609375 40.099609375 c 0
 578.849609375 40.099609375 658.349609375 48.5 713.849609375 73.7998046875 c 2
 716.450195312 75 l 1
 716.450195312 77.900390625 l 2
 716.450195312 81.7001953125 717.349609375 164.799804688 703.950195312 203.700195312 c 1
EndSplineSet
EndChar

StartChar: D
Encoding: 68 68 3
Width: 786
Flags: HW
LayerCount: 2
Fore
SplineSet
707.950195312 332.299804688 m 0
 731.150390625 310.099609375 742.950195312 287 742.950195312 263.599609375 c 0
 742.950195312 240.200195312 731.25 217.099609375 708.05078125 194.799804688 c 0
 607.150390625 98 321.850585938 41.599609375 116.950195312 49.2001953125 c 1
 111.25 65.400390625 83.650390625 150.599609375 83.650390625 263.599609375 c 0
 83.650390625 376.400390625 111.350585938 461.799804688 116.950195312 478 c 1
 321.75 485.599609375 607.150390625 429.200195312 707.950195312 332.299804688 c 0
190.350585938 78 m 1
 346.75 89 688.05078125 128.400390625 688.05078125 263.5 c 0
 688.05078125 398.599609375 346.650390625 438 190.350585938 449 c 1
 146.950195312 397.799804688 113.650390625 317.700195312 113.650390625 263.5 c 0
 113.650390625 209.299804688 146.950195312 129.200195312 190.350585938 78 c 1
86.650390625 522.200195312 m 1
 86.650390625 522.200195312 785.75 502.599609375 785.75 263.599609375 c 0
 785.75 24.599609375 86.650390625 5 86.650390625 5 c 1
 57.8505859375 5 19.4501953125 11.7998046875 0.25 28.2998046875 c 1
 57.8505859375 106.700195312 57.8505859375 420.5 0.25 498.900390625 c 1
 19.4501953125 515.299804688 57.8505859375 522.200195312 86.650390625 522.200195312 c 1
714.25 188.299804688 m 0
 739.25 212.299804688 752.05078125 237.599609375 752.05078125 263.599609375 c 0
 752.05078125 289.599609375 739.350585938 314.900390625 714.350585938 338.900390625 c 0
 667.150390625 384.200195312 575.55078125 424.599609375 456.55078125 452.5 c 0
 344.950195312 478.700195312 219.950195312 491.200195312 113.650390625 486.900390625 c 1
 113.650390625 486.900390625 l 1
 113.650390625 486.900390625 l 1
 113.55078125 486.900390625 113.55078125 486.900390625 113.55078125 486.900390625 c 2
 113.25 486.900390625 113.05078125 486.900390625 112.75 486.799804688 c 0
 112.55078125 486.700195312 112.450195312 486.700195312 112.25 486.599609375 c 0
 112.05078125 486.599609375 111.950195312 486.599609375 111.850585938 486.5 c 0
 111.75 486.5 111.55078125 486.400390625 111.450195312 486.299804688 c 0
 111.350585938 486.200195312 111.25 486.200195312 111.150390625 486.099609375 c 0
 111.05078125 486 110.950195312 485.900390625 110.850585938 485.799804688 c 0
 110.75 485.700195312 110.650390625 485.599609375 110.55078125 485.5 c 0
 110.450195312 485.400390625 110.350585938 485.200195312 110.25 485.099609375 c 0
 110.25 485 110.150390625 484.900390625 110.05078125 484.799804688 c 0
 109.850585938 484.599609375 109.75 484.299804688 109.650390625 484 c 0
 109.150390625 482.5 74.8505859375 390 74.8505859375 263.599609375 c 0
 74.8505859375 137.200195312 109.05078125 44.7001953125 109.650390625 43.2001953125 c 1
 109.650390625 43.2001953125 l 1
 109.75 42.900390625 109.850585938 42.7001953125 109.950195312 42.5 c 0
 109.950195312 42.400390625 110.05078125 42.400390625 110.05078125 42.2998046875 c 0
 110.150390625 42.099609375 110.25 41.900390625 110.350585938 41.7998046875 c 0
 110.450195312 41.7001953125 110.450195312 41.7001953125 110.55078125 41.599609375 c 0
 110.650390625 41.400390625 110.850585938 41.2998046875 110.950195312 41.2001953125 c 0
 111.05078125 41.2001953125 111.05078125 41.099609375 111.150390625 41.099609375 c 0
 111.350585938 40.900390625 111.650390625 40.7998046875 111.850585938 40.7001953125 c 0
 111.850585938 40.599609375 111.950195312 40.599609375 111.950195312 40.599609375 c 2
 112.150390625 40.5 112.350585938 40.5 112.55078125 40.400390625 c 0
 112.55078125 40.2998046875 112.650390625 40.2998046875 112.75 40.2998046875 c 0
 112.950195312 40.2001953125 113.150390625 40.2001953125 113.350585938 40.2001953125 c 2
 113.450195312 40.2001953125 l 2
 127.25 39.7001953125 141.350585938 39.400390625 155.650390625 39.400390625 c 0
 251.950195312 39.400390625 359.25 51.900390625 456.450195312 74.7001953125 c 0
 575.450195312 102.599609375 667.05078125 143 714.25 188.299804688 c 0
EndSplineSet
EndChar

StartChar: E
Encoding: 69 69 4
Width: 807
Flags: HW
LayerCount: 2
Fore
SplineSet
265.5 237.5 m 0
 270.900390625 176.299804688 254.80078125 119.5 221.30078125 81.2001953125 c 1
 12.1005859375 131.400390625 l 1
 317.400390625 156.599609375 260.400390625 351.099609375 29 389.299804688 c 1
 177.30078125 410.700195312 l 1
 226.5 371.599609375 259.400390625 307.099609375 265.5 237.5 c 0
701 380.799804688 m 1
 771.100585938 374.299804688 l 1
 682.5 310.099609375 l 1
 599.700195312 325.700195312 l 1
 715.900390625 425.099609375 360.600585938 467.900390625 297.100585938 432.299804688 c 0
 233.600585938 396.700195312 301.200195312 277.799804688 374 275.700195312 c 0
 539.5 271 664.5 253.299804688 716 244.900390625 c 1
 273.700195312 244.900390625 l 1
 266.100585938 313.400390625 233.30078125 376.700195312 184.900390625 416.099609375 c 1
 237 477.099609375 340.700195312 481.200195312 419.30078125 473.700195312 c 0
 478.30078125 468 544.80078125 453.400390625 601.700195312 433.400390625 c 0
 657.80078125 413.700195312 685.5 396 693.400390625 385.799804688 c 1
 656.700195312 338.599609375 l 2
 655.200195312 336.700195312 655.5 333.799804688 657.5 332.299804688 c 0
 658.400390625 331.700195312 659.30078125 331.400390625 660.30078125 331.400390625 c 0
 661.700195312 331.400390625 663 332 663.900390625 333.099609375 c 2
 701 380.799804688 l 1
721.700195312 169.700195312 m 1
 804 88.7001953125 l 1
 562.600585938 -23.2998046875 153.5 -28.5 3 124.400390625 c 1
 221.30078125 72.099609375 l 1
 267.200195312 46.2998046875 322.600585938 31 386 26.599609375 c 0
 398.900390625 25.7001953125 412.200195312 25.2001953125 425.80078125 25.2001953125 c 0
 465.5 25.2001953125 507.80078125 29.099609375 552.200195312 36.7001953125 c 0
 653.600585938 54.099609375 731.5 85.7998046875 732.30078125 86.099609375 c 2
 736.700195312 87.900390625 l 1
 708.900390625 145.700195312 l 2
 707.80078125 147.900390625 705.100585938 148.900390625 702.900390625 147.799804688 c 0
 700.700195312 146.700195312 699.700195312 144 700.80078125 141.799804688 c 2
 724.400390625 92.599609375 l 1
 706.600585938 85.7998046875 637.400390625 60.400390625 550.700195312 45.5 c 0
 459.80078125 29.900390625 331 23 230 77.5 c 1
 263.400390625 117.099609375 279.600585938 174.400390625 274.700195312 235.900390625 c 1
 706.100585938 235.900390625 l 1
 649.400390625 229.299804688 529.400390625 217.099609375 376.80078125 212.200195312 c 0
 302 209.799804688 279.200195312 94.900390625 339.100585938 68.7001953125 c 0
 415.200195312 32.599609375 723.700195312 57.2001953125 665.400390625 160.599609375 c 1
 721.700195312 169.700195312 l 1
176.30078125 419.599609375 m 1
 19.2001953125 397 l 1
 186.80078125 554.700195312 576.5 558.400390625 771.5 383.5 c 1
 701.80078125 389.900390625 l 1
 691.700195312 404.799804688 656 424 604.900390625 441.900390625 c 0
 547.30078125 462.099609375 480 476.900390625 420.30078125 482.599609375 c 0
 338.600585938 490.299804688 230.30078125 485.599609375 176.30078125 419.599609375 c 1
EndSplineSet
EndChar

StartChar: F
Encoding: 70 70 5
Width: 786
Flags: HW
LayerCount: 2
Fore
SplineSet
145.450195312 438.700195312 m 1
 14.25 511.900390625 l 1
 203.549804688 459.5 551.25 464.599609375 765.25 495.400390625 c 1
 774.950195312 484 779.450195312 462.200195312 780.150390625 444.400390625 c 1
 614.349609375 469.700195312 173.049804688 440.599609375 145.450195312 438.700195312 c 1
140.950195312 430.900390625 m 1
 160.450195312 386.400390625 174.549804688 312 177.650390625 233 c 0
 177.549804688 232.700195312 177.549804688 232.400390625 177.549804688 232.099609375 c 0
 177.549804688 231.700195312 177.650390625 231.299804688 177.75 230.900390625 c 0
 179.75 176.599609375 176.450195312 120.299804688 166.049804688 70.099609375 c 1
 159.549804688 70.2001953125 153.25 70.099609375 147.049804688 69.900390625 c 0
 126.549804688 69.2001953125 93.9501953125 66.099609375 70.25 54.599609375 c 1
 206.450195312 205.5 151.849609375 355.799804688 5.849609375 506.299804688 c 1
 140.950195312 430.900390625 l 1
779.650390625 435.400390625 m 0
 779.849609375 435.299804688 780.049804688 435.299804688 780.150390625 435.5 c 1
 779.549804688 417.599609375 775.049804688 395.799804688 765.25 384.400390625 c 1
 765.25 384.400390625 385.849609375 497.299804688 200.349609375 340.400390625 c 1
 310.150390625 201.200195312 637.849609375 296.400390625 637.849609375 296.400390625 c 1
 649.150390625 283.200195312 653.849609375 256.900390625 653.849609375 237.099609375 c 0
 653.849609375 237 653.849609375 236.799804688 653.849609375 236.599609375 c 1
 186.650390625 236.599609375 l 1
 186.25 247.299804688 185.650390625 257.900390625 184.75 268.599609375 c 0
 179.650390625 332.400390625 167.450195312 390.700195312 151.150390625 430.099609375 c 1
 207.450195312 433.799804688 621.75 459.799804688 779.650390625 435.400390625 c 0
169.849609375 61 m 0
 219.25 59.7001953125 266.549804688 48.900390625 282.049804688 34.2998046875 c 1
 255.349609375 14.2998046875 206.650390625 5.900390625 169.75 5.900390625 c 0
 132.75 5.900390625 84.0498046875 14.400390625 57.349609375 34.400390625 c 1
 70.849609375 49.7001953125 103.650390625 59.2998046875 147.349609375 60.900390625 c 0
 154.650390625 61.099609375 162.049804688 61.2001953125 169.349609375 61 c 0
 169.450195312 61 169.549804688 61 169.650390625 61 c 0
 169.75 61 169.75 61 169.849609375 61 c 0
186.950195312 227.5 m 1
 186.950195312 227.400390625 l 1
 653.549804688 227.400390625 l 1
 652.25 209.400390625 647.450195312 188.799804688 637.849609375 177.700195312 c 1
 637.849609375 177.700195312 37.25 279.400390625 269.25 52.2998046875 c 1
 245.75 62.2998046875 209.650390625 68.2998046875 175.049804688 69.7001953125 c 1
 184.650390625 116.599609375 188.650390625 171.299804688 186.950195312 227.5 c 1
EndSplineSet
EndChar

StartChar: G
Encoding: 71 71 6
Width: 792
Flags: HW
LayerCount: 2
Fore
SplineSet
91.44921875 240.200195312 m 1
 94.0498046875 246.299804688 101.649414062 262.599609375 116.849609375 283.700195312 c 0
 119.75 287.799804688 123.149414062 292.200195312 126.94921875 296.900390625 c 1
 186.649414062 270.099609375 l 2
 187.25 269.799804688 187.849609375 269.700195312 188.44921875 269.700195312 c 1
 188.44921875 269.700195312 l 1
 188.44921875 208.700195312 l 1
 187.649414062 208.700195312 186.75 208.400390625 185.94921875 207.900390625 c 2
 152.849609375 185.299804688 l 1
 131.75 202.200195312 111.25 220.5 91.44921875 240.200195312 c 1
570.349609375 53.7001953125 m 0
 448.149414062 25.599609375 294.25 74.2998046875 160.25 179.400390625 c 1
 191.049804688 200.400390625 l 2
 192.349609375 201.299804688 193.049804688 202.700195312 193.049804688 204.099609375 c 1
 259.349609375 204.099609375 l 1
 292.549804688 135.799804688 390.049804688 79.599609375 486.049804688 76.2998046875 c 1
 570.149414062 79.2998046875 655.25 123 697.349609375 179.700195312 c 1
 682.349609375 177.400390625 666.25 176.200195312 650.549804688 175.900390625 c 0
 585.44921875 177 519.25 197.599609375 511.349609375 220.400390625 c 1
 753.049804688 220.400390625 l 1
 720.549804688 131.299804688 657.44921875 73.7998046875 570.349609375 53.7001953125 c 0
83.1494140625 243.799804688 m 1
 1.44921875 247.900390625 l 1
 57.6494140625 348.5 270.44921875 489 406.25 500.700195312 c 0
 479.049804688 507 715.349609375 467.5 772.849609375 519 c 1
 785.349609375 504.400390625 790.549804688 475.299804688 790.549804688 453.400390625 c 0
 790.549804688 452.299804688 790.549804688 451.200195312 790.549804688 450.099609375 c 1
 654.94921875 473.400390625 533.349609375 477 429.25 460.900390625 c 0
 345.549804688 447.900390625 272.94921875 422.200195312 213.25 384.5 c 0
 160.049804688 350.799804688 127.25 313.700195312 109.049804688 288.400390625 c 0
 93.6494140625 266.900390625 85.94921875 250.400390625 83.1494140625 243.799804688 c 1
790.049804688 441.099609375 m 1
 788.549804688 421.599609375 783.149414062 399.799804688 772.849609375 387.700195312 c 1
 658.75 426.599609375 485.94921875 429.5 485.94921875 429.5 c 1
 377.149414062 425.700195312 266.849609375 354.200195312 249.75 274 c 1
 192.849609375 274 l 1
 192.849609375 275.700195312 191.94921875 277.400390625 190.25 278.099609375 c 2
 132.849609375 303.900390625 l 1
 151.75 326 179.549804688 352.5 218.649414062 377.099609375 c 0
 310.849609375 435.200195312 484.849609375 493.400390625 789.549804688 441.099609375 c 0
 789.75 441.099609375 789.849609375 441.099609375 790.049804688 441.099609375 c 1
650.549804688 273.900390625 m 0
 719.94921875 272.799804688 790.649414062 249.400390625 790.549804688 224.799804688 c 0
 790.549804688 60 658.94921875 8.7998046875 455.049804688 8.7998046875 c 0
 319.149414062 8.7998046875 60.1494140625 146.700195312 1.849609375 238.799804688 c 1
 84.1494140625 234.599609375 l 1
 157.549804688 161.5 242.25 105 329.25 71.2001953125 c 0
 388.049804688 48.400390625 445.44921875 36.7998046875 498.649414062 36.7998046875 c 0
 524.25 36.7998046875 548.94921875 39.5 572.25 44.900390625 c 0
 664.44921875 66.2001953125 730.649414062 127.900390625 763.649414062 223.400390625 c 2
 765.75 229.400390625 l 1
 511.349609375 229.400390625 l 1
 519.25 252.200195312 585.44921875 272.799804688 650.549804688 273.900390625 c 0
EndSplineSet
EndChar

StartChar: H
Encoding: 72 72 7
Width: 649
Flags: HW
LayerCount: 2
Fore
SplineSet
549.849609375 228.400390625 m 1
 99.25 228.400390625 l 1
 99.349609375 230.700195312 99.349609375 233.099609375 99.349609375 235.599609375 c 0
 99.349609375 238 99.25 240.400390625 99.25 242.799804688 c 1
 549.849609375 242.799804688 l 1
 549.75 240.5 549.75 238.099609375 549.75 235.599609375 c 0
 549.75 233.099609375 549.849609375 230.700195312 549.849609375 228.400390625 c 1
79.650390625 169.5 m 0
 70.9501953125 143.400390625 60.0498046875 110.900390625 60.0498046875 0.599609375 c 1
 39.150390625 1.5 13.25 8.5 -0.150390625 23.7998046875 c 1
 42.9501953125 102.200195312 42.9501953125 416 -0.150390625 494.400390625 c 1
 13.25 509.700195312 39.150390625 516.700195312 60.0498046875 517.599609375 c 1
 60.0498046875 517.5 60.0498046875 517.5 60.0498046875 517.5 c 2
 60.0498046875 407.400390625 70.849609375 358.400390625 79.5498046875 319 c 0
 85.349609375 292.700195312 90.349609375 270 90.349609375 235.599609375 c 0
 90.349609375 231.5 90.25 227.599609375 90.150390625 224 c 2
 90.150390625 223.900390625 l 2
 90.150390625 223.799804688 90.150390625 223.799804688 90.150390625 223.799804688 c 2
 89.150390625 197.900390625 84.849609375 185.099609375 79.650390625 169.5 c 0
69.0498046875 517.5 m 1
 69.0498046875 517.5 69.0498046875 517.599609375 69.0498046875 517.5 c 1
 89.9501953125 516.700195312 115.849609375 509.700195312 129.25 494.400390625 c 2
 129.25 494.400390625 10.5498046875 272.599609375 324.349609375 272.599609375 c 0
 638.150390625 272.599609375 519.650390625 494.400390625 519.650390625 494.400390625 c 2
 533.049804688 509.700195312 558.950195312 516.700195312 579.849609375 517.599609375 c 1
 579.849609375 517.5 579.849609375 517.5 579.849609375 517.5 c 2
 579.849609375 408.299804688 569.25 359.799804688 560.650390625 320.900390625 c 0
 555.75 298.400390625 551.349609375 278.5 550.049804688 251.799804688 c 1
 98.849609375 251.799804688 l 1
 97.5498046875 278.5 93.150390625 298.400390625 88.25 320.900390625 c 0
 79.75 359.900390625 69.0498046875 408.299804688 69.0498046875 517.5 c 1
560.849609375 166.700195312 m 0
 569.450195312 141.200195312 580.049804688 109.400390625 580.049804688 0.599609375 c 1
 559.150390625 1.5 533.25 8.5 519.849609375 23.7998046875 c 2
 519.849609375 23.7998046875 644.950195312 198.599609375 324.549804688 198.599609375 c 0
 4.150390625 198.599609375 129.25 23.7998046875 129.25 23.7998046875 c 2
 115.849609375 8.5 89.9501953125 1.5 69.0498046875 0.599609375 c 1
 69.0498046875 109.400390625 79.650390625 141.200195312 88.150390625 166.700195312 c 0
 93.150390625 181.599609375 97.5498046875 194.799804688 98.849609375 219.400390625 c 1
 550.150390625 219.400390625 l 1
 551.450195312 194.799804688 555.849609375 181.599609375 560.849609375 166.700195312 c 0
649.150390625 494.400390625 m 1
 606.049804688 415.900390625 606.049804688 102.200195312 649.150390625 23.7998046875 c 1
 635.75 8.5 609.849609375 1.5 588.950195312 0.599609375 c 1
 588.950195312 110.900390625 578.049804688 143.400390625 569.349609375 169.5 c 0
 563.349609375 187.400390625 558.650390625 201.5 558.650390625 235.599609375 c 0
 558.650390625 270 563.650390625 292.700195312 569.450195312 319 c 0
 578.150390625 358.400390625 588.950195312 407.400390625 588.950195312 517.5 c 0
 588.950195312 517.599609375 588.950195312 517.599609375 588.950195312 517.599609375 c 1
 609.849609375 516.700195312 635.75 509.700195312 649.150390625 494.400390625 c 1
EndSplineSet
EndChar

StartChar: I
Encoding: 73 73 8
Width: 534
Flags: HW
LayerCount: 2
Fore
SplineSet
272.799804688 60.5 m 0
 284 60.5 295.400390625 60.5 306.799804688 60.599609375 c 1
 317 37.2001953125 l 1
 311.5 33.2998046875 298.100585938 29.5 277.5 28.7998046875 c 0
 253.600585938 28 230.299804688 31.7001953125 221.700195312 37.5 c 1
 230 60.900390625 l 1
 244.400390625 60.7001953125 258.799804688 60.5 272.799804688 60.5 c 0
51 112.299804688 m 1
 97.5 101.099609375 168.900390625 100 216.799804688 100.799804688 c 1
 234.400390625 193 234.900390625 323.099609375 217 416 c 1
 169.100585938 416.799804688 97.400390625 415.799804688 50.7998046875 404.5 c 1
 58 438.700195312 l 1
 84.1005859375 443.700195312 156.100585938 447.5 241.299804688 448.400390625 c 1
 241.299804688 69.7001953125 l 1
 156.100585938 70.7001953125 84.1005859375 74.400390625 58 79.400390625 c 1
 51 112.299804688 l 1
41.7001953125 405.5 m 1
 13.1005859375 422.5 0 459.900390625 0 459.900390625 c 0
 44.7001953125 476.299804688 135.799804688 479.799804688 199.100585938 480.099609375 c 1
 197.200195312 484.599609375 195.299804688 489.099609375 193.299804688 493.099609375 c 1
 209.700195312 509.5 242.400390625 516.400390625 267 516.400390625 c 0
 291.600585938 516.400390625 324.299804688 509.599609375 340.700195312 493.099609375 c 1
 338.700195312 489.099609375 336.799804688 484.700195312 334.900390625 480.099609375 c 1
 394.900390625 479.900390625 479.900390625 476.700195312 526.600585938 462.400390625 c 1
 477.700195312 447.299804688 l 1
 457.299804688 453.900390625 387.5 456.799804688 316.600585938 457.5 c 1
 327.600585938 482.799804688 l 1
 325.900390625 484.900390625 l 2
 317.100585938 495.799804688 289.400390625 497.900390625 277.900390625 498.299804688 c 0
 252.600585938 499.200195312 222.900390625 495.5 213.200195312 485.099609375 c 2
 211.299804688 483.099609375 l 1
 220.5 457.099609375 l 1
 148.799804688 455.900390625 78.2998046875 452.599609375 53.1005859375 446.900390625 c 2
 50.2998046875 446.299804688 l 1
 41.7001953125 405.5 l 1
534 459.900390625 m 1
 534 459.900390625 l 1
 534 459.900390625 l 1
488.200195312 113.599609375 m 1
 519.600585938 97.900390625 534 57 533.900390625 57.099609375 c 0
 531.900390625 56.400390625 529.799804688 55.7001953125 527.600585938 55 c 1
 530.200195312 62.599609375 l 1
 477.5 80.5 l 1
 476 79.900390625 l 2
 460 73.7998046875 389 69.7998046875 292.700195312 69.599609375 c 1
 292.700195312 448.799804688 l 1
 389 448.599609375 460 444.599609375 476 438.5 c 2
 477.400390625 437.900390625 l 1
 531.700195312 454.599609375 l 1
 526.600585938 443 512.5 415.599609375 488.100585938 403.400390625 c 1
 441.799804688 415.900390625 366.600585938 417 317 416.099609375 c 1
 299.200195312 323.200195312 299.600585938 193 317.200195312 100.900390625 c 1
 366.900390625 100 441.900390625 101.099609375 488.200195312 113.599609375 c 1
272.900390625 448.700195312 m 0
 276.5 448.700195312 280.100585938 448.700195312 283.799804688 448.700195312 c 1
 283.799804688 69.599609375 l 1
 280.200195312 69.599609375 276.600585938 69.599609375 272.900390625 69.599609375 c 0
 265.299804688 69.599609375 257.799804688 69.599609375 250.299804688 69.7001953125 c 1
 250.299804688 448.599609375 l 1
 257.700195312 448.599609375 265.299804688 448.700195312 272.900390625 448.700195312 c 0
526.100585938 54.400390625 m 1
 479.299804688 40.2001953125 394.700195312 37.099609375 335.100585938 36.7998046875 c 1
 336.900390625 32.2001953125 338.799804688 27.7998046875 340.799804688 23.7998046875 c 1
 324.400390625 7.400390625 291.700195312 0.5 267.100585938 0.5 c 0
 242.5 0.5 209.799804688 7.2998046875 193.400390625 23.7998046875 c 1
 195.400390625 27.7998046875 197.299804688 32.2001953125 199.100585938 36.7998046875 c 1
 135.799804688 37.099609375 44.7001953125 40.599609375 0.1005859375 57 c 1
 0.1005859375 57 13.2001953125 94.599609375 42 111.5 c 1
 50.400390625 71.7998046875 l 1
 53.2001953125 71.2001953125 l 2
 78.2998046875 65.5 148.799804688 62.2001953125 220.600585938 61 c 1
 211.400390625 35 l 1
 213.299804688 33 l 2
 222.100585938 23.7001953125 247.299804688 19.7001953125 270.700195312 19.7001953125 c 0
 273.200195312 19.7001953125 275.600585938 19.7001953125 278 19.7998046875 c 0
 289.5 20.2001953125 317.200195312 22.2998046875 326 33.2001953125 c 2
 327.700195312 35.2998046875 l 1
 316.700195312 60.599609375 l 1
 387.5 61.2998046875 457.200195312 64.2001953125 477.700195312 70.7998046875 c 1
 526.100585938 54.400390625 l 1
317 481 m 1
 306.799804688 457.599609375 l 1
 295.400390625 457.700195312 284 457.700195312 272.799804688 457.700195312 c 0
 258.799804688 457.599609375 244.400390625 457.5 230 457.299804688 c 1
 221.700195312 480.700195312 l 1
 230.299804688 486.5 253.600585938 490.200195312 277.5 489.400390625 c 0
 298.100585938 488.700195312 311.5 484.900390625 317 481 c 1
EndSplineSet
EndChar

StartChar: J
Encoding: 74 74 9
Width: 749
Flags: HW
LayerCount: 2
Fore
SplineSet
741.75 67.599609375 m 1
 733.25 70.099609375 717.55078125 77 702.25 95.900390625 c 0
 680.94921875 122 656.75 176.5 661.849609375 287.900390625 c 1
 661.849609375 288.099609375 l 2
 661.849609375 372.200195312 685.55078125 418.099609375 705.44921875 441.900390625 c 0
 718.349609375 457.299804688 731.44921875 465.599609375 739.75 469.799804688 c 1
 671.94921875 391.5 672.650390625 142.599609375 741.75 67.599609375 c 1
747.650390625 477.900390625 m 1
 747.650390625 477.900390625 l 1
 747.650390625 477.900390625 l 1
 747.650390625 477.900390625 l 1
602.650390625 129.700195312 m 1
 609.349609375 145.299804688 614.94921875 163.400390625 619.05078125 184 c 0
 629.650390625 235.700195312 628.25 285.700195312 628.150390625 288.200195312 c 0
 628.150390625 326.700195312 622.25 360.799804688 610.75 389.599609375 c 0
 601.44921875 412.799804688 588.55078125 432.700195312 572.25 448.599609375 c 0
 560.150390625 460.400390625 548.150390625 468.299804688 538.25 473.400390625 c 1
 727.55078125 473.400390625 l 1
 719.25 468.200195312 709.150390625 460.299804688 698.94921875 448.299804688 c 0
 685.44921875 432.400390625 674.75 412.599609375 667.05078125 389.400390625 c 0
 657.55078125 360.599609375 652.75 326.599609375 652.75 288.200195312 c 0
 650.44921875 238 653.849609375 194.700195312 662.75 159.5 c 0
 665.55078125 148.799804688 668.75 138.900390625 672.44921875 129.700195312 c 1
 602.650390625 129.700195312 l 1
738.150390625 482.400390625 m 1
 524.150390625 482.400390625 l 1
 551.75 493.700195312 596.55078125 498.5 631.150390625 498.5 c 0
 665.650390625 498.5 710.44921875 493.700195312 738.150390625 482.400390625 c 1
695.150390625 90.2001953125 m 0
 711.44921875 70.2998046875 728.25 62.400390625 738.25 59.2001953125 c 1
 479.75 -8.400390625 100.650390625 -10.7998046875 1.349609375 167.599609375 c 1
 39.94921875 167.599609375 l 1
 39.94921875 159.700195312 41.349609375 155 41.55078125 154.5 c 2
 41.94921875 153.299804688 l 1
 42.849609375 152.5 l 2
 89.349609375 112.200195312 144.05078125 82.2998046875 205.25 63.7998046875 c 0
 254.150390625 49 307.349609375 41.2998046875 363.349609375 41 c 0
 364.44921875 41 365.650390625 41 366.75 41 c 0
 457.75 41 526.25 60.7001953125 530.650390625 62 c 0
 555.05078125 66.900390625 575.25 82.099609375 590.94921875 107.200195312 c 0
 593.55078125 111.400390625 596.05078125 115.900390625 598.44921875 120.700195312 c 1
 676.349609375 120.700195312 l 1
 681.75 109.099609375 688.05078125 98.900390625 695.150390625 90.2001953125 c 0
747.650390625 61.7001953125 m 1
 747.650390625 61.7001953125 l 1
 747.650390625 61.7001953125 l 1
40.55078125 176.5 m 1
 2.75 176.5 l 1
 64.05078125 249.799804688 l 1
 77.75 246.200195312 l 1
 51.25 217.200195312 42.75 192.799804688 40.55078125 176.5 c 1
105.55078125 238.900390625 m 1
 -72.349609375 91.900390625 485.75 27.400390625 561.650390625 137.200195312 c 1
 561.650390625 137.200195312 629.55078125 296.900390625 518.25 472.099609375 c 1
 527.05078125 469.099609375 546.75 461 566.349609375 441.700195312 c 0
 600.849609375 407.700195312 619.150390625 354.5 619.150390625 288 c 2
 619.150390625 287.799804688 l 2
 619.150390625 287.299804688 620.849609375 237.299804688 610.25 185.5 c 0
 600.650390625 138.599609375 578.650390625 80.599609375 528.650390625 70.599609375 c 2
 528.25 70.5 l 2
 527.55078125 70.2998046875 458.94921875 49.900390625 366.75 49.900390625 c 0
 365.55078125 49.900390625 364.349609375 49.900390625 363.150390625 49.900390625 c 0
 276.94921875 50.400390625 152.75 69.599609375 49.75 158.200195312 c 0
 48.349609375 164.5 43.94921875 196.900390625 85.94921875 241.799804688 c 1
 82.650390625 244.900390625 l 1
 105.55078125 238.900390625 l 1
EndSplineSet
EndChar

StartChar: K
Encoding: 75 75 10
Width: 726
Flags: HW
LayerCount: 2
Fore
SplineSet
169.451171875 487.700195312 m 1
 148.349609375 452.700195312 135.951171875 384.299804688 132.05078125 309.799804688 c 1
 271.349609375 316.799804688 467.75 369.299804688 540.55078125 438 c 1
 496.150390625 442.099609375 458.55078125 450.900390625 449.25 460.5 c 1
 603.451171875 460.5 l 1
 590.55078125 445.900390625 549.951171875 407.799804688 490.650390625 369.400390625 c 0
 429.650390625 329.900390625 336.951171875 282.900390625 241.05078125 282.900390625 c 2
 106.75 282.900390625 l 1
 106.75 462 l 1
 169.451171875 487.700195312 l 1
667.150390625 442.200195312 m 1
 611.55078125 406.700195312 504.05078125 353.299804688 512.55078125 278.299804688 c 0
 522.650390625 190.599609375 656.650390625 166.5 690.951171875 71.2001953125 c 1
 707.75 67.2001953125 720.05078125 62.5 724.849609375 57.5 c 1
 630.05078125 57.5 l 1
 599.349609375 111.700195312 543.55078125 166.799804688 476.349609375 208.900390625 c 0
 440.05078125 231.700195312 402.25 249.599609375 363.849609375 262.200195312 c 0
 341.05078125 269.700195312 318.349609375 275.200195312 295.951171875 278.599609375 c 1
 375.150390625 291.900390625 448.349609375 330.799804688 499.55078125 364.5 c 0
 537.55078125 389.5 566.25 413.099609375 583.55078125 428.599609375 c 0
 595.451171875 439.200195312 602.951171875 446.799804688 607.150390625 451.299804688 c 0
 611.25 455.599609375 613.55078125 458.5 614.849609375 460.5 c 2
 724.849609375 460.5 l 1
 718.05078125 453.400390625 695.951171875 446.799804688 667.150390625 442.200195312 c 1
73.650390625 469.5 m 1
 5.150390625 497.5 l 1
 25.349609375 511.599609375 60.55078125 517.599609375 87.451171875 517.599609375 c 0
 114.349609375 517.599609375 149.55078125 511.700195312 169.75 497.5 c 1
 101.349609375 469.5 l 1
 73.650390625 469.5 l 1
449.25 57.599609375 m 1
 459.25 68.099609375 502.650390625 77.5 551.75 80.900390625 c 1
 465.451171875 181.799804688 268.25 239.5 130.75 246.900390625 c 1
 131.75 163.5 143.25 81.7001953125 165.150390625 38.2001953125 c 1
 106.75 93.7001953125 l 1
 106.75 273.900390625 l 1
 241.05078125 273.900390625 l 2
 397.951171875 273.900390625 557.55078125 162.900390625 619.75 57.599609375 c 1
 449.25 57.599609375 l 1
724.849609375 469.5 m 1
 449.25 469.5 l 1
 461.55078125 482.5 524.849609375 493.799804688 587.05078125 494.400390625 c 0
 649.25 493.700195312 712.451171875 482.400390625 724.849609375 469.5 c 1
77.25 96.2998046875 m 1
 77.25 460.5 l 1
 97.75 460.5 l 1
 97.75 96.2998046875 l 1
 77.25 96.2998046875 l 1
449.25 48.599609375 m 1
 724.849609375 48.599609375 l 1
 712.55078125 35.599609375 649.25 24.2998046875 587.05078125 23.7001953125 c 0
 524.849609375 24.400390625 461.650390625 35.7001953125 449.25 48.599609375 c 1
100.451171875 87.2998046875 m 1
 170.349609375 21 l 1
 150.25 6.599609375 114.650390625 0.5 87.55078125 0.5 c 0
 60.451171875 0.5 24.849609375 6.599609375 4.75 21 c 1
 74.55078125 87.2998046875 l 1
 100.451171875 87.2998046875 l 1
1.150390625 23.7998046875 m 1
 1.150390625 23.7998046875 l 1
 1.150390625 23.7998046875 l 1
5.55078125 487.700195312 m 1
 68.25 462 l 1
 68.25 93.7998046875 l 1
 9.849609375 38.2998046875 l 1
 57.25 132.299804688 55.75 404.400390625 5.55078125 487.700195312 c 1
EndSplineSet
EndChar

StartChar: L
Encoding: 76 76 11
Width: 767
Flags: HW
LayerCount: 2
Fore
SplineSet
725.150390625 69.599609375 m 0
 736.75 78.900390625 751.150390625 83.599609375 764.049804688 74.7998046875 c 1
 704.75 3.900390625 l 1
 692.650390625 17.5 700.850585938 43.2998046875 715.950195312 60.7001953125 c 0
 718.650390625 63.7001953125 721.549804688 66.599609375 724.75 69.2001953125 c 0
 724.850585938 69.2998046875 725.049804688 69.5 725.150390625 69.599609375 c 0
694.650390625 2.2998046875 m 1
 660.150390625 11.5 l 1
 720.049804688 158.400390625 309.049804688 110.299804688 233.049804688 0.5 c 1
 47.150390625 76 l 1
 47.150390625 76 115.350585938 296.400390625 2.9501953125 473.099609375 c 1
 19.8505859375 472.299804688 34.75 464.700195312 47.4501953125 450.5 c 0
 70.9501953125 424.099609375 86.9501953125 374.400390625 93.8505859375 306.799804688 c 0
 100.150390625 245 98.650390625 171.200195312 89.650390625 93.400390625 c 1
 89.650390625 93.400390625 l 1
 89.650390625 93.400390625 l 1
 89.650390625 93.2998046875 89.650390625 93.2998046875 89.650390625 93.2001953125 c 0
 89.650390625 93 89.650390625 92.7001953125 89.650390625 92.5 c 0
 89.650390625 92.2998046875 89.75 92.2001953125 89.75 92.099609375 c 0
 89.75 91.900390625 89.8505859375 91.7998046875 89.8505859375 91.599609375 c 0
 89.9501953125 91.5 89.9501953125 91.2998046875 90.0498046875 91.2001953125 c 0
 90.150390625 91.099609375 90.150390625 90.900390625 90.25 90.7998046875 c 0
 90.25 90.599609375 90.3505859375 90.5 90.4501953125 90.400390625 c 0
 90.4501953125 90.2998046875 90.5498046875 90.099609375 90.650390625 90 c 0
 90.75 89.900390625 90.8505859375 89.7998046875 90.9501953125 89.7001953125 c 0
 91.0498046875 89.599609375 91.150390625 89.5 91.25 89.400390625 c 0
 91.3505859375 89.2998046875 91.5498046875 89.2001953125 91.650390625 89.099609375 c 0
 91.75 89.099609375 91.8505859375 89 91.9501953125 88.900390625 c 0
 92.150390625 88.7998046875 92.3505859375 88.7001953125 92.5498046875 88.599609375 c 0
 92.650390625 88.599609375 92.650390625 88.5 92.75 88.5 c 1
 92.75 88.5 l 1
 92.75 88.5 l 1
 212.950195312 48.099609375 l 1
 214.850585938 49.7001953125 l 2
 248.850585938 77.900390625 327.75 111.299804688 427.25 122.299804688 c 0
 503.25 130.700195312 614.25 128.599609375 714.350585938 72.2001953125 c 1
 712.549804688 70.400390625 710.75 68.599609375 709.049804688 66.599609375 c 0
 692.950195312 48 683.450195312 20.5 694.650390625 2.2998046875 c 1
228.450195312 472.900390625 m 1
 178.150390625 417 163.350585938 216.299804688 183.75 110.099609375 c 1
 413.850585938 161.700195312 578.75 192.900390625 750.850585938 88.400390625 c 1
 741.25 88.7998046875 731.150390625 85.400390625 721.650390625 78.400390625 c 1
 678.850585938 103 630.049804688 119.799804688 576.549804688 128.400390625 c 0
 528.75 136 478.150390625 137 426.350585938 131.299804688 c 0
 381.150390625 126.299804688 336.150390625 116.200195312 296.450195312 102.099609375 c 0
 260.950195312 89.5 230.850585938 74 211.150390625 58.2998046875 c 1
 144.049804688 80.7998046875 l 1
 135.25 158.299804688 133.850585938 235.900390625 140.150390625 299.599609375 c 0
 147.25 371.599609375 163.850585938 424.099609375 188.049804688 451.299804688 c 0
 199.75 464.400390625 213.350585938 471.700195312 228.450195312 472.900390625 c 1
54.25 456.400390625 m 0
 41.150390625 471.200195312 25.75 479.599609375 8.4501953125 481.599609375 c 1
 36.0498046875 493.299804688 81.5498046875 498.200195312 116.650390625 498.200195312 c 0
 151.75 498.200195312 197.350585938 493.299804688 224.950195312 481.599609375 c 1
 208.549804688 479.599609375 193.850585938 471.5 181.25 457.299804688 c 0
 123.450195312 392.299804688 119.850585938 217.299804688 134.549804688 83.900390625 c 1
 99.0498046875 95.7998046875 l 1
 114.25 229.599609375 110.350585938 393.400390625 54.25 456.400390625 c 0
EndSplineSet
EndChar

StartChar: M
Encoding: 77 77 12
Width: 789
Flags: HW
LayerCount: 2
Fore
SplineSet
390.046875 229.400390625 m 1
 389.947265625 229.400390625 l 1
 389.947265625 158.599609375 l 1
 342.247070312 244.799804688 240.546875 386.200195312 191.247070312 402.299804688 c 1
 99.546875 308.400390625 76.046875 164.5 78.3466796875 116.099609375 c 1
 30.447265625 83.7001953125 l 1
 56.2470703125 45.599609375 l 1
 105.747070312 79.099609375 l 1
 129.147460938 76.7001953125 164.747070312 94.7001953125 181.647460938 104.299804688 c 1
 176.647460938 94.2001953125 176.046875 81.400390625 180.247070312 71.2998046875 c 1
 166.247070312 64 122.447265625 49.099609375 110.947265625 49.099609375 c 2
 110.046875 49.099609375 l 1
 56.3466796875 26.5 l 1
 17.947265625 84.7001953125 l 1
 44.947265625 123.900390625 l 1
 44.947265625 125.299804688 l 2
 43.046875 251.200195312 150.147460938 434.5 194.046875 449.099609375 c 1
 229.447265625 448.5 286.346679688 366.299804688 327.947265625 306.099609375 c 0
 359.247070312 260.900390625 377.747070312 234.799804688 390.046875 229.400390625 c 1
226.546875 73.2998046875 m 1
 211.247070312 62.400390625 198.846679688 61.099609375 191.747070312 69.599609375 c 0
 183.846679688 79.099609375 185.147460938 97.900390625 194.447265625 106.799804688 c 1
 191.447265625 110 l 1
 226.546875 73.2998046875 l 1
203.846679688 55 m 0
 206.846679688 55 210.247070312 55.5 213.947265625 56.7001953125 c 1
 155.346679688 11.400390625 74.947265625 -3.7998046875 6.2470703125 -0.7001953125 c 1
 -23.2529296875 170.900390625 57.6474609375 444.700195312 188.947265625 515.700195312 c 1
 188.947265625 456.799804688 l 1
 164.447265625 446.299804688 127.046875 397.700195312 94.6474609375 333.400390625 c 0
 56.8466796875 258.599609375 35.546875 183.400390625 36.046875 126.700195312 c 1
 7.2470703125 84.900390625 l 1
 53.046875 15.2998046875 l 1
 112.046875 40.2001953125 l 1
 125.647460938 40.900390625 168.947265625 55.099609375 184.947265625 63.7001953125 c 1
 187.947265625 60.2001953125 193.947265625 55 203.846679688 55 c 0
197.947265625 457.900390625 m 1
 197.947265625 514 l 1
 263.846679688 481.200195312 357.747070312 357.299804688 394.546875 278.400390625 c 1
 431.346679688 357.299804688 525.247070312 481.200195312 591.346679688 514 c 1
 591.346679688 457.900390625 l 1
 573.846679688 455.700195312 552.747070312 439.799804688 525.747070312 408.299804688 c 0
 501.247070312 379.900390625 476.046875 343.400390625 453.846679688 311.299804688 c 0
 439.747070312 290.900390625 426.346679688 271.700195312 415.647460938 258 c 0
 400.247070312 238.400390625 395.447265625 237.400390625 394.647460938 237.400390625 c 0
 393.846679688 237.400390625 389.046875 238.400390625 373.647460938 258 c 0
 362.846679688 271.700195312 349.546875 290.900390625 335.447265625 311.299804688 c 0
 313.247070312 343.400390625 288.046875 379.799804688 263.546875 408.299804688 c 0
 236.447265625 439.799804688 215.447265625 455.700195312 197.947265625 457.900390625 c 1
394.546875 150.5 m 1
 394.546875 150.5 l 1
 394.546875 150.5 l 1
597.747070312 110.099609375 m 1
 597.747070312 110.099609375 l 1
 594.546875 106.900390625 l 1
 603.846679688 98 605.247070312 79.2998046875 597.247070312 69.7001953125 c 0
 590.147460938 61.099609375 577.846679688 62.5 562.447265625 73.400390625 c 1
 597.747070312 110.099609375 l 1
710.647460938 116.299804688 m 1
 712.947265625 164.599609375 689.346679688 308.599609375 597.647460938 402.599609375 c 1
 548.346679688 386.5 446.647460938 245.099609375 398.947265625 158.900390625 c 1
 398.947265625 229.5 l 1
 411.247070312 234.900390625 429.747070312 261 461.046875 306.200195312 c 0
 502.647460938 366.299804688 559.546875 448.599609375 594.947265625 449.200195312 c 1
 638.846679688 434.599609375 745.947265625 251.299804688 744.046875 125.400390625 c 2
 744.046875 124 l 1
 771.046875 84.7998046875 l 1
 732.647460938 26.599609375 l 1
 678.947265625 49.2001953125 l 1
 678.046875 49.2001953125 l 2
 666.546875 49.2001953125 622.747070312 64.099609375 608.747070312 71.400390625 c 1
 612.947265625 81.5 612.346679688 94.2998046875 607.346679688 104.400390625 c 1
 624.247070312 94.7998046875 659.846679688 76.7001953125 683.247070312 79.2001953125 c 1
 732.747070312 45.7998046875 l 1
 758.546875 83.900390625 l 1
 710.647460938 116.299804688 l 1
600.147460938 515.799804688 m 1
 731.447265625 444.700195312 812.247070312 170.900390625 782.747070312 -0.5 c 1
 714.046875 -3.599609375 633.647460938 11.599609375 575.046875 56.900390625 c 1
 578.846679688 55.7001953125 582.247070312 55.2001953125 585.247070312 55.2001953125 c 0
 595.147460938 55.2001953125 601.247070312 60.5 604.147460938 63.900390625 c 1
 620.147460938 55.2998046875 663.447265625 41.099609375 677.046875 40.400390625 c 1
 736.046875 15.5 l 1
 781.846679688 85 l 1
 753.046875 126.799804688 l 1
 753.546875 183.400390625 732.247070312 258.599609375 694.447265625 333.5 c 0
 662.046875 397.799804688 624.747070312 446.400390625 600.147460938 456.900390625 c 1
 600.147460938 515.799804688 l 1
559.346679688 70.099609375 m 1
 559.346679688 70.099609375 l 1
 559.346679688 70.099609375 l 1
EndSplineSet
EndChar

StartChar: N
Encoding: 78 78 13
Width: 822
Flags: HW
LayerCount: 2
Fore
SplineSet
612.950195312 416.099609375 m 1
 620.049804688 418 634.650390625 420.5 642.950195312 416.599609375 c 1
 646.349609375 407.200195312 644.049804688 390.700195312 642.25 382.099609375 c 1
 612.950195312 416.099609375 l 1
115.25 451.799804688 m 1
 103.25 514.5 l 1
 233.549804688 411.299804688 419.75 273.400390625 419.75 273.400390625 c 1
 479.549804688 234.099609375 552.450195312 174.799804688 657.049804688 134 c 0
 846.849609375 60 803.75 554 651.849609375 384.900390625 c 1
 653.450195312 393.799804688 654.950195312 408.299804688 651.650390625 418.700195312 c 1
 666.150390625 432.5 688.450195312 447.099609375 710.049804688 449.099609375 c 0
 733.049804688 451.200195312 760.450195312 420 778.349609375 371.5 c 0
 813.150390625 277.099609375 806.349609375 144.400390625 709.549804688 74.900390625 c 1
 634.450195312 92.7001953125 415.950195312 260.900390625 413.75 262.599609375 c 0
 404.650390625 269.599609375 193.150390625 432.5 115.25 451.799804688 c 1
97.849609375 518.799804688 m 1
 97.849609375 518.799804688 l 1
 97.849609375 518.799804688 l 1
645.549804688 425.299804688 m 1
 636.849609375 428.900390625 625.349609375 427.799804688 617.549804688 426.200195312 c 1
 724.049804688 515.099609375 l 1
 809.150390625 416.299804688 891.450195312 172 727.849609375 3.099609375 c 1
 715.450195312 68 l 1
 762.25 101.900390625 792.349609375 152.700195312 802.549804688 215 c 0
 810.950195312 266.5 805.25 324.700195312 786.849609375 374.599609375 c 0
 777.549804688 399.799804688 765.650390625 420.900390625 752.549804688 435.700195312 c 0
 738.450195312 451.599609375 723.450195312 459.299804688 709.25 458 c 0
 685.450195312 455.799804688 661.25 440.099609375 645.549804688 425.299804688 c 1
706.650390625 66.2998046875 m 1
 718.650390625 3.599609375 l 1
 588.349609375 106.799804688 402.150390625 244.700195312 402.150390625 244.700195312 c 1
 342.349609375 284 269.450195312 343.299804688 164.950195312 384.099609375 c 0
 -24.9501953125 458.099609375 18.25 -35.900390625 170.049804688 133.200195312 c 1
 168.450195312 124.299804688 166.950195312 109.799804688 170.25 99.400390625 c 1
 155.75 85.599609375 133.450195312 71 111.849609375 69 c 0
 88.849609375 66.900390625 61.4501953125 98.099609375 43.5498046875 146.599609375 c 0
 8.75 241 15.5498046875 373.700195312 112.349609375 443.200195312 c 1
 187.450195312 425.400390625 405.950195312 257.200195312 408.150390625 255.5 c 0
 417.25 248.5 628.75 85.599609375 706.650390625 66.2998046875 c 1
724.049804688 -0.7001953125 m 1
 724.049804688 -0.7001953125 l 1
 724.049804688 -0.7001953125 l 1
190.650390625 90.400390625 m 0
 195.549804688 90.400390625 200.450195312 91 204.450195312 91.7998046875 c 1
 97.9501953125 2.900390625 l 1
 12.849609375 101.700195312 -69.4501953125 346 94.150390625 514.900390625 c 1
 106.549804688 450 l 1
 59.75 416.099609375 29.650390625 365.299804688 19.4501953125 303 c 0
 11.0498046875 251.5 16.75 193.299804688 35.150390625 143.400390625 c 0
 44.4501953125 118.200195312 56.349609375 97.099609375 69.4501953125 82.2998046875 c 0
 82.4501953125 67.599609375 96.349609375 59.900390625 109.549804688 59.900390625 c 0
 110.549804688 59.900390625 111.650390625 59.900390625 112.650390625 60 c 0
 136.450195312 62.2998046875 160.650390625 78 176.349609375 92.7998046875 c 1
 180.650390625 91 185.75 90.400390625 190.650390625 90.400390625 c 0
208.849609375 102 m 1
 201.75 100.099609375 187.150390625 97.599609375 178.849609375 101.5 c 1
 175.450195312 110.900390625 177.75 127.400390625 179.549804688 136 c 1
 208.849609375 102 l 1
EndSplineSet
EndChar

StartChar: O
Encoding: 79 79 14
Width: 809
Flags: HW
LayerCount: 2
Fore
SplineSet
543.75 262.700195312 m 1
 265.349609375 262.700195312 l 1
 273.25 285.5 339.450195312 306.099609375 404.549804688 307.200195312 c 0
 469.650390625 306.099609375 535.849609375 285.5 543.75 262.700195312 c 1
265.349609375 253.700195312 m 1
 543.75 253.700195312 l 1
 535.849609375 230.900390625 469.650390625 210.299804688 404.549804688 209.200195312 c 0
 339.450195312 210.299804688 273.25 230.900390625 265.349609375 253.700195312 c 1
264.549804688 258.200195312 m 1
 264.549804688 258.200195312 l 1
 264.549804688 258.200195312 l 1
383.549804688 339.900390625 m 1
 385.950195312 346.799804688 392.549804688 361.099609375 400.849609375 364.400390625 c 1
 409.150390625 361.099609375 415.650390625 346.799804688 418.150390625 339.900390625 c 1
 383.549804688 339.900390625 l 1
422.950195312 351.799804688 m 1
 419.349609375 359.099609375 413.450195312 368.200195312 405.549804688 372.200195312 c 1
 406.25 387.799804688 408.049804688 452.799804688 388.349609375 480 c 1
 422.950195312 511 l 1
 422.950195312 351.799804688 l 1
396.450195312 372.299804688 m 1
 388.349609375 368.5 382.450195312 359.299804688 378.549804688 351.799804688 c 1
 378.049804688 383.099609375 372.049804688 465 323.849609375 465 c 0
 309.849609375 465 284.349609375 460.299804688 261.950195312 449.400390625 c 0
 187.349609375 414.099609375 101.650390625 345.200195312 101.650390625 259.400390625 c 0
 101.650390625 151.599609375 255.849609375 57 327.349609375 48.5 c 1
 321.549804688 45.599609375 314.049804688 41 309.849609375 35.2998046875 c 1
 260.950195312 43.7998046875 197.25 75.400390625 146.549804688 116.400390625 c 0
 88.5498046875 163.299804688 55.349609375 215.400390625 55.349609375 259.400390625 c 0
 55.349609375 283 67.9501953125 311.599609375 91.849609375 342.099609375 c 0
 114.450195312 370.900390625 146.349609375 400.099609375 181.549804688 424.099609375 c 0
 216.450195312 448 252.75 465.599609375 286.450195312 475.200195312 c 0
 322.549804688 485.5 354.650390625 486 379.450195312 476.599609375 c 1
 398.950195312 454 397.150390625 387 396.450195312 372.299804688 c 1
307.950195312 26.599609375 m 1
 309.75 15.900390625 319.950195312 7.400390625 327.349609375 2.599609375 c 1
 236.25 11.599609375 0.0498046875 134.900390625 0.0498046875 258.299804688 c 0
 0.0498046875 386.299804688 206.950195312 514.400390625 416.049804688 517.099609375 c 1
 381.150390625 485.700195312 l 1
 354.549804688 495.299804688 321.849609375 494.799804688 284.049804688 484 c 0
 249.450195312 474.099609375 212.25 456 176.549804688 431.700195312 c 0
 111.75 387.5 46.4501953125 317.099609375 46.4501953125 259.5 c 0
 46.4501953125 156.5 205.549804688 44.599609375 307.950195312 26.599609375 c 1
316.75 29.2998046875 m 0
 320.150390625 34.7998046875 330.349609375 40.2998046875 337.25 43.099609375 c 1
 337.25 7 l 1
 330.25 10.900390625 317.25 20 316.75 29.2998046875 c 0
425.549804688 176.5 m 1
 423.150390625 169.599609375 416.549804688 155.299804688 408.25 152 c 1
 399.950195312 155.299804688 393.450195312 169.599609375 390.950195312 176.5 c 1
 425.549804688 176.5 l 1
412.549804688 144 m 1
 420.75 147.900390625 426.650390625 157.099609375 430.349609375 164.5 c 1
 430.849609375 133.200195312 436.849609375 51.2998046875 485.049804688 51.2998046875 c 0
 499.049804688 51.2998046875 524.549804688 56 546.950195312 66.900390625 c 0
 621.549804688 102.200195312 707.25 171.099609375 707.25 256.900390625 c 0
 707.25 364.700195312 553.049804688 459.299804688 481.650390625 467.799804688 c 1
 487.450195312 470.700195312 494.950195312 475.299804688 499.150390625 481 c 1
 548.049804688 472.5 611.75 440.900390625 662.450195312 399.900390625 c 0
 720.450195312 353 753.650390625 300.900390625 753.650390625 256.900390625 c 0
 753.650390625 233.299804688 741.049804688 204.700195312 717.150390625 174.200195312 c 0
 694.549804688 145.400390625 662.650390625 116.200195312 627.450195312 92.2001953125 c 0
 592.549804688 68.2998046875 556.25 50.7001953125 522.549804688 41.099609375 c 0
 486.450195312 30.7998046875 454.349609375 30.2998046875 429.549804688 39.7001953125 c 1
 410.049804688 62.2998046875 411.849609375 129.299804688 412.549804688 144 c 1
492.349609375 487 m 0
 488.950195312 481.599609375 478.75 476 471.75 473.200195312 c 1
 471.75 509.299804688 l 1
 478.849609375 505.400390625 491.849609375 496.400390625 492.349609375 487 c 0
471.849609375 468.400390625 m 1
 471.849609375 468.400390625 l 1
 471.849609375 468.400390625 l 1
481.650390625 513.900390625 m 1
 572.75 504.900390625 808.950195312 381.5 808.950195312 258.099609375 c 0
 808.950195312 130.099609375 602.049804688 2 392.950195312 -0.7001953125 c 1
 427.849609375 30.7001953125 l 1
 440.450195312 26.2001953125 454.349609375 23.900390625 469.549804688 23.900390625 c 0
 486.450195312 23.900390625 504.950195312 26.7001953125 524.950195312 32.400390625 c 0
 559.549804688 42.2001953125 596.75 60.2998046875 632.450195312 84.7001953125 c 0
 697.25 128.900390625 762.549804688 199.299804688 762.549804688 256.900390625 c 0
 762.549804688 359.900390625 603.450195312 471.799804688 501.049804688 489.799804688 c 1
 499.25 500.5 489.150390625 509 481.650390625 513.900390625 c 1
386.150390625 -0.7001953125 m 1
 386.150390625 -0.7001953125 l 1
 386.150390625 -0.7001953125 l 1
420.75 36.400390625 m 1
 386.150390625 5.400390625 l 1
 386.150390625 164.599609375 l 1
 389.75 157.200195312 395.549804688 148.099609375 403.549804688 144.200195312 c 1
 402.849609375 128.599609375 401.049804688 63.599609375 420.75 36.400390625 c 1
EndSplineSet
EndChar

StartChar: P
Encoding: 80 80 15
Width: 727
Flags: HW
LayerCount: 2
Fore
SplineSet
129.849609375 73.2998046875 m 1
 155.650390625 41.2001953125 206.650390625 26.7998046875 248.650390625 23.599609375 c 1
 218.94921875 2 165.849609375 -7.099609375 125.44921875 -7.099609375 c 0
 85.44921875 -7.099609375 32.75 1.7998046875 2.94921875 23.099609375 c 1
 46.25 25 102.349609375 39.099609375 129.849609375 73.2998046875 c 1
468.349609375 473.900390625 m 0
 563.05078125 462.200195312 640.44921875 438.5 658.150390625 432.900390625 c 1
 650.44921875 392.5 656.44921875 315.299804688 664.05078125 273.200195312 c 1
 605.349609375 233.900390625 535.150390625 231.700195312 486.25 236.799804688 c 0
 430.05078125 242.700195312 389.150390625 259.200195312 381.44921875 264.599609375 c 1
 378.05078125 273.5 356.349609375 332.200195312 353.75 364.200195312 c 1
 390.44921875 354.700195312 l 1
 331.349609375 209.700195312 731.94921875 184.700195312 620.650390625 416.400390625 c 1
 -1.349609375 611.299804688 159.55078125 110.400390625 246.650390625 32.7998046875 c 1
 205.75 36.2998046875 156.94921875 50.7998046875 134.44921875 82.2998046875 c 1
 134.44921875 426 l 1
 232.849609375 487.599609375 370.150390625 486.099609375 468.349609375 473.900390625 c 0
372.150390625 263.599609375 m 1
 334.94921875 240.799804688 l 1
 347.05078125 347.200195312 l 1
 353.05078125 316 367.650390625 275.700195312 372.150390625 263.599609375 c 1
724.05078125 442.599609375 m 1
 677.44921875 379.299804688 660.05078125 346.900390625 718.349609375 259.200195312 c 1
 641.349609375 195.900390625 448.94921875 214 341.05078125 233.900390625 c 1
 377.650390625 256.299804688 l 1
 390.849609375 248.200195312 434.150390625 233.099609375 485.44921875 227.700195312 c 0
 497.25 226.400390625 510.349609375 225.599609375 524.150390625 225.599609375 c 0
 569.94921875 225.599609375 624.44921875 234.700195312 671.650390625 267.200195312 c 1
 669.05078125 270.900390625 l 1
 673.44921875 271.700195312 l 1
 665.55078125 313.700195312 658.94921875 395.900390625 667.75 434.700195312 c 2
 668.650390625 438.700195312 l 1
 664.849609375 440 l 2
 663.94921875 440.200195312 578.05078125 469.200195312 469.650390625 482.700195312 c 0
 405.849609375 490.700195312 346.849609375 491.799804688 294.25 486 c 0
 228.25 478.799804688 172.05078125 460.700195312 127.44921875 432.200195312 c 2
 125.349609375 430.900390625 l 1
 125.349609375 82.2998046875 l 1
 101.05078125 48.099609375 45.75 34.099609375 3.05078125 32.099609375 c 1
 139.94921875 148.5 126.849609375 312.599609375 27.75 434.5 c 1
 187.94921875 510.799804688 473.55078125 564.299804688 724.05078125 442.599609375 c 1
EndSplineSet
EndChar

StartChar: Q
Encoding: 81 81 16
Width: 792
Flags: HW
LayerCount: 2
Fore
SplineSet
653.200195312 226.400390625 m 1
 454 64 l 2
 451 64.7001953125 447.899414062 65.2998046875 444.799804688 66 c 0
 378.799804688 80.2998046875 317.099609375 88.400390625 261.5 90.2998046875 c 0
 253.099609375 90.599609375 244.899414062 90.7001953125 236.799804688 90.7001953125 c 0
 184.200195312 90.7001953125 137.200195312 84.7998046875 96.7998046875 72.900390625 c 1
 117.099609375 127.299804688 129.399414062 199.700195312 129.899414062 268.799804688 c 0
 130.299804688 326.200195312 123 407.599609375 87 475.5 c 1
 160.099609375 458.900390625 272.299804688 444.5 383.5 437.400390625 c 0
 514.099609375 429.099609375 625 432 697.299804688 445.700195312 c 1
 673.399414062 391 657.299804688 315.799804688 653.799804688 242.299804688 c 0
 653.5 237.200195312 653.299804688 231.900390625 653.200195312 226.400390625 c 1
125.700195312 94.599609375 m 1
 241.200195312 118.299804688 350.799804688 108.700195312 451.700195312 86.900390625 c 1
 622.899414062 230.099609375 l 1
 626.399414062 313.299804688 650.899414062 383.599609375 672.799804688 423.299804688 c 1
 483.700195312 388.900390625 243.099609375 427.900390625 116.899414062 450.5 c 1
 175.5 341.5 156.5 176.700195312 125.700195312 94.599609375 c 1
465.099609375 61.5 m 1
 653.099609375 214.599609375 l 1
 653.099609375 208.5 653.099609375 202.200195312 653.299804688 195.700195312 c 1
 487.5 56.099609375 l 1
 480.099609375 58 472.599609375 59.7998046875 465.099609375 61.5 c 1
498.200195312 53.400390625 m 1
 653.599609375 184.299804688 l 1
 655.899414062 126.400390625 666.599609375 56.7998046875 696.099609375 -11.599609375 c 1
 656.799804688 4.900390625 583.899414062 31.5 498.200195312 53.400390625 c 1
533.200195312 66.400390625 m 1
 578.299804688 53.7001953125 621.299804688 39.599609375 661.700195312 26.099609375 c 1
 643.5 66.099609375 632.599609375 106.099609375 627 144.900390625 c 1
 533.200195312 66.400390625 l 1
776.700195312 493 m 1
 669 379 635.700195312 115.799804688 791.799804688 -96.099609375 c 1
 584.5 3.099609375 310.799804688 104.200195312 24.7001953125 17.7001953125 c 1
 101.899414062 119 147.399414062 415.599609375 0.2001953125 518.799804688 c 1
 222.799804688 476.599609375 571.599609375 430.900390625 776.700195312 493 c 1
90.599609375 61.5 m 2
 288.799804688 125.599609375 600 21.2001953125 703.099609375 -24.599609375 c 2
 714 -29.400390625 l 1
 709 -18.599609375 l 2
 629.099609375 154.200195312 665.200195312 356.200195312 709 449.799804688 c 2
 712.799804688 458 l 1
 704 456.099609375 l 2
 549.099609375 423.599609375 223.200195312 451.599609375 79.099609375 486.400390625 c 2
 68.8994140625 488.900390625 l 1
 74.2001953125 479.799804688 l 2
 138.799804688 368.200195312 130.099609375 178.900390625 85 67.400390625 c 2
 81.3994140625 58.5 l 1
 90.599609375 61.5 l 2
EndSplineSet
EndChar

StartChar: R
Encoding: 82 82 17
Width: 780
Flags: HW
LayerCount: 2
Fore
SplineSet
148.849609375 450 m 1
 13.4501953125 480.5 l 1
 125.349609375 477.700195312 l 1
 148.849609375 450 l 1
191.349609375 80.5 m 0
 179.25 41 161.349609375 21.900390625 134.849609375 20.7998046875 c 1
 164.650390625 67.400390625 177.75 179.400390625 174.349609375 283.900390625 c 2
 174.349609375 351.099609375 l 1
 277.849609375 330.400390625 505.75 294.599609375 643.950195312 401.700195312 c 1
 499.150390625 513.900390625 255.849609375 469.200195312 160.349609375 449.5 c 0
 160.150390625 450.200195312 159.849609375 450.900390625 159.349609375 451.5 c 2
 135.549804688 479.599609375 l 1
 280.650390625 511.299804688 404.049804688 501 482.549804688 486.599609375 c 0
 573.349609375 469.900390625 653.349609375 438.400390625 698.150390625 402 c 1
 632.549804688 339.799804688 507.150390625 317.599609375 412.549804688 309.900390625 c 0
 323.25 302.599609375 244.349609375 306.700195312 222.25 308.099609375 c 0
 221.650390625 308.299804688 221.049804688 308.5 220.349609375 308.5 c 0
 219.950195312 308.5 219.450195312 308.400390625 219.049804688 308.299804688 c 0
 217.25 308.400390625 216.25 308.5 216.150390625 308.5 c 0
 216.049804688 308.5 216.049804688 308.5 215.950195312 308.5 c 0
 215.849609375 308.5 215.849609375 308.5 215.75 308.5 c 2
 215.75 308.5 215.650390625 308.5 215.549804688 308.5 c 0
 215.349609375 308.400390625 215.25 308.400390625 215.049804688 308.400390625 c 0
 214.950195312 308.400390625 214.849609375 308.299804688 214.75 308.299804688 c 0
 214.549804688 308.200195312 214.450195312 308.200195312 214.25 308.099609375 c 0
 214.150390625 308.099609375 214.049804688 308 213.950195312 308 c 0
 213.75 307.900390625 213.549804688 307.799804688 213.450195312 307.700195312 c 0
 213.349609375 307.599609375 213.25 307.599609375 213.150390625 307.5 c 0
 213.049804688 307.400390625 212.849609375 307.299804688 212.75 307.200195312 c 0
 212.75 307.099609375 212.650390625 307 212.549804688 306.900390625 c 0
 212.450195312 306.799804688 212.349609375 306.599609375 212.25 306.5 c 0
 212.150390625 306.400390625 212.150390625 306.299804688 212.049804688 306.200195312 c 0
 211.950195312 306.099609375 211.950195312 305.900390625 211.849609375 305.799804688 c 0
 211.75 305.700195312 211.650390625 305.5 211.650390625 305.400390625 c 0
 211.650390625 305.299804688 211.549804688 305.099609375 211.549804688 305 c 0
 211.450195312 304.799804688 211.450195312 304.700195312 211.450195312 304.5 c 0
 211.450195312 304.400390625 211.450195312 304.299804688 211.450195312 304.200195312 c 0
 211.450195312 304.099609375 211.450195312 304.099609375 211.450195312 304 c 0
 211.450195312 303.900390625 211.450195312 303.900390625 211.450195312 303.799804688 c 0
 211.450195312 196.400390625 205.049804688 125.400390625 191.349609375 80.5 c 0
127.049804688 486.700195312 m 1
 9.650390625 489.599609375 l 1
 176.049804688 525.400390625 529.25 595.099609375 770.349609375 401.799804688 c 1
 656.950195312 310.700195312 518.849609375 278 386.950195312 272.5 c 1
 386.950195312 272.5 392.349609375 265.599609375 403.049804688 255.900390625 c 0
 577.25 99.2998046875 615.349609375 89.900390625 667.150390625 126.599609375 c 1
 665.349609375 117.799804688 668.849609375 107.099609375 674.950195312 98.400390625 c 1
 652.950195312 85.7001953125 635.549804688 75.900390625 607.650390625 81.2001953125 c 0
 606.75 81.900390625 605.650390625 82.2998046875 604.450195312 82.2001953125 c 0
 604.150390625 82.099609375 603.849609375 82.099609375 603.549804688 82 c 0
 555.849609375 93.099609375 477.849609375 146.599609375 302.150390625 296.700195312 c 1
 302.950195312 296.700195312 303.75 296.700195312 304.549804688 296.700195312 c 0
 336.049804688 296.700195312 373.650390625 297.700195312 413.150390625 300.900390625 c 0
 475.25 306 530.150390625 315.400390625 576.25 328.900390625 c 0
 634.349609375 345.900390625 678.650390625 369.5 708.150390625 399.099609375 c 2
 708.25 399.200195312 l 1
 708.349609375 399.299804688 l 2
 708.450195312 399.299804688 708.450195312 399.400390625 708.549804688 399.5 c 0
 708.650390625 399.599609375 708.75 399.799804688 708.849609375 399.900390625 c 0
 708.950195312 400 708.950195312 400.200195312 709.049804688 400.299804688 c 0
 709.150390625 400.400390625 709.25 400.599609375 709.25 400.700195312 c 0
 709.25 400.799804688 709.349609375 401 709.349609375 401.099609375 c 0
 709.349609375 401.200195312 709.450195312 401.400390625 709.450195312 401.5 c 0
 709.450195312 401.599609375 709.450195312 401.799804688 709.450195312 401.900390625 c 0
 709.450195312 402 709.450195312 402.200195312 709.450195312 402.299804688 c 0
 709.450195312 402.400390625 709.450195312 402.599609375 709.450195312 402.700195312 c 0
 709.450195312 402.799804688 709.349609375 403 709.349609375 403.099609375 c 0
 709.349609375 403.200195312 709.25 403.400390625 709.25 403.5 c 0
 709.150390625 403.599609375 709.150390625 403.799804688 709.049804688 403.900390625 c 0
 708.950195312 404 708.849609375 404.099609375 708.849609375 404.299804688 c 0
 708.849609375 404.5 708.75 404.599609375 708.650390625 404.700195312 c 0
 708.549804688 404.900390625 708.450195312 405 708.349609375 405.099609375 c 0
 708.25 405.099609375 708.25 405.200195312 708.150390625 405.299804688 c 2
 708.049804688 405.400390625 l 1
 707.950195312 405.5 l 1
 626.549804688 475.400390625 392.450195312 546.799804688 127.049804688 486.700195312 c 1
600.650390625 73 m 1
 605.25 12.5 l 1
 261.75 274.200195312 l 1
 259.450195312 172.5 272.650390625 65.7998046875 301.549804688 20.5 c 1
 275.150390625 21.900390625 257.25 41 245.150390625 80.5 c 0
 231.650390625 124.700195312 225.25 194.099609375 225.049804688 298.700195312 c 1
 236.950195312 298 259.349609375 296.900390625 288.349609375 296.599609375 c 1
 435.75 170.299804688 517.75 108.599609375 571.150390625 83.7998046875 c 0
 582.150390625 78.7001953125 591.849609375 75.2001953125 600.650390625 73 c 1
236.450195312 77.7998046875 m 0
 249.549804688 35.2001953125 269.450195312 14 298.849609375 11.599609375 c 1
 278.450195312 -1.7001953125 244.349609375 -7.400390625 218.150390625 -7.400390625 c 0
 191.950195312 -7.400390625 157.849609375 -1.7998046875 137.450195312 11.599609375 c 1
 166.950195312 13.900390625 186.849609375 35.2001953125 199.849609375 77.7998046875 c 0
 209.150390625 108.299804688 215.150390625 150.400390625 218.150390625 207.099609375 c 1
 221.150390625 150.400390625 227.150390625 108.299804688 236.450195312 77.7998046875 c 0
686.349609375 98.5 m 0
 676.849609375 108.400390625 673.049804688 122.099609375 677.849609375 128.599609375 c 1
 718.150390625 93 l 1
 703.25 83 690.049804688 94.599609375 686.349609375 98.5 c 0
705.950195312 80 m 0
 706.650390625 80 707.25 80 708.150390625 80.099609375 c 1
 614.349609375 11.900390625 l 1
 609.950195312 71.2001953125 l 1
 614.549804688 70.5 618.75 70.2001953125 622.849609375 70.2001953125 c 0
 644.549804688 70.2001953125 660.75 79.5 680.25 90.7001953125 c 2
 681.049804688 91.2001953125 l 1
 687.549804688 84.900390625 696.349609375 80 705.950195312 80 c 0
524.549804688 402 m 1
 524.549804688 402 l 1
 524.549804688 402.099609375 l 1
 524.549804688 402 l 1
522.75 406.5 m 1
 246.150390625 406.5 l 1
 257.450195312 421.200195312 321.450195312 434.099609375 384.450195312 434.799804688 c 0
 447.450195312 434.099609375 511.450195312 421.099609375 522.75 406.5 c 1
246.25 397.5 m 1
 522.849609375 397.5 l 1
 511.549804688 382.799804688 447.549804688 369.900390625 384.549804688 369.200195312 c 0
 321.549804688 369.900390625 257.549804688 382.900390625 246.25 397.5 c 1
EndSplineSet
EndChar

StartChar: S
Encoding: 83 83 18
Width: 777
Flags: HW
LayerCount: 2
Fore
SplineSet
107.950195312 67.2998046875 m 0
 89.6494140625 81.2001953125 79.0498046875 98.900390625 76.4501953125 119.700195312 c 1
 83.1494140625 122.400390625 90.0498046875 130.299804688 92.1494140625 150.299804688 c 1
 147.349609375 -16.2998046875 543.25 46.7001953125 586.75 119 c 1
 586.75 169.299804688 l 1
 586.950195312 169.299804688 587.25 169.299804688 587.549804688 169.400390625 c 2
 682.950195312 187.099609375 l 1
 686.349609375 180.5 688.149414062 173.5 688.25 166.099609375 c 0
 688.450195312 153.700195312 683.950195312 140.5 675.349609375 127.599609375 c 0
 675.149414062 127.400390625 674.950195312 127.200195312 674.849609375 126.900390625 c 0
 667.450195312 116 657.149414062 105.200195312 644.25 95.2998046875 c 0
 614.549804688 72.2998046875 575.549804688 56.2001953125 534.450195312 49.900390625 c 1
 534.25 49.900390625 l 2
 533.450195312 49.7001953125 452.649414062 34.099609375 359.950195312 28.599609375 c 0
 237.950195312 21.2998046875 150.849609375 34.7001953125 107.950195312 67.2998046875 c 0
92.75 398.799804688 m 1
 3.75 410 l 1
 216.649414062 571.099609375 614.049804688 521.299804688 776.950195312 469.700195312 c 1
 762.349609375 361.5 l 1
 759.549804688 373.799804688 753.849609375 381.700195312 745.75 383.900390625 c 1
 747.149414062 405.5 740.049804688 424.5 724.549804688 440.5 c 0
 704.950195312 460.700195312 671.450195312 476.200195312 625.049804688 486.700195312 c 0
 588.349609375 495 543.349609375 500.099609375 491.450195312 502.099609375 c 0
 403.25 505.5 324.149414062 498.200195312 323.349609375 498.099609375 c 2
 323.149414062 498.099609375 l 1
 249.149414062 488.5 188.349609375 471.700195312 147.25 449.5 c 0
 119.149414062 434.400390625 100.75 417.099609375 92.75 398.799804688 c 1
71.849609375 127.799804688 m 0
 64.1494140625 126 51.9501953125 135.700195312 44.849609375 149 c 1
 83.6494140625 163.5 l 1
 83.75 142.599609375 79.4501953125 129.700195312 71.849609375 127.799804688 c 0
765.25 211.400390625 m 1
 765.25 98.900390625 l 1
 685.75 127 l 1
 693.349609375 139.799804688 697.549804688 153.099609375 697.25 166.200195312 c 0
 696.75 187.799804688 684.349609375 207 661.25 221.799804688 c 0
 635.849609375 238.099609375 597.849609375 249.200195312 548.349609375 254.799804688 c 2
 256.950195312 288.5 l 2
 199.950195312 296.5 154.75 311.900390625 127.25 331.5 c 1
 174.950195312 350.799804688 l 2
 176.25 351.400390625 177.149414062 352.5 177.549804688 353.799804688 c 1
 342.349609375 260.5 577.75 338.5 765.25 211.400390625 c 1
711.25 343.799804688 m 1
 722.75 367.900390625 735.349609375 377.099609375 742.849609375 375.400390625 c 0
 750.349609375 373.799804688 755.049804688 361.299804688 755.149414062 342.700195312 c 1
 711.25 343.799804688 l 1
680.649414062 119.299804688 m 1
 762.25 90.5 l 1
 665.549804688 -26.099609375 179.349609375 -11 40.849609375 23.099609375 c 1
 40.849609375 138.5 l 1
 47.75 128.299804688 57.75 119.799804688 67.6494140625 118.599609375 c 1
 70.5498046875 95.099609375 82.349609375 75.400390625 102.649414062 60 c 0
 127.649414062 41 166.25 28.2001953125 217.149414062 22 c 0
 241.349609375 19.099609375 268.549804688 17.599609375 298.25 17.599609375 c 0
 317.950195312 17.599609375 338.75 18.2998046875 360.649414062 19.599609375 c 0
 452.549804688 25 532.75 40.400390625 535.950195312 41 c 0
 598.75 50.7001953125 654.149414062 82.2998046875 680.649414062 119.299804688 c 1
173.25 359.5 m 1
 172.649414062 359.5 172.149414062 359.400390625 171.450195312 359.099609375 c 2
 118.950195312 337.900390625 l 1
 104.75 350.099609375 97.0498046875 363.799804688 97.1494140625 378.099609375 c 0
 97.1494140625 382.200195312 97.849609375 386.400390625 99.25 390.599609375 c 0
 99.9501953125 391.299804688 100.450195312 392.200195312 100.549804688 393.200195312 c 0
 100.549804688 393.5 100.549804688 393.799804688 100.549804688 394.099609375 c 0
 107.450195312 410.900390625 124.950195312 427.299804688 151.450195312 441.599609375 c 0
 191.649414062 463.200195312 251.349609375 479.599609375 324.149414062 489.099609375 c 0
 327.049804688 489.400390625 404.75 496.400390625 491.149414062 493.099609375 c 0
 606.349609375 488.700195312 684.849609375 468.400390625 718.049804688 434.200195312 c 0
 732.049804688 419.900390625 738.149414062 403.400390625 736.649414062 384.099609375 c 1
 728.849609375 382.400390625 720.849609375 375.900390625 713.349609375 365.400390625 c 1
 741.25 524.200195312 170.149414062 505.200195312 173.25 390.700195312 c 2
 173.25 359.5 l 1
585.849609375 178.299804688 m 2
 584.75 178.099609375 583.75 177.400390625 583.149414062 176.5 c 1
 426.450195312 291.599609375 171.950195312 212.200195312 0.0498046875 314.400390625 c 1
 0.0498046875 401.400390625 l 1
 89.849609375 390.099609375 l 1
 88.849609375 386.200195312 88.349609375 382.200195312 88.349609375 378.200195312 c 0
 88.25 361.5 96.6494140625 345.599609375 112.950195312 331.400390625 c 0
 112.950195312 331.200195312 113.049804688 330.900390625 113.149414062 330.700195312 c 0
 113.849609375 329 115.450195312 328 117.149414062 327.900390625 c 0
 121.549804688 324.299804688 126.549804688 320.900390625 132.049804688 317.599609375 c 0
 161.450195312 299.900390625 204.25 286.799804688 255.75 279.599609375 c 2
 547.25 245.900390625 l 2
 595.349609375 240.5 632.049804688 229.900390625 656.349609375 214.299804688 c 0
 665.349609375 208.5 672.450195312 202.200195312 677.649414062 195.299804688 c 1
 585.849609375 178.299804688 l 2
EndSplineSet
EndChar

StartChar: T
Encoding: 84 84 19
Width: 793
Flags: HW
LayerCount: 2
Fore
SplineSet
0.75 513 m 1
 0.75 513 l 1
 0.75 513 l 1
48.9501953125 502 m 1
 9.25 515 l 1
 152.05078125 544.799804688 397.150390625 424 397.150390625 424 c 1
 397.150390625 424 642.25 544.700195312 785.05078125 515 c 1
 745.350585938 502 l 1
 731.850585938 428.200195312 l 1
 707.75 428.200195312 l 1
 664.450195312 490.200195312 l 1
 661.450195312 489.5 l 2
 652.150390625 487.200195312 440.150390625 435.5 397.150390625 382.700195312 c 1
 354.150390625 435.5 142.150390625 487.299804688 132.850585938 489.5 c 2
 129.850585938 490.200195312 l 1
 86.55078125 428.200195312 l 1
 62.4501953125 428.200195312 l 1
 48.9501953125 502 l 1
288.850585938 24 m 1
 413.450195312 159.299804688 367.75 348.700195312 318.05078125 392.400390625 c 1
 102.150390625 511.5 174.150390625 364.900390625 30.150390625 392.400390625 c 1
 2.150390625 507.900390625 l 1
 41.150390625 495.099609375 l 1
 54.9501953125 419.200195312 l 1
 91.25 419.200195312 l 1
 133.75 480 l 1
 146.450195312 476.799804688 197.75 463.700195312 251.450195312 445.799804688 c 0
 330.75 419.299804688 379.55078125 394.400390625 392.650390625 373.599609375 c 1
 392.650390625 56.5 l 1
 357.75 54.7998046875 310.25 34.099609375 288.850585938 24 c 1
397.150390625 47.599609375 m 0
 435.05078125 47.599609375 494.75 19.2998046875 509.25 12.099609375 c 1
 482.150390625 1 442.850585938 -1.5 397.150390625 -1.5 c 0
 351.450195312 -1.5 312.150390625 1 285.05078125 12.2001953125 c 1
 299.55078125 19.2998046875 359.25 47.599609375 397.150390625 47.599609375 c 0
753.25 495.099609375 m 1
 792.25 507.799804688 l 1
 764.150390625 392.299804688 l 1
 620.25 364.799804688 692.25 511.400390625 476.25 392.299804688 c 1
 426.450195312 348.599609375 380.850585938 159.299804688 505.450195312 23.900390625 c 1
 484.05078125 34 436.55078125 54.7001953125 401.650390625 56.400390625 c 1
 401.650390625 373.599609375 l 1
 414.75 394.400390625 463.55078125 419.299804688 542.850585938 445.799804688 c 0
 596.450195312 463.700195312 647.850585938 476.799804688 660.55078125 480 c 1
 703.150390625 419.200195312 l 1
 739.450195312 419.200195312 l 1
 753.25 495.099609375 l 1
EndSplineSet
EndChar

StartChar: U
Encoding: 85 85 20
Width: 799
Flags: HW
LayerCount: 2
Fore
SplineSet
550.5 462.900390625 m 0
 551.5 458 539.400390625 446.799804688 502.298828125 435.799804688 c 0
 501.900390625 435.700195312 501.5 435.5 501.19921875 435.299804688 c 1
 477.69921875 472.5 l 1
 530.298828125 477.099609375 549.5 468.099609375 550.5 462.900390625 c 0
620.400390625 466 m 1
 599.900390625 471.5 577.900390625 473.700195312 554.69921875 472.299804688 c 1
 546.400390625 479.5 527.900390625 483.099609375 501.69921875 482.799804688 c 1
 639.099609375 513.900390625 l 1
 620.400390625 466 l 1
629 463.400390625 m 1
 648.298828125 512.700195312 l 1
 728 465 799.099609375 368.900390625 799.099609375 255.599609375 c 0
 799.099609375 181.900390625 783.099609375 111.099609375 747.5 58.2998046875 c 1
 727.400390625 127.099609375 l 1
 769.400390625 229.099609375 765.400390625 330.599609375 716.599609375 398.900390625 c 0
 694.298828125 430.099609375 664.298828125 451.900390625 629 463.400390625 c 1
95.900390625 203.900390625 m 0
 116.69921875 109.799804688 313.5 54.5 399.5 54.5 c 0
 485.5 54.5 682.400390625 109.799804688 703.099609375 203.900390625 c 0
 706.099609375 223.900390625 708 244.299804688 708.69921875 264.799804688 c 0
 710.5 428.900390625 576.69921875 436.900390625 524.298828125 433.799804688 c 1
 548.19921875 443 560.5 453.400390625 559.5 463.599609375 c 1
 622.19921875 465.900390625 675.19921875 441.299804688 709.19921875 393.700195312 c 0
 756.298828125 327.799804688 759.798828125 229.200195312 718.69921875 129.900390625 c 0
 714.900390625 126.099609375 691.099609375 103.299804688 644.298828125 80.7998046875 c 0
 597 58.099609375 516.099609375 31.2001953125 399.5 32.400390625 c 1
 399.5 27.900390625 l 1
 399.5 32.400390625 l 1
 283.19921875 31.2998046875 202.5 58 155.19921875 80.599609375 c 0
 108.19921875 103.099609375 84.099609375 126.099609375 80.298828125 129.900390625 c 0
 39.19921875 229.299804688 42.69921875 327.799804688 89.798828125 393.700195312 c 0
 123.798828125 441.299804688 176.798828125 466 239.5 463.599609375 c 1
 238.400390625 453.400390625 250.798828125 443 274.69921875 433.799804688 c 1
 222.19921875 437 88.5 428.900390625 90.298828125 264.799804688 c 0
 91 244.299804688 92.900390625 223.900390625 95.900390625 203.900390625 c 0
71.599609375 127.200195312 m 1
 51.5 58.400390625 l 1
 16 111.299804688 -0.099609375 182 -0.099609375 255.700195312 c 0
 -0.099609375 369 71.099609375 465.099609375 150.798828125 512.900390625 c 1
 170 463.5 l 1
 134.599609375 452 104.69921875 430.200195312 82.400390625 399 c 0
 33.599609375 330.700195312 29.599609375 229.200195312 71.599609375 127.200195312 c 1
739.798828125 52.400390625 m 1
 744.099609375 53.7001953125 l 1
 744.099609375 53.7001953125 l 1
 650.099609375 2 399.5 -2.7998046875 399.5 -2.7998046875 c 1
 399.5 -2.7998046875 148.900390625 2 54.900390625 53.7001953125 c 1
 59.19921875 52.400390625 l 1
 78.599609375 119.099609375 l 1
 88.5 110.200195312 111.798828125 91.5 150.69921875 72.7998046875 c 0
 197.900390625 50.2001953125 277.599609375 23.5 391.900390625 23.5 c 0
 394.400390625 23.5 397 23.5 399.5 23.5 c 0
 402.099609375 23.5 404.599609375 23.5 407.099609375 23.5 c 0
 521.400390625 23.5 601.19921875 50.099609375 648.298828125 72.7998046875 c 0
 687.19921875 91.5 710.5 110.200195312 720.400390625 119.099609375 c 1
 739.798828125 52.400390625 l 1
178.599609375 466 m 1
 159.900390625 514 l 1
 297.298828125 482.900390625 l 1
 271.099609375 483.200195312 252.599609375 479.599609375 244.298828125 472.400390625 c 1
 221.099609375 473.700195312 199 471.5 178.599609375 466 c 1
248.400390625 462.900390625 m 0
 249.400390625 468.099609375 268.599609375 477.200195312 321.19921875 472.599609375 c 1
 297.69921875 435.400390625 l 1
 297.400390625 435.599609375 297 435.799804688 296.599609375 435.900390625 c 0
 259.5 446.700195312 247.5 458 248.400390625 462.900390625 c 0
EndSplineSet
EndChar

StartChar: V
Encoding: 86 86 21
Width: 853
Flags: HW
LayerCount: 2
Fore
SplineSet
689.75 456 m 1
 689.75 456 l 1
 689.75 456 l 1
850.44921875 515.099609375 m 1
 841.049804688 505 821.94921875 486.5 797.049804688 473.5 c 1
 791.349609375 479.700195312 774.649414062 489.599609375 726.649414062 490 c 1
 721.849609375 503.400390625 711.44921875 511 703.049804688 515.099609375 c 1
 850.44921875 515.099609375 l 1
398.25 219.299804688 m 1
 398.25 219.299804688 l 1
 398.25 219.299804688 l 1
739.349609375 329.799804688 m 0
 697.44921875 276.200195312 634.25 224 561.549804688 183.099609375 c 0
 560.349609375 182.5 545.149414062 173.900390625 530.049804688 161.299804688 c 1
 463.049804688 219.5 l 1
 636.849609375 225.400390625 834.349609375 456.099609375 752.94921875 456.099609375 c 2
 703.149414062 456.099609375 l 1
 711.549804688 460.200195312 721.849609375 467.700195312 726.75 481.099609375 c 1
 779.75 480.599609375 790.049804688 468.299804688 791.349609375 466.400390625 c 0
 797.349609375 428.900390625 778.94921875 380.400390625 739.349609375 329.799804688 c 0
718.75 485.5 m 1
 713.049804688 467.5 694.049804688 461.700195312 689.75 460.5 c 1
 689.75 510.400390625 l 1
 694.049804688 509.299804688 713.049804688 503.5 718.75 485.5 c 1
101.549804688 456 m 2
 20.1494140625 456 217.649414062 225.299804688 391.44921875 219.400390625 c 1
 324.44921875 161.200195312 l 1
 309.349609375 173.900390625 294.149414062 182.400390625 293.049804688 183 c 0
 220.25 224 157.049804688 276.200195312 115.149414062 329.700195312 c 0
 75.5498046875 380.400390625 57.1494140625 428.799804688 63.1494140625 466.299804688 c 0
 64.44921875 468.200195312 74.75 480.5 127.75 481 c 1
 132.549804688 467.700195312 142.94921875 460.099609375 151.349609375 456 c 1
 101.549804688 456 l 2
800.549804688 465.200195312 m 1
 823.349609375 477 841.349609375 492.799804688 852.25 503.700195312 c 1
 823.94921875 328 590.94921875 62 427.25 -3 c 1
 260.049804688 63.5 20.44921875 339.599609375 0.75 515 c 1
 151.44921875 515 l 1
 143.049804688 510.900390625 132.649414062 503.299804688 127.849609375 489.900390625 c 1
 64.6494140625 489.400390625 55.75 472.5 54.6494140625 469.099609375 c 2
 54.5498046875 468.799804688 l 1
 54.44921875 468.5 l 1
 47.5498046875 428.400390625 66.6494140625 377.200195312 108.049804688 324.200195312 c 0
 150.649414062 269.700195312 214.75 216.799804688 288.649414062 175.099609375 c 0
 289.149414062 174.900390625 337.049804688 148.099609375 345.349609375 120.5 c 2
 345.549804688 120 l 2
 359.25 87.599609375 390.75 66.7001953125 425.94921875 66.7001953125 c 1
 425.94921875 75.7001953125 l 1
 394.549804688 75.7001953125 366.25 94.400390625 353.94921875 123.299804688 c 0
 350.349609375 134.799804688 341.349609375 145.799804688 331.349609375 155.200195312 c 1
 398.25 213.299804688 l 1
 398.25 129 l 1
 456.25 129 l 1
 456.25 213.200195312 l 1
 523.149414062 155.099609375 l 1
 513.049804688 145.700195312 504.049804688 134.700195312 500.549804688 123.200195312 c 0
 488.25 94.2998046875 460.049804688 75.599609375 428.549804688 75.599609375 c 1
 428.549804688 66.599609375 l 1
 463.649414062 66.599609375 495.25 87.5 508.94921875 119.900390625 c 2
 509.149414062 120.400390625 l 2
 517.44921875 148 565.349609375 174.799804688 565.849609375 175.099609375 c 0
 639.75 216.799804688 703.849609375 269.700195312 746.44921875 324.200195312 c 0
 786.649414062 375.700195312 805.849609375 425.599609375 800.549804688 465.200195312 c 1
164.75 456 m 1
 164.75 456 l 1
 164.75 456 l 1
135.75 485.5 m 1
 141.44921875 503.5 160.44921875 509.400390625 164.75 510.5 c 1
 164.75 460.599609375 l 1
 160.44921875 461.599609375 141.44921875 467.400390625 135.75 485.5 c 1
EndSplineSet
EndChar

StartChar: W
Encoding: 87 87 22
Width: 789
Flags: HW
LayerCount: 2
Fore
SplineSet
258.768554688 110.5 m 1
 219.268554688 128.900390625 l 1
 274.568359375 174.200195312 356.268554688 291.799804688 394.568359375 363.5 c 1
 432.96875 291.900390625 514.568359375 174.299804688 569.868164062 128.900390625 c 1
 530.368164062 110.5 l 1
 490.568359375 149 462.568359375 199.900390625 441.96875 237.299804688 c 0
 422.268554688 273.099609375 409.168945312 296.799804688 394.568359375 296.799804688 c 0
 379.868164062 296.799804688 366.868164062 273.099609375 347.168945312 237.299804688 c 0
 326.568359375 199.900390625 298.568359375 149 258.768554688 110.5 c 1
535.268554688 102.900390625 m 1
 573.768554688 120.700195312 l 1
 573.768554688 77.2998046875 l 1
 621.768554688 77.2998046875 l 1
 621.768554688 136.400390625 l 1
 657.168945312 111.200195312 l 1
 650.268554688 88.5 624.268554688 56.599609375 594.868164062 53.7998046875 c 0
 571.768554688 51.7001953125 551.168945312 68.599609375 535.268554688 102.900390625 c 1
746.168945312 470.099609375 m 1
 746.168945312 457.099609375 745.668945312 406.099609375 736.668945312 343.5 c 0
 727.46875 279.799804688 707.46875 191.200195312 664.168945312 124.200195312 c 2
 660.96875 119.5 l 1
 625.168945312 145 l 1
 694.568359375 249.5 793.368164062 522.599609375 601.46875 406.299804688 c 1
 604.068359375 442.299804688 l 1
 618.068359375 449.200195312 695.168945312 485.299804688 746.168945312 470.099609375 c 1
592.568359375 409.299804688 m 1
 563.46875 439.700195312 l 1
 594.868164062 440.5 l 1
 592.568359375 409.299804688 l 1
194.168945312 53.7998046875 m 0
 164.768554688 56.599609375 138.768554688 88.5 131.868164062 111.299804688 c 1
 167.268554688 136.5 l 1
 167.268554688 77.400390625 l 1
 215.268554688 77.400390625 l 1
 215.268554688 120.799804688 l 1
 253.768554688 102.900390625 l 1
 237.868164062 68.599609375 217.268554688 51.599609375 194.168945312 53.7998046875 c 0
194.068359375 440.5 m 1
 225.46875 439.700195312 l 1
 196.368164062 409.299804688 l 1
 194.068359375 440.5 l 1
782.768554688 514.799804688 m 1
 812.368164062 342.099609375 730.368164062 66 597.668945312 -3 c 1
 531.568359375 24.400390625 432.46875 154.099609375 394.46875 235.599609375 c 1
 356.46875 154.099609375 257.368164062 24.400390625 191.268554688 -3 c 1
 58.568359375 66 -23.431640625 342.099609375 6.2685546875 514.799804688 c 1
 79.1689453125 518.099609375 165.268554688 500.799804688 224.668945312 448.700195312 c 1
 190.46875 449.599609375 l 1
 180.068359375 455 93.96875 497.299804688 36.96875 477.599609375 c 2
 33.96875 476.599609375 l 1
 33.8681640625 473.5 l 2
 33.8681640625 472.900390625 32.96875 415.5 43.46875 342.5 c 0
 53.068359375 275.299804688 74.6689453125 180.900390625 122.46875 111.700195312 c 1
 128.868164062 85.7998046875 158.46875 48.2998046875 193.368164062 45 c 0
 194.868164062 44.900390625 196.46875 44.7998046875 198.168945312 44.7998046875 c 0
 217.368164062 44.7998046875 242.768554688 55.7001953125 263.46875 102.599609375 c 1
 305.068359375 142.299804688 333.96875 194.700195312 355.068359375 233.099609375 c 0
 370.568359375 261.299804688 385.268554688 287.900390625 394.568359375 287.900390625 c 0
 403.868164062 287.900390625 418.568359375 261.299804688 434.068359375 233.099609375 c 0
 455.168945312 194.700195312 484.068359375 142.299804688 525.668945312 102.599609375 c 1
 546.368164062 55.7001953125 571.768554688 44.7998046875 590.96875 44.7998046875 c 0
 592.568359375 44.7998046875 594.168945312 44.900390625 595.768554688 45 c 0
 630.668945312 48.2998046875 660.268554688 85.7001953125 666.668945312 111.700195312 c 1
 714.46875 180.900390625 735.96875 275.299804688 745.668945312 342.5 c 0
 756.168945312 415.400390625 755.268554688 472.900390625 755.268554688 473.5 c 2
 755.168945312 476.599609375 l 1
 752.168945312 477.599609375 l 2
 695.168945312 497.200195312 609.068359375 454.900390625 598.668945312 449.599609375 c 1
 564.46875 448.700195312 l 1
 623.768554688 500.799804688 709.868164062 518.099609375 782.768554688 514.799804688 c 1
42.7685546875 470.099609375 m 1
 93.7685546875 485.200195312 170.96875 449.200195312 184.96875 442.400390625 c 1
 187.568359375 406.400390625 l 1
 -4.3310546875 522.700195312 94.568359375 249.599609375 163.868164062 145.099609375 c 1
 128.068359375 119.599609375 l 1
 124.568359375 124.799804688 l 2
 81.46875 191.700195312 61.568359375 280 52.3681640625 343.599609375 c 0
 43.3681640625 406.099609375 42.7685546875 457.099609375 42.7685546875 470.099609375 c 1
EndSplineSet
EndChar

StartChar: X
Encoding: 88 88 23
Width: 590
Flags: HW
LayerCount: 2
Fore
SplineSet
98.2001953125 448.099609375 m 1
 104.900390625 512.900390625 l 1
 108 507.299804688 111.799804688 501 116.299804688 494.400390625 c 1
 127.600585938 501.299804688 139.900390625 505.599609375 153.200195312 505.099609375 c 1
 186.400390625 477.299804688 l 1
 169.900390625 477.900390625 155.200195312 470.799804688 142 460.599609375 c 1
 186.200195312 407.400390625 253.100585938 347.299804688 295 347.299804688 c 0
 336.799804688 347.299804688 403.799804688 407.400390625 448 460.599609375 c 1
 434.799804688 470.799804688 420.200195312 477.900390625 403.600585938 477.299804688 c 1
 436.700195312 505.099609375 l 1
 450 505.599609375 462.299804688 501.299804688 473.600585938 494.400390625 c 1
 478.100585938 501.099609375 482 507.299804688 485 512.900390625 c 1
 491.799804688 448.099609375 l 1
 295 283 l 1
 98.2001953125 448.099609375 l 1
101.200195312 520.400390625 m 1
 101.200195312 520.400390625 l 1
 101.200195312 520.400390625 l 1
488.700195312 520.400390625 m 1
 488.700195312 520.400390625 l 1
 488.700195312 520.400390625 l 1
101.200195312 -8.2001953125 m 1
 101.200195312 -8.2001953125 l 1
 101.200195312 -8.2001953125 l 1
491.700195312 64.099609375 m 1
 485 -0.599609375 l 1
 481.900390625 5 478.100585938 11.2998046875 473.600585938 17.900390625 c 1
 462.299804688 11 450 6.7001953125 436.700195312 7.2001953125 c 1
 403.600585938 35 l 1
 420.100585938 34.2998046875 434.799804688 41.5 448 51.7001953125 c 1
 403.900390625 104.700195312 336.700195312 164.599609375 292.600585938 164.599609375 c 0
 252.200195312 164.599609375 185.799804688 104.799804688 141.900390625 51.7001953125 c 1
 155.100585938 41.400390625 169.799804688 34.2998046875 186.400390625 34.900390625 c 1
 153.299804688 7.099609375 l 1
 140 6.599609375 127.700195312 10.900390625 116.400390625 17.7998046875 c 1
 111.900390625 11.099609375 108 4.900390625 105 -0.7001953125 c 1
 98.2001953125 64.099609375 l 1
 295 229.299804688 l 1
 491.700195312 64.099609375 l 1
9.2001953125 398.700195312 m 1
 71.7001953125 416.599609375 l 1
 262.900390625 256.099609375 l 1
 71.7001953125 95.599609375 l 1
 9.2001953125 113.5 l 1
 15.400390625 115.5 22.1005859375 118.099609375 29.2998046875 121.200195312 c 1
 24.400390625 133.599609375 22.2998046875 146.599609375 25.1005859375 159.700195312 c 1
 58.2001953125 187.5 l 1
 54.6005859375 171.099609375 59.2998046875 155.200195312 67.2001953125 140.299804688 c 1
 115.400390625 167.299804688 174.5 209 233.400390625 256.099609375 c 1
 174.5 303.200195312 115.299804688 345 67.2001953125 371.900390625 c 1
 59.2998046875 357 54.7001953125 341.099609375 58.2001953125 324.700195312 c 1
 25.1005859375 352.5 l 1
 22.2001953125 365.599609375 24.400390625 378.599609375 29.2998046875 391 c 1
 22.2001953125 394.099609375 15.400390625 396.700195312 9.2001953125 398.700195312 c 1
516.100585938 85.7001953125 m 1
 589.600585938 106.799804688 l 1
 593.100585938 80.2001953125 578.700195312 50.099609375 562.900390625 31.2998046875 c 0
 547.100585938 12.5 520 -7 493.200195312 -8.099609375 c 1
 501.200195312 68 l 1
 295 241 l 1
 88.7001953125 68 l 1
 96.7001953125 -8.099609375 l 1
 70 -6.900390625 42.7998046875 12.5 27 31.2998046875 c 0
 11.2001953125 50.099609375 -3.2001953125 80.2998046875 0.2998046875 106.799804688 c 1
 73.900390625 85.7001953125 l 1
 277 256.200195312 l 1
 73.900390625 426.599609375 l 1
 0.2998046875 405.5 l 1
 -3.2001953125 432.099609375 11.2001953125 462.200195312 27 481 c 0
 42.7998046875 499.799804688 69.900390625 519.299804688 96.7001953125 520.400390625 c 1
 88.7001953125 444.299804688 l 1
 295 271.200195312 l 1
 501.299804688 444.200195312 l 1
 493.299804688 520.299804688 l 1
 520 519.099609375 547.200195312 499.700195312 563 480.900390625 c 0
 578.799804688 462.099609375 593.200195312 431.900390625 589.700195312 405.400390625 c 1
 516.100585938 426.5 l 1
 313 256.099609375 l 1
 516.100585938 85.7001953125 l 1
580.700195312 113.5 m 1
 518.200195312 95.7001953125 l 1
 327 256.099609375 l 1
 518.200195312 416.599609375 l 1
 580.700195312 398.700195312 l 1
 574.5 396.700195312 567.799804688 394.099609375 560.600585938 391 c 1
 565.5 378.599609375 567.600585938 365.599609375 564.799804688 352.5 c 1
 531.700195312 324.700195312 l 1
 535.299804688 341.099609375 530.600585938 357 522.700195312 371.900390625 c 1
 474.5 344.900390625 415.400390625 303.200195312 356.5 256.099609375 c 1
 415.400390625 209 474.600585938 167.200195312 522.700195312 140.299804688 c 1
 530.600585938 155.200195312 535.200195312 171.099609375 531.700195312 187.5 c 1
 564.799804688 159.700195312 l 1
 567.700195312 146.599609375 565.5 133.599609375 560.600585938 121.200195312 c 1
 567.700195312 118.099609375 574.5 115.5 580.700195312 113.5 c 1
488.700195312 -8.2001953125 m 1
 488.700195312 -8.2001953125 l 1
 488.700195312 -8.2001953125 l 1
EndSplineSet
EndChar

StartChar: Y
Encoding: 89 89 24
Width: 704
Flags: HW
LayerCount: 2
Fore
SplineSet
74.75 469.900390625 m 0
 78.349609375 472.799804688 84.849609375 480.400390625 79.94921875 494.700195312 c 1
 217.349609375 372.900390625 322.44921875 248.200195312 415.94921875 256.700195312 c 0
 507.150390625 265.099609375 602.650390625 383.099609375 660.75 500.200195312 c 1
 660.05078125 489.700195312 662.55078125 481 668.05078125 475.700195312 c 0
 668.75 475 669.55078125 474.299804688 670.349609375 473.799804688 c 0
 638.94921875 367 559.25 254.299804688 453.349609375 167.799804688 c 1
 358.650390625 209.299804688 164.25 384.099609375 90.849609375 450.200195312 c 0
 83.05078125 457.299804688 76.55078125 463.099609375 71.349609375 467.700195312 c 1
 72.55078125 468.400390625 73.75 469.099609375 74.75 469.900390625 c 0
698.849609375 516.299804688 m 1
 696.349609375 493.700195312 688.150390625 483 681.849609375 480.599609375 c 0
 679.05078125 479.599609375 676.44921875 480.200195312 674.349609375 482.200195312 c 0
 670.05078125 486.299804688 667.150390625 497.299804688 672.75 514.900390625 c 0
 672.94921875 515.400390625 672.94921875 515.799804688 672.94921875 516.299804688 c 1
 698.849609375 516.299804688 l 1
84.849609375 443.599609375 m 0
 164.349609375 372 348.25 206.5 445.44921875 161.599609375 c 1
 340.94921875 78.400390625 212.05078125 20.900390625 79.150390625 18.7001953125 c 0
 78.849609375 20.400390625 78.25 22 77.349609375 23.5 c 0
 74.94921875 27.7998046875 69.849609375 32.599609375 59.25 35.2001953125 c 1
 194.75 55.2998046875 341.349609375 86.599609375 338.75 161.900390625 c 0
 336.150390625 237.299804688 184.349609375 317.200195312 20.349609375 473.299804688 c 1
 26.55078125 470.200195312 32.849609375 467.799804688 39.25 466.200195312 c 0
 44.75 464.799804688 50.05078125 464.099609375 54.849609375 464.099609375 c 0
 57.55078125 464.099609375 60.05078125 464.299804688 62.349609375 464.700195312 c 1
 61.849609375 464.200195312 l 1
 67.44921875 459.200195312 75.150390625 452.299804688 84.849609375 443.599609375 c 0
68.849609375 9.400390625 m 0
 65.150390625 3 55.150390625 -3.400390625 41.44921875 -3.099609375 c 0
 41.349609375 -3.099609375 41.349609375 -3.099609375 41.349609375 -3.099609375 c 1
 41.349609375 28.099609375 l 1
 41.349609375 28.099609375 l 1
 62.150390625 28.099609375 67.94921875 21.7001953125 69.55078125 19 c 0
 71.55078125 15.5 70.25 11.7998046875 68.849609375 9.400390625 c 0
684.849609375 472.200195312 m 0
 689.849609375 474 694.150390625 477.900390625 697.849609375 483.299804688 c 1
 661.05078125 310.299804688 487.150390625 -13.099609375 61.44921875 -8.2001953125 c 1
 68.05078125 -5.2998046875 73.349609375 -0.7998046875 76.650390625 4.7001953125 c 0
 77.55078125 6.2998046875 78.25 8 78.75 9.599609375 c 0
 206.44921875 11.599609375 341.25 65.5 458.75 161.5 c 0
 512.150390625 205.099609375 560.55078125 256.799804688 598.75 310.900390625 c 0
 635.849609375 363.5 663.55078125 418.799804688 678.94921875 471.099609375 c 1
 679.05078125 471.099609375 l 2
 680.94921875 471.099609375 682.94921875 471.5 684.849609375 472.200195312 c 0
69.150390625 476.900390625 m 0
 59.55078125 469.299804688 29.849609375 472.599609375 5.150390625 494.299804688 c 1
 66.75 501.799804688 l 2
 66.849609375 501.200195312 67.05078125 500.599609375 67.349609375 500 c 0
 71.150390625 493.900390625 76.349609375 482.700195312 69.150390625 476.900390625 c 0
EndSplineSet
EndChar

StartChar: Z
Encoding: 90 90 25
Width: 730
Flags: HW
LayerCount: 2
Fore
SplineSet
679 66.5 m 1
 569.201171875 26.2001953125 426.599609375 30.2998046875 326 40.900390625 c 0
 236.599609375 50.2998046875 163.701171875 66.2998046875 139.099609375 72.099609375 c 1
 605.400390625 436.799804688 l 1
 719.701171875 452.599609375 l 1
 479.5 314 332.400390625 231.799804688 227.599609375 94.2001953125 c 1
 340.900390625 65.2001953125 633.900390625 -0.2001953125 686.599609375 160.799804688 c 1
 687.900390625 157.099609375 690.099609375 153.700195312 693 150.700195312 c 0
 694.80078125 148.799804688 696.80078125 147.400390625 698.900390625 146.200195312 c 2
 679 66.5 l 1
33.099609375 336.5 m 1
 7.701171875 341.299804688 l 1
 12.30078125 361.400390625 20.599609375 374.900390625 26 379.200195312 c 0
 26.5 378.799804688 27.099609375 378.599609375 27.701171875 378.5 c 0
 28.900390625 378.299804688 30.099609375 378.599609375 31 379.200195312 c 1
 33.30078125 375.599609375 36.099609375 364.299804688 33.099609375 336.5 c 1
229.900390625 478.900390625 m 0
 319.400390625 485.599609375 454.599609375 484.099609375 594.099609375 439.400390625 c 1
 127.099609375 74.2001953125 l 1
 9.900390625 57.599609375 l 1
 250.099609375 196.299804688 397.201171875 278.400390625 502 416 c 1
 388.80078125 445 96.5 510.200195312 43.201171875 350.099609375 c 1
 44.201171875 371.599609375 41.201171875 384.5 34.099609375 388.400390625 c 1
 37.400390625 403.200195312 47 440.099609375 64.80078125 452.599609375 c 0
 72.099609375 454.599609375 136.30078125 471.900390625 229.900390625 478.900390625 c 0
711.80078125 152.900390625 m 0
 708 151.700195312 703.201171875 153.299804688 699.30078125 157.200195312 c 0
 695.80078125 160.799804688 692.701171875 167 694.701171875 173.599609375 c 0
 694.80078125 173.799804688 694.80078125 173.900390625 694.80078125 174.099609375 c 1
 721.900390625 169 l 1
 720.201171875 160.099609375 716.599609375 154.400390625 711.80078125 152.900390625 c 0
714.5 144.299804688 m 0
 717.900390625 145.299804688 721.900390625 147.599609375 725.400390625 152.799804688 c 1
 716.400390625 26 l 1
 489.201171875 -40.7998046875 113 12.2998046875 8.5 48.400390625 c 1
 128.80078125 65.400390625 l 2
 138 63.099609375 220.201171875 43 324.900390625 32 c 0
 371.201171875 27.099609375 415.400390625 24.7001953125 456.900390625 24.7001953125 c 0
 473.701171875 24.7001953125 490 25.099609375 505.900390625 25.900390625 c 0
 574.900390625 29.400390625 635 40.5 684.400390625 59 c 2
 686.599609375 59.7998046875 l 1
 707.599609375 143.599609375 l 2
 708.201171875 143.5 708.701171875 143.5 709.30078125 143.5 c 0
 711.099609375 143.5 712.80078125 143.799804688 714.5 144.299804688 c 0
25 388.900390625 m 1
 17.201171875 386 9.900390625 375.099609375 4.599609375 361.799804688 c 1
 13.30078125 484.299804688 l 1
 240.400390625 551.099609375 616.5 498 721.099609375 461.900390625 c 1
 604 445.700195312 l 1
 540.80078125 466.599609375 473 480.400390625 402.599609375 486.799804688 c 0
 346 491.900390625 287.599609375 492.299804688 229 487.900390625 c 0
 129.201171875 480.400390625 62.400390625 461.299804688 61.701171875 461.099609375 c 2
 61 460.900390625 l 1
 60.400390625 460.5 l 2
 38.701171875 446.099609375 28.099609375 403.799804688 25 388.900390625 c 1
EndSplineSet
EndChar

StartChar: a
Encoding: 97 97 26
Width: 516
Flags: HW
LayerCount: 2
Fore
SplineSet
103 162.799804688 m 0
 58.30078125 116.5 26 58.5 11.701171875 -0.7998046875 c 1
 -0.099609375 -0.7998046875 l 1
 11.701171875 93.2998046875 127.599609375 273.400390625 258 320.5 c 1
 388.30078125 273.5 504.30078125 93.2998046875 516.099609375 -0.7998046875 c 1
 509 -0.7998046875 l 1
 494.5 55.900390625 462.201171875 112.799804688 417.80078125 159.799804688 c 0
 371.5 208.799804688 315.900390625 242.799804688 261.30078125 255.5 c 2
 260.30078125 255.700195312 l 1
 259.30078125 255.5 l 2
 203.599609375 242.5 148.099609375 209.599609375 103 162.799804688 c 0
260.30078125 246.5 m 1
 365.5 221.5 469.30078125 113.799804688 499.599609375 -0.7998046875 c 1
 464.400390625 -0.7998046875 l 1
 427.900390625 140.700195312 309.400390625 192.400390625 257.900390625 192.400390625 c 0
 206.400390625 192.400390625 87.900390625 140.700195312 51.400390625 -0.7998046875 c 1
 20.80078125 -0.7998046875 l 1
 50.30078125 117.099609375 149.900390625 220.299804688 260.30078125 246.5 c 1
EndSplineSet
EndChar

StartChar: b
Encoding: 98 98 27
Width: 465
Flags: HW
LayerCount: 2
Fore
SplineSet
294.298828125 193.900390625 m 0
 249.5 181.599609375 179.19921875 167.799804688 96.099609375 170.799804688 c 1
 98.400390625 213.400390625 106.5 250.700195312 118 270.5 c 1
 140.099609375 270.099609375 299.400390625 265.299804688 366.798828125 219.099609375 c 1
 355.400390625 214.099609375 330 203.700195312 294.298828125 193.900390625 c 0
147.599609375 251.5 m 1
 129.900390625 233.799804688 137.19921875 198.400390625 163.798828125 185.099609375 c 1
 163.798828125 185.099609375 241.69921875 195 282.19921875 218.099609375 c 1
 259.798828125 248.400390625 147.599609375 251.5 147.599609375 251.5 c 1
465.099609375 216.299804688 m 1
 418.099609375 182 313.69921875 147.700195312 209.298828125 147.700195312 c 1
 313.69921875 147.700195312 418.099609375 113.5 465.099609375 79.2001953125 c 1
 371.900390625 20.7001953125 128.900390625 -24.900390625 -0.099609375 20.7001953125 c 1
 76.5 70.7001953125 68.900390625 220 -0.099609375 274.799804688 c 1
 128.900390625 320.400390625 371.900390625 274.799804688 465.099609375 216.299804688 c 1
296.900390625 109.900390625 m 0
 251.5 123.5 179.900390625 138.900390625 95.400390625 135.599609375 c 1
 95.400390625 139.099609375 95.298828125 142.700195312 95.298828125 146.299804688 c 0
 95.298828125 151.5 95.400390625 156.700195312 95.599609375 161.799804688 c 1
 180 158.599609375 251.5 172.700195312 296.900390625 185.200195312 c 0
 347.099609375 199 376.400390625 213.5 377.599609375 214.099609375 c 2
 383.900390625 217.299804688 l 1
 378.400390625 221.700195312 l 2
 348.900390625 245.200195312 295.599609375 262 220 271.799804688 c 0
 164 279 116 279.5 115.5 279.5 c 2
 113 279.5 l 1
 111.69921875 277.400390625 l 2
 96 252.700195312 88.798828125 207.299804688 86.900390625 167 c 0
 86.900390625 166.900390625 86.900390625 166.799804688 86.900390625 166.700195312 c 0
 86.900390625 166.599609375 86.900390625 166.5 86.900390625 166.400390625 c 0
 86.599609375 159.5 86.400390625 152.700195312 86.400390625 146.299804688 c 1
 86.400390625 146.299804688 l 1
 86.400390625 146.299804688 l 1
 86.599609375 90.400390625 95.099609375 46.2998046875 110.400390625 22.2001953125 c 2
 111.798828125 20.099609375 l 1
 114.298828125 20.2001953125 l 2
 114.798828125 20.2001953125 160.900390625 21.2998046875 216.099609375 28 c 0
 290.400390625 37 344.900390625 51.400390625 377.900390625 70.7001953125 c 2
 384.798828125 74.7001953125 l 1
 377.69921875 78.5 l 2
 376.5 79.2001953125 347.099609375 94.900390625 296.900390625 109.900390625 c 0
95.798828125 126.799804688 m 1
 178.900390625 129.900390625 249.298828125 114.799804688 294 101.5 c 0
 328.900390625 91.099609375 354 80.099609375 365.798828125 74.5 c 1
 291.099609375 36.400390625 138.298828125 30.099609375 116.599609375 29.400390625 c 1
 104.798828125 49.599609375 97.599609375 83.599609375 95.798828125 126.799804688 c 1
163.798828125 110.400390625 m 1
 137.19921875 97.099609375 129.900390625 61.7001953125 147.599609375 44 c 1
 147.599609375 44 259.798828125 47.099609375 282.19921875 77.400390625 c 1
 241.69921875 100.5 163.798828125 110.400390625 163.798828125 110.400390625 c 1
EndSplineSet
EndChar

StartChar: c
Encoding: 99 99 28
Width: 464
Flags: HW
LayerCount: 2
Fore
SplineSet
45.9501953125 153.900390625 m 0
 45.9501953125 123.400390625 40.9501953125 86.599609375 19.650390625 68.5 c 1
 19.650390625 239.200195312 l 1
 40.9501953125 221.200195312 45.9501953125 184.400390625 45.9501953125 153.900390625 c 0
443.75 249.099609375 m 1
 304.850585938 288.200195312 190.55078125 281.099609375 156.350585938 216.700195312 c 0
 120.150390625 148.400390625 156.350585938 91.099609375 156.350585938 91.099609375 c 1
 190.55078125 26.7001953125 304.75 19.7001953125 443.75 58.7001953125 c 1
 409.150390625 43.5 352.75 25.400390625 293.950195312 20.2001953125 c 0
 230.55078125 14.7001953125 145.450195312 22.7998046875 99.8505859375 93.5 c 0
 72.05078125 140.200195312 97.8505859375 208.900390625 100.05078125 214.599609375 c 0
 145.650390625 285 230.650390625 293.200195312 293.950195312 287.599609375 c 0
 352.75 282.400390625 409.150390625 264.299804688 443.75 249.099609375 c 1
294.75 11.2998046875 m 0
 360.150390625 17 422.75 38.599609375 456.75 54.599609375 c 1
 334.55078125 -47.900390625 37.150390625 11.2998046875 7.25 51.400390625 c 1
 38.3505859375 61.599609375 54.8505859375 97 54.8505859375 153.799804688 c 0
 54.8505859375 210.599609375 38.4501953125 246 7.25 256.200195312 c 1
 37.25 296.299804688 334.650390625 355.5 456.75 253 c 1
 422.75 269.200195312 360.05078125 290.700195312 294.75 296.5 c 0
 228.850585938 302.299804688 140.25 293.599609375 92.25 219.099609375 c 2
 92.05078125 218.799804688 l 1
 91.8505859375 218.400390625 l 2
 90.55078125 215.200195312 60.8505859375 141.200195312 92.150390625 88.7998046875 c 1
 92.25 88.7001953125 l 1
 132.75 25.7998046875 202.05078125 9.7998046875 262.350585938 9.7998046875 c 0
 273.55078125 9.7998046875 284.450195312 10.400390625 294.75 11.2998046875 c 0
EndSplineSet
EndChar

StartChar: d
Encoding: 100 100 29
Width: 482
Flags: HW
LayerCount: 2
Fore
SplineSet
180.299804688 258.299804688 m 0
 196 258.299804688 213.5 256.099609375 232.5 251.599609375 c 0
 289.099609375 238.400390625 360 205.299804688 443.200195312 153.299804688 c 1
 360 101.299804688 289.099609375 68.2001953125 232.5 55 c 0
 186.400390625 44.2001953125 149.700195312 46.5 123.5 61.7998046875 c 0
 75.7998046875 89.599609375 78.2998046875 152.5 78.2998046875 153.099609375 c 2
 78.2998046875 153.299804688 l 1
 78.2998046875 153.5 l 2
 78.2998046875 154.099609375 75.7998046875 217 123.5 244.799804688 c 0
 138.900390625 253.799804688 157.900390625 258.299804688 180.299804688 258.299804688 c 0
107.799804688 153.900390625 m 0
 107.799804688 6.7998046875 416.799804688 153.900390625 416.799804688 153.900390625 c 1
 416.799804688 153.900390625 107.799804688 301 107.799804688 153.900390625 c 0
0.099609375 293.5 m 1
 144.700195312 320.799804688 394.799804688 283.900390625 481.900390625 153.299804688 c 1
 394.799804688 22.7001953125 144.799804688 -14.2001953125 0.099609375 13.099609375 c 1
 0.099609375 14.2998046875 l 1
 55.2998046875 93.7001953125 59.400390625 220.299804688 0.099609375 293.5 c 1
454.099609375 149.5 m 2
 460.099609375 153.299804688 l 1
 454.099609375 157.099609375 l 2
 367.400390625 211.900390625 293.5 246.599609375 234.5 260.400390625 c 0
 186.099609375 271.799804688 147.200195312 269.099609375 118.900390625 252.599609375 c 0
 97.2001953125 239.900390625 81.7001953125 218.599609375 74.2001953125 191.099609375 c 0
 68.900390625 171.5 69.2998046875 155.5 69.400390625 153.299804688 c 0
 69.2998046875 151.099609375 68.900390625 135.099609375 74.2001953125 115.5 c 0
 81.7001953125 88 97.2001953125 66.7001953125 118.900390625 54 c 0
 135.700195312 44.2001953125 156.200195312 39.2998046875 180.299804688 39.2998046875 c 0
 196.799804688 39.2998046875 214.799804688 41.599609375 234.5 46.2001953125 c 0
 293.5 60 367.299804688 94.7998046875 454.099609375 149.5 c 2
EndSplineSet
EndChar

StartChar: e
Encoding: 101 101 30
Width: 464
Flags: HW
LayerCount: 2
Fore
SplineSet
54.900390625 157.799804688 m 1
 54 212 37.599609375 245.799804688 7.19921875 255.5 c 1
 37.099609375 295.599609375 334.599609375 354.799804688 456.69921875 252.299804688 c 1
 422.69921875 268.5 360 290 294.69921875 295.799804688 c 0
 228.80078125 301.599609375 140.19921875 292.900390625 92.19921875 218.400390625 c 2
 90 215.099609375 l 1
 93.099609375 212.599609375 l 2
 119.30078125 190.700195312 157.69921875 176.599609375 191 176.599609375 c 0
 193.400390625 176.599609375 195.30078125 178.400390625 195.5 180.700195312 c 1
 249.599609375 175.5 304.30078125 180.400390625 337.69921875 157.799804688 c 1
 54.900390625 157.799804688 l 1
443.69921875 248.5 m 1
 304.80078125 287.599609375 190.5 280.5 156.400390625 216 c 1
 162.69921875 204 172 193.900390625 183.599609375 185.799804688 c 1
 155.5 187.700195312 124.599609375 199.400390625 102 217 c 1
 148.099609375 284.700195312 231.5 292.5 293.900390625 287 c 0
 352.69921875 281.799804688 409.099609375 263.700195312 443.69921875 248.5 c 1
183.599609375 120.799804688 m 1
 172 112.700195312 162.80078125 102.599609375 156.30078125 90.5 c 1
 190.5 26.099609375 304.69921875 19.099609375 443.69921875 58.099609375 c 1
 409.099609375 42.900390625 352.69921875 24.7998046875 293.900390625 19.599609375 c 0
 231.5 14.099609375 148.099609375 22 102 89.599609375 c 1
 124.599609375 107.200195312 155.5 119 183.599609375 120.799804688 c 1
294.69921875 10.7001953125 m 0
 360.099609375 16.5 422.69921875 38 456.80078125 54 c 1
 334.599609375 -48.5 37.19921875 10.7001953125 7.30078125 50.7998046875 c 1
 37.599609375 60.7998046875 54 94.5 54.900390625 148.700195312 c 1
 337.69921875 148.700195312 l 1
 304.30078125 126.099609375 249.599609375 131 195.5 125.799804688 c 0
 195.19921875 128.099609375 193.30078125 129.900390625 191 129.900390625 c 0
 157.80078125 129.900390625 119.30078125 115.799804688 93.099609375 93.900390625 c 2
 90 91.400390625 l 1
 92.19921875 88.099609375 l 2
 132.69921875 25.2001953125 202 9.2001953125 262.30078125 9.2001953125 c 0
 273.5 9.2001953125 284.400390625 9.7998046875 294.69921875 10.7001953125 c 0
45.900390625 153.299804688 m 0
 45.900390625 122.900390625 40.900390625 86 19.599609375 68 c 1
 19.599609375 238.599609375 l 1
 40.900390625 220.599609375 45.900390625 183.799804688 45.900390625 153.299804688 c 0
EndSplineSet
EndChar

StartChar: f
Encoding: 102 102 31
Width: 468
Flags: HW
LayerCount: 2
Fore
SplineSet
141.25 266.099609375 m 1
 247.44921875 296.400390625 446.048828125 259.700195312 461.650390625 256.799804688 c 1
 351.94921875 249.900390625 250.849609375 277.700195312 171.548828125 217.5 c 1
 234.849609375 172.200195312 338.048828125 195.099609375 410.048828125 159.5 c 1
 141.548828125 161.200195312 l 1
 135.650390625 168.700195312 111.650390625 201.700195312 116.44921875 231.700195312 c 0
 118.75 245.599609375 127.048828125 257.200195312 141.25 266.099609375 c 1
139.75 275 m 1
 90.150390625 297.299804688 38.75 300.900390625 12.94921875 301 c 1
 124.349609375 327.799804688 415.44921875 296.200195312 464.349609375 265.299804688 c 1
 462.349609375 265.700195312 409.44921875 276 343.94921875 282.200195312 c 0
 255.548828125 290.599609375 186.849609375 288.200195312 139.75 275 c 1
165.44921875 22.2998046875 m 0
 165.650390625 22.2001953125 165.75 22 165.94921875 21.900390625 c 1
 153.048828125 7.900390625 130.849609375 2 113.94921875 2 c 0
 96.94921875 2 74.849609375 7.900390625 61.94921875 21.900390625 c 1
 62.150390625 22 62.349609375 22.099609375 62.44921875 22.2998046875 c 0
 67.849609375 28.2998046875 88.650390625 32.599609375 113.048828125 32.7001953125 c 0
 138.150390625 32.900390625 159.650390625 28.599609375 165.44921875 22.2998046875 c 0
62.849609375 33.400390625 m 1
 91.650390625 104.200195312 56.150390625 255.799804688 3.650390625 291.900390625 c 1
 22.548828125 292.400390625 77.349609375 291.400390625 130.150390625 269.299804688 c 1
 117.44921875 259.599609375 109.849609375 247.400390625 107.548828125 233 c 0
 102.44921875 200.799804688 125.349609375 167.400390625 133.349609375 157 c 1
 107.650390625 130.299804688 106.849609375 90.900390625 106.849609375 41.599609375 c 1
 90.75 41.099609375 73.44921875 38.599609375 62.849609375 33.400390625 c 1
141.150390625 152.099609375 m 1
 412.75 150.400390625 l 1
 363.048828125 122.5 125.94921875 158.299804688 166.048828125 32.7998046875 c 1
 154.548828125 39.099609375 133.94921875 41.599609375 115.75 41.7001953125 c 1
 115.849609375 89.7998046875 116.548828125 128 141.150390625 152.099609375 c 1
EndSplineSet
EndChar

StartChar: g
Encoding: 103 103 32
Width: 480
Flags: HW
LayerCount: 2
Fore
SplineSet
110.100585938 240.400390625 m 0
 110 239.799804688 110 239.099609375 110 238.599609375 c 2
 87.7001953125 103.799804688 l 1
 75.6005859375 68.2998046875 28.400390625 66 16.5 66 c 1
 63.900390625 137.200195312 118.299804688 244.400390625 10.1005859375 284.200195312 c 1
 71.5 281.400390625 95.5 267.599609375 104.799804688 256 c 0
 111.5 247.700195312 110.200195312 240.799804688 110.100585938 240.400390625 c 0
112.200195312 261.099609375 m 0
 101.700195312 274.700195312 74.5 290.900390625 5.2998046875 293.400390625 c 1
 99.900390625 325.099609375 364.900390625 297.700195312 474.700195312 249.099609375 c 1
 472.400390625 243.599609375 l 1
 472.200195312 243.700195312 472 243.700195312 471.700195312 243.799804688 c 0
 332 275.900390625 229.200195312 285.599609375 166.100585938 272.700195312 c 0
 138.799804688 267.099609375 124.799804688 258.299804688 117.600585938 251.299804688 c 1
 116.600585938 254.299804688 114.900390625 257.700195312 112.200195312 261.099609375 c 0
430.600585938 139.5 m 1
 381.5 162.5 327.700195312 165.599609375 291.299804688 164.099609375 c 0
 251.799804688 162.5 224.299804688 155.5 223.100585938 155.200195312 c 0
 222.5 155 222 154.799804688 221.600585938 154.5 c 1
 220.100585938 156.700195312 l 1
 287.299804688 190.900390625 409.600585938 172.599609375 435.700195312 148.799804688 c 0
 433.799804688 145.900390625 432.100585938 142.799804688 430.600585938 139.5 c 1
427.200195312 131.099609375 m 1
 414 92.5 422.100585938 37.900390625 439.600585938 22.2998046875 c 1
 289.700195312 -25.7998046875 90.400390625 22 21.7001953125 56.900390625 c 1
 28.2001953125 57.099609375 37.900390625 58.099609375 48.2998046875 60.7998046875 c 0
 70.2998046875 66.7001953125 85.900390625 78.2998046875 93.7001953125 94.599609375 c 1
 103.700195312 85.2001953125 128.600585938 64.400390625 167.799804688 47.5 c 0
 197.700195312 34.599609375 229.799804688 26.7998046875 263.100585938 24.2001953125 c 0
 271.100585938 23.599609375 279.299804688 23.2998046875 287.5 23.2998046875 c 0
 321.5 23.2998046875 356.799804688 28.599609375 392.600585938 39.2001953125 c 2
 395.799804688 40.2001953125 l 1
 395.799804688 143 l 1
 406.200195312 139.900390625 416.600585938 136 426.799804688 131.200195312 c 0
 427 131.200195312 427.100585938 131.099609375 427.200195312 131.099609375 c 1
170.900390625 264.5 m 0
 213.700195312 272.5 300 273.900390625 468.900390625 235.200195312 c 1
 466.700195312 230 l 1
 378.5 256 171 256.599609375 148.799804688 206.900390625 c 1
 126.700195312 139.200195312 l 1
 212.299804688 76 l 2
 259.100585938 41.5 351.400390625 85.599609375 351.400390625 132.700195312 c 1
 323.299804688 147.700195312 250.100585938 148.700195312 231.200195312 140.700195312 c 1
 226.900390625 146.799804688 l 1
 233.400390625 148.400390625 258.5 153.700195312 291.799804688 155.099609375 c 0
 317.400390625 156.200195312 351.900390625 154.900390625 386.900390625 145.700195312 c 1
 386.900390625 47.099609375 l 1
 290.600585938 19.400390625 216.900390625 36.5 171.799804688 55.7998046875 c 0
 128.900390625 74.2001953125 103.200195312 98 96.900390625 104.200195312 c 1
 119.100585938 238.299804688 l 2
 119.799804688 240.099609375 127.5 256.299804688 170.900390625 264.5 c 0
EndSplineSet
EndChar

StartChar: h
Encoding: 104 104 33
Width: 419
Flags: HW
LayerCount: 2
Fore
SplineSet
100.30078125 148.799804688 m 1
 106.19921875 142.599609375 111.099609375 139 114.400390625 136.900390625 c 0
 99.599609375 109.200195312 96.900390625 77.2001953125 106.5 43.900390625 c 0
 112.099609375 24.2998046875 120.400390625 9.599609375 124.5 3.099609375 c 1
 78.30078125 11.099609375 33 25.900390625 3.80078125 49 c 1
 13.400390625 54.7998046875 66.099609375 88.599609375 100.30078125 148.799804688 c 1
43.599609375 280.700195312 m 1
 69.5 291.900390625 99.900390625 299.700195312 130.400390625 304.700195312 c 1
 114.80078125 266.099609375 92.19921875 178.700195312 209.400390625 178.700195312 c 0
 305.80078125 178.700195312 307.69921875 237.799804688 296.599609375 280.200195312 c 1
 299.19921875 274.299804688 301.80078125 267.5 304 260 c 0
 313.19921875 227.900390625 310.400390625 198.299804688 295.69921875 172 c 1
 122.599609375 142.700195312 l 1
 122.099609375 142.900390625 l 2
 121.69921875 143.099609375 82 159.799804688 43.80078125 280.200195312 c 0
 43.69921875 280.400390625 43.69921875 280.5 43.599609375 280.700195312 c 1
415.19921875 257.700195312 m 1
 405.599609375 251.900390625 352.900390625 218.099609375 318.599609375 158 c 1
 312.69921875 164.099609375 307.900390625 167.700195312 304.599609375 169.799804688 c 0
 319.400390625 197.5 322.099609375 229.5 312.5 262.799804688 c 0
 306.900390625 282.400390625 298.599609375 297.099609375 294.5 303.599609375 c 1
 340.69921875 295.599609375 386 280.799804688 415.19921875 257.700195312 c 1
375.400390625 26 m 1
 349.5 14.7998046875 319.099609375 7 288.30078125 2 c 1
 303.900390625 40.599609375 326.5 128 209.30078125 128 c 0
 113.19921875 128 111.099609375 69.2001953125 122.099609375 26.7998046875 c 1
 111.400390625 51.400390625 100.400390625 93 122.69921875 133.799804688 c 0
 122.80078125 133.799804688 122.80078125 133.799804688 122.900390625 133.799804688 c 0
 123.19921875 133.799804688 123.400390625 133.900390625 123.69921875 133.900390625 c 2
 297.900390625 163.299804688 l 1
 304.099609375 160 340.30078125 136.599609375 375.19921875 26.5 c 0
 375.30078125 26.2998046875 375.30078125 26.2001953125 375.400390625 26 c 1
409.30078125 243 m 1
 396.099609375 225.5 373.80078125 190.5 373.80078125 153.400390625 c 0
 373.80078125 100.5 418.900390625 52 418.900390625 52 c 1
 409 43.5 397 36.099609375 383.599609375 29.7001953125 c 1
 362.599609375 95.7998046875 341 131.599609375 325 150.799804688 c 1
 351 197.900390625 389.900390625 229.299804688 409.30078125 243 c 1
9.69921875 63.7001953125 m 1
 22.900390625 81.2001953125 45.19921875 116.200195312 45.19921875 153.299804688 c 0
 45.19921875 206.200195312 0.099609375 254.700195312 0.099609375 254.700195312 c 1
 10 263.200195312 22 270.599609375 35.400390625 277 c 1
 56.400390625 210.900390625 78 175.099609375 94 155.900390625 c 1
 68 108.799804688 29.099609375 77.400390625 9.69921875 63.7001953125 c 1
EndSplineSet
EndChar

StartChar: i
Encoding: 105 105 34
Width: 139
Flags: HW
LayerCount: 2
Fore
SplineSet
82.7998046875 153.299804688 m 0
 82.7998046875 189.700195312 88.099609375 232.799804688 109.299804688 259.099609375 c 1
 109.299804688 212.299804688 109.299804688 94.2998046875 109.299804688 47.5 c 1
 88.099609375 73.900390625 82.7998046875 117 82.7998046875 153.299804688 c 0
73.7998046875 153.299804688 m 0
 73.7998046875 79.400390625 94.7998046875 32.900390625 134.400390625 18.599609375 c 1
 118.099609375 7.7998046875 90.599609375 3.2001953125 69.5 3.2001953125 c 0
 48.400390625 3.2001953125 20.900390625 7.7998046875 4.599609375 18.599609375 c 1
 44.2001953125 32.7998046875 65.2001953125 79.400390625 65.2001953125 153.299804688 c 0
 65.2001953125 227.200195312 44.2998046875 273.700195312 4.599609375 288 c 1
 20.900390625 298.799804688 48.400390625 303.400390625 69.5 303.400390625 c 0
 90.599609375 303.400390625 118.099609375 298.799804688 134.400390625 288 c 1
 94.7998046875 273.799804688 73.7998046875 227.299804688 73.7998046875 153.299804688 c 0
29.7001953125 259.200195312 m 1
 50.900390625 232.799804688 56.2001953125 189.700195312 56.2001953125 153.400390625 c 0
 56.2001953125 117.099609375 50.900390625 74 29.7001953125 47.599609375 c 1
 29.7001953125 259.200195312 l 1
EndSplineSet
EndChar

StartChar: j
Encoding: 106 106 35
Width: 443
Flags: HW
LayerCount: 2
Fore
SplineSet
153.200195312 21.599609375 m 0
 101 25.599609375 53.099609375 40 22.3994140625 52.7998046875 c 1
 157.599609375 16.599609375 243 43.900390625 282.700195312 85.2998046875 c 0
 323.700195312 128.099609375 339.200195312 165.700195312 330.799804688 252.900390625 c 1
 351.399414062 226.400390625 356.5 184 356.5 148.099609375 c 0
 356.5 125.299804688 346.399414062 100.900390625 327.299804688 77.5 c 0
 282.599609375 23.5 208 17.2998046875 153.200195312 21.599609375 c 0
383.200195312 148.099609375 m 0
 383.200195312 184.400390625 388.5 227.400390625 409.599609375 253.799804688 c 1
 409.599609375 62.7001953125 l 1
 388.200195312 80.7998046875 383.200195312 117.599609375 383.200195312 148.099609375 c 0
374.200195312 148.099609375 m 0
 374.200195312 91.2001953125 390.799804688 55.900390625 422 45.599609375 c 1
 394 5.5 128.099609375 -53.7001953125 8.2998046875 49.099609375 c 1
 42.3994140625 33 98 16.7001953125 152.399414062 12.5 c 0
 161.299804688 11.7998046875 170.700195312 11.400390625 180.5 11.400390625 c 0
 232.899414062 11.400390625 294.399414062 23.7001953125 334.200195312 71.7001953125 c 0
 354.700195312 96.7998046875 365.5 123.200195312 365.5 148.099609375 c 0
 365.5 222 344.599609375 268.5 304.899414062 282.799804688 c 1
 321.200195312 293.599609375 348.700195312 298.200195312 369.799804688 298.200195312 c 0
 390.899414062 298.200195312 418.399414062 293.599609375 434.700195312 282.799804688 c 1
 395.099609375 268.599609375 374.200195312 222.099609375 374.200195312 148.099609375 c 0
EndSplineSet
EndChar

StartChar: k
Encoding: 107 107 36
Width: 421
Flags: HW
LayerCount: 2
Fore
SplineSet
43.4501953125 154.400390625 m 1
 43.349609375 154.400390625 43.349609375 154.400390625 43.349609375 154.200195312 c 1
 42.4501953125 200.599609375 28.1494140625 246.599609375 0.349609375 284.5 c 1
 19.5498046875 300.900390625 57.9501953125 307.799804688 86.75 307.799804688 c 0
 115.549804688 307.799804688 153.950195312 301 173.149414062 284.5 c 1
 149.450195312 252.099609375 135.649414062 213.799804688 131.450195312 174.400390625 c 1
 220.75 194.700195312 331.049804688 231.299804688 410.349609375 295.900390625 c 1
 357.25 209.099609375 248.75 153.700195312 129.950195312 153.700195312 c 2
 114.75 153.799804688 l 1
 114.549804688 184.400390625 117.849609375 254 136.049804688 269.400390625 c 2
 140.649414062 273.299804688 l 1
 135.549804688 276.599609375 l 2
 123.75 284.400390625 105.849609375 288.900390625 86.5498046875 289 c 0
 66.9501953125 289.200195312 49.0498046875 284.599609375 37.5498046875 276.599609375 c 2
 32.75 273.299804688 l 1
 37.25 269.5 l 2
 55.25 254.200195312 58.75 185.099609375 58.5498046875 154.299804688 c 1
 43.4501953125 154.400390625 l 1
 43.4501953125 154.400390625 l 1
304.849609375 150.200195312 m 1
 427.450195312 103.400390625 416.149414062 29.900390625 409.75 8.400390625 c 1
 388.149414062 52.5 352.25 88.7998046875 305.849609375 113.799804688 c 0
 272.25 131.900390625 234.049804688 143.900390625 191.75 149.700195312 c 1
 234.149414062 156.5 274.450195312 170.299804688 310.450195312 190.5 c 0
 358.049804688 217.200195312 396.049804688 253.700195312 420.75 296.099609375 c 1
 420.75 271.5 411.349609375 197.900390625 304.849609375 150.200195312 c 1
67.4501953125 145.200195312 m 1
 105.649414062 144.900390625 l 1
 105.649414062 136.299804688 105.849609375 116.400390625 107.849609375 95.2998046875 c 0
 110.950195312 61.7998046875 117.049804688 39 125.950195312 27.2998046875 c 1
 104.25 16.5 67.6494140625 16.400390625 47.0498046875 27.2001953125 c 1
 56.0498046875 38.7998046875 62.1494140625 61.7001953125 65.25 95.2998046875 c 0
 67.25 116.700195312 67.4501953125 136.700195312 67.4501953125 145.200195312 c 1
399.549804688 8.900390625 m 1
 319.450195312 70.099609375 215.649414062 105.200195312 131.25 125.299804688 c 1
 135.25 85.5 149.049804688 46.7998046875 173.049804688 14.2001953125 c 1
 153.849609375 -2.2001953125 115.450195312 -9.099609375 86.6494140625 -9.099609375 c 0
 57.849609375 -9.099609375 19.4501953125 -2.2998046875 0.25 14.2001953125 c 1
 28.25 52.2998046875 42.5498046875 98.7001953125 43.349609375 145.400390625 c 1
 43.4501953125 145.400390625 l 1
 58.5498046875 145.299804688 l 1
 58.75 114.700195312 55.4501953125 45.099609375 37.25 29.7001953125 c 2
 32.75 25.900390625 l 1
 37.5498046875 22.599609375 l 2
 48.9501953125 14.7001953125 66.5498046875 10.2001953125 85.849609375 10.2001953125 c 0
 86.0498046875 10.2001953125 86.349609375 10.2001953125 86.5498046875 10.2001953125 c 0
 105.849609375 10.400390625 123.649414062 14.900390625 135.549804688 22.599609375 c 2
 140.649414062 25.900390625 l 1
 136.049804688 29.7998046875 l 2
 118.049804688 45.099609375 114.549804688 114.299804688 114.75 145 c 1
 129.849609375 144.900390625 l 2
 257.149414062 144.900390625 354.75 95.5 399.549804688 8.900390625 c 1
107.950195312 203.900390625 m 0
 105.950195312 182.599609375 105.75 162.599609375 105.75 154.099609375 c 1
 67.5498046875 154.299804688 l 1
 67.5498046875 162.900390625 67.349609375 182.799804688 65.349609375 203.900390625 c 0
 62.1494140625 237.5 56.0498046875 260.400390625 47.1494140625 272 c 1
 67.849609375 282.799804688 104.450195312 282.700195312 126.049804688 271.900390625 c 1
 117.149414062 260.200195312 111.049804688 237.400390625 107.950195312 203.900390625 c 0
EndSplineSet
EndChar

StartChar: l
Encoding: 108 108 37
Width: 443
Flags: HW
LayerCount: 2
Fore
SplineSet
59.80078125 146.099609375 m 0
 59.80078125 115.599609375 54.80078125 78.7998046875 33.400390625 60.7998046875 c 1
 33.400390625 251.900390625 l 1
 54.5 225.5 59.80078125 182.400390625 59.80078125 146.099609375 c 0
112.19921875 250.900390625 m 1
 103.80078125 163.700195312 119.30078125 126.099609375 160.30078125 83.2998046875 c 0
 200 41.7998046875 285.400390625 14.5 420.599609375 50.7998046875 c 1
 389.80078125 37.900390625 341.900390625 23.599609375 289.80078125 19.5 c 0
 235.099609375 15.2998046875 160.400390625 21.5 115.69921875 75.400390625 c 0
 96.599609375 98.7998046875 86.5 123.299804688 86.5 146.099609375 c 0
 86.5 182 91.69921875 224.400390625 112.19921875 250.900390625 c 1
290.599609375 10.599609375 m 0
 344.900390625 14.7998046875 400.5 31.099609375 434.69921875 47.2001953125 c 1
 314.900390625 -55.599609375 48.900390625 3.599609375 21 43.7001953125 c 1
 52.30078125 53.900390625 68.80078125 89.2998046875 68.80078125 146.099609375 c 0
 68.80078125 220.099609375 47.900390625 266.5 8.30078125 280.799804688 c 1
 24.599609375 291.599609375 52.099609375 296.200195312 73.19921875 296.200195312 c 0
 94.30078125 296.200195312 121.80078125 291.599609375 138.099609375 280.799804688 c 1
 98.5 266.599609375 77.5 220.099609375 77.5 146.099609375 c 0
 77.5 121.200195312 88.30078125 94.7998046875 108.80078125 69.7001953125 c 0
 148.599609375 21.7998046875 210.099609375 9.5 262.5 9.5 c 0
 272.19921875 9.5 281.69921875 9.900390625 290.599609375 10.599609375 c 0
EndSplineSet
EndChar

StartChar: m
Encoding: 109 109 38
Width: 499
Flags: HW
LayerCount: 2
Fore
SplineSet
68.6005859375 188 m 0
 34.400390625 143.099609375 15.30078125 64.2998046875 21.900390625 0.2001953125 c 1
 -61.19921875 154.099609375 120.400390625 299.900390625 120.400390625 299.900390625 c 1
 183.100585938 289.200195312 239.200195312 219.900390625 249.500976562 182.5 c 1
 259.900390625 219.900390625 315.900390625 289.200195312 378.600585938 299.900390625 c 1
 378.600585938 299.900390625 560.200195312 154 477.100585938 0.2001953125 c 1
 484.100585938 64.2998046875 465.000976562 143.099609375 430.80078125 188 c 0
 413.700195312 210.299804688 393.500976562 223.400390625 372.30078125 225.700195312 c 2
 371.80078125 225.700195312 l 1
 371.700195312 225.700195312 l 2
 345.30078125 225.700195312 322.30078125 216.099609375 303.400390625 197.200195312 c 0
 282.100585938 176 266.200195312 143.400390625 256.100585938 100.5 c 0
 253.30078125 88.599609375 251.30078125 77.099609375 249.700195312 66.2998046875 c 1
 248.200195312 77.099609375 246.100585938 88.599609375 243.30078125 100.5 c 0
 233.200195312 143.400390625 217.30078125 176 196.000976562 197.200195312 c 0
 177.100585938 216.099609375 154.100585938 225.700195312 127.700195312 225.700195312 c 2
 127.600585938 225.700195312 l 1
 127.100585938 225.700195312 l 2
 105.900390625 223.400390625 85.6005859375 210.299804688 68.6005859375 188 c 0
423.80078125 182.5 m 0
 455.900390625 140.400390625 474.200195312 67.2001953125 468.80078125 6.2001953125 c 1
 455.100585938 71.7001953125 402.100585938 141.200195312 351.80078125 158 c 1
 314.500976562 146.599609375 272.900390625 103.799804688 255.600585938 36.900390625 c 1
 258.900390625 78.7001953125 270.400390625 151.599609375 309.80078125 190.900390625 c 0
 327.000976562 208 347.80078125 216.700195312 371.700195312 216.700195312 c 0
 390.600585938 214.5 408.100585938 203 423.80078125 182.5 c 0
189.700195312 190.799804688 m 0
 229.100585938 151.5 240.600585938 78.599609375 243.900390625 36.7001953125 c 1
 226.700195312 103.599609375 185.000976562 146.400390625 147.700195312 157.799804688 c 1
 97.400390625 141.099609375 44.400390625 71.5 30.7001953125 6 c 1
 25.400390625 67.099609375 43.6005859375 140.299804688 75.7001953125 182.400390625 c 0
 91.400390625 203 108.900390625 214.5 127.80078125 216.599609375 c 0
 151.700195312 216.599609375 172.600585938 207.900390625 189.700195312 190.799804688 c 0
EndSplineSet
EndChar

StartChar: n
Encoding: 110 110 39
Width: 422
Flags: HW
LayerCount: 2
Fore
SplineSet
158.69921875 191.400390625 m 1
 112 312.599609375 l 1
 155.19921875 312.599609375 l 1
 176.19921875 247.5 200.5 177.200195312 264.298828125 157.700195312 c 1
 328.19921875 177.200195312 352.400390625 247.5 373.400390625 312.599609375 c 1
 395.298828125 312.599609375 l 1
 392.19921875 298.799804688 357.099609375 149.900390625 275.19921875 128.099609375 c 1
 158.69921875 191.400390625 l 1
19.599609375 -9.099609375 m 0
 19.298828125 -10.2998046875 19.599609375 -11.400390625 20.099609375 -12.400390625 c 1
 -0.099609375 -12.400390625 l 1
 -0.099609375 148.400390625 -0.099609375 246.700195312 103.099609375 310.599609375 c 1
 148.798828125 191.900390625 l 1
 128.599609375 188.099609375 109.5 176 92 155.900390625 c 0
 77 138.700195312 63.099609375 115.5 50.599609375 87.099609375 c 0
 29.5 38.900390625 19.69921875 -8.599609375 19.599609375 -9.099609375 c 0
404.298828125 312.700195312 m 1
 422.099609375 312.700195312 l 1
 422.099609375 152.400390625 422.099609375 55.400390625 319.900390625 -9.599609375 c 1
 319.900390625 -9.2998046875 319.798828125 -9 319.69921875 -8.7001953125 c 2
 280.19921875 120.200195312 l 1
 300 126.200195312 318.69921875 139.299804688 335.69921875 159.299804688 c 0
 350.099609375 176.299804688 363.400390625 198.200195312 375.19921875 224.5 c 0
 395.19921875 269.099609375 404.099609375 311.5 404.19921875 311.900390625 c 0
 404.298828125 312.200195312 404.298828125 312.400390625 404.298828125 312.700195312 c 1
311.19921875 -11.400390625 m 2
 311.298828125 -11.7001953125 311.400390625 -12.099609375 311.69921875 -12.2998046875 c 1
 266.900390625 -12.2998046875 l 1
 245.900390625 52.7998046875 221.599609375 123.099609375 157.798828125 142.599609375 c 1
 93.900390625 123.099609375 69.69921875 52.7998046875 48.69921875 -12.2998046875 c 1
 27.798828125 -12.2998046875 l 1
 28.099609375 -11.900390625 28.298828125 -11.400390625 28.400390625 -10.900390625 c 0
 28.798828125 -9.099609375 66.69921875 171.900390625 154.19921875 183.599609375 c 1
 270.798828125 120.200195312 l 1
 311.19921875 -11.400390625 l 2
EndSplineSet
EndChar

StartChar: o
Encoding: 111 111 40
Width: 472
Flags: HW
LayerCount: 2
Fore
SplineSet
356.19921875 227.799804688 m 0
 390.19921875 198.200195312 405.69921875 167.400390625 405.69921875 151.400390625 c 0
 405.69921875 135.400390625 390.19921875 104.599609375 356.19921875 75 c 0
 335.099609375 56.599609375 291.400390625 25.900390625 234.69921875 25.900390625 c 0
 178 25.900390625 134.19921875 56.7001953125 113.19921875 75 c 0
 79.19921875 104.599609375 63.69921875 135.400390625 63.69921875 151.400390625 c 0
 63.69921875 167.400390625 79.19921875 198.200195312 113.19921875 227.799804688 c 0
 134.30078125 246.200195312 178 276.900390625 234.69921875 276.900390625 c 0
 291.400390625 276.900390625 335.19921875 246.099609375 356.19921875 227.799804688 c 0
236 56.099609375 m 0
 309.5 56.099609375 349.400390625 112.299804688 349.400390625 150.099609375 c 0
 349.400390625 187.900390625 309.5 244.299804688 236 244.299804688 c 0
 162.5 244.299804688 122.599609375 188 122.599609375 150.200195312 c 0
 122.599609375 112.400390625 162.5 56.099609375 236 56.099609375 c 0
236 311.5 m 0
 352.19921875 311.5 471.900390625 208.700195312 471.900390625 150.099609375 c 0
 471.900390625 91.5 352.19921875 -11.2998046875 236 -11.2998046875 c 0
 119.80078125 -11.2998046875 0.099609375 91.5 0.099609375 150.099609375 c 0
 0.099609375 208.700195312 119.80078125 311.5 236 311.5 c 0
362.099609375 68.099609375 m 0
 393.599609375 95.599609375 414.69921875 128.900390625 414.69921875 151.299804688 c 0
 414.69921875 173.700195312 393.599609375 207.099609375 362.099609375 234.5 c 0
 340.099609375 253.700195312 294.30078125 285.799804688 234.69921875 285.799804688 c 0
 175.099609375 285.799804688 129.30078125 253.700195312 107.30078125 234.5 c 0
 75.80078125 207.099609375 54.69921875 173.700195312 54.69921875 151.299804688 c 0
 54.69921875 128.900390625 75.80078125 95.5 107.30078125 68.099609375 c 0
 129.30078125 48.900390625 175.099609375 16.7998046875 234.69921875 16.7998046875 c 0
 294.30078125 16.7998046875 340.099609375 48.900390625 362.099609375 68.099609375 c 0
EndSplineSet
EndChar

StartChar: p
Encoding: 112 112 41
Width: 446
Flags: HW
LayerCount: 2
Fore
SplineSet
29.3994140625 240 m 1
 53.599609375 211 55.8994140625 158.700195312 55.8994140625 140.099609375 c 0
 55.8994140625 91.599609375 47 56 29.3994140625 34.2001953125 c 1
 29.3994140625 89.599609375 29.3994140625 210.299804688 29.3994140625 240 c 1
249 275.700195312 m 0
 225.700195312 275.700195312 168.099609375 267 145.200195312 230.700195312 c 0
 122.299804688 194.400390625 107.899414062 145.900390625 109 35.7998046875 c 0
 109 35.2001953125 109 34.7001953125 109 34.2001953125 c 1
 91.3994140625 56 82.5 91.599609375 82.5 140.099609375 c 0
 82.5 190 92.3994140625 252.5 139.799804688 267.299804688 c 2
 140.299804688 267.5 l 2
 207.799804688 297.700195312 271.399414062 289.099609375 312.799804688 276.599609375 c 0
 349.700195312 265.400390625 376.099609375 249.299804688 384.700195312 243.599609375 c 1
 379.599609375 232.200195312 364.700195312 195.400390625 363.700195312 160.799804688 c 1
 346.799804688 156.900390625 264.599609375 140.599609375 149.799804688 170.400390625 c 0
 149.5 170.5 149.099609375 170.5 148.700195312 170.5 c 1
 148.700195312 174 l 1
 270.799804688 153.5 352.799804688 159.400390625 352.799804688 230.700195312 c 1
 334.599609375 265 272.299804688 275.700195312 249 275.700195312 c 0
215.099609375 317.099609375 m 0
 347.399414062 317.099609375 446.200195312 259.200195312 446.099609375 259.099609375 c 0
 407.599609375 217.200195312 396.399414062 123.599609375 396.399414062 123.599609375 c 1
 296.5 109.400390625 148.599609375 157.5 148.599609375 157.5 c 1
 148.599609375 161.200195312 l 1
 216.599609375 143.700195312 272.700195312 142.299804688 307.899414062 144.200195312 c 0
 346.399414062 146.299804688 368.399414062 152.5 369.299804688 152.799804688 c 2
 372.599609375 153.700195312 l 1
 372.599609375 157.099609375 l 2
 372.599609375 196.799804688 394.099609375 242.599609375 394.299804688 243.099609375 c 2
 395.899414062 246.5 l 1
 392.899414062 248.700195312 l 2
 391.700195312 249.599609375 362.099609375 270.900390625 315.599609375 285 c 0
 288.299804688 293.299804688 260.799804688 297.299804688 233.899414062 297.099609375 c 0
 200.399414062 296.799804688 167.700195312 289.599609375 136.799804688 275.799804688 c 0
 95.2998046875 262.700195312 73.3994140625 215.799804688 73.3994140625 140.099609375 c 0
 73.3994140625 86.2998046875 84.2998046875 47.2998046875 105.599609375 24.2998046875 c 0
 106.5 23.400390625 107.700195312 22.900390625 108.899414062 22.900390625 c 0
 110 22.900390625 111.099609375 23.2998046875 112 24.099609375 c 2
 112.099609375 24.2001953125 l 1
 119.599609375 17.099609375 128.299804688 11.900390625 138.5 8.7001953125 c 1
 123.099609375 -4.5 92.2998046875 -10 69.2001953125 -10 c 0
 46.099609375 -10 15.2998046875 -4.5 -0.1005859375 8.7001953125 c 1
 10.3994140625 11.900390625 19.5 17.5 27.099609375 25 c 1
 27.2001953125 24.900390625 l 2
 28.099609375 24.099609375 29.099609375 23.7001953125 30.2001953125 23.7001953125 c 0
 31.3994140625 23.7001953125 32.599609375 24.2001953125 33.5 25.2001953125 c 0
 54.3994140625 48.400390625 64.8994140625 87 64.8994140625 140.099609375 c 0
 64.8994140625 160.299804688 62.7998046875 189.799804688 52.8994140625 216.200195312 c 0
 43.3994140625 241.400390625 29 257.799804688 10 265 c 1
 28.7001953125 276.599609375 101.799804688 317.099609375 215.099609375 317.099609375 c 0
EndSplineSet
EndChar

StartChar: q
Encoding: 113 113 42
Width: 472
Flags: HW
LayerCount: 2
Fore
SplineSet
471.900390625 151.200195312 m 0
 471.900390625 122.400390625 443 83 400 50.2998046875 c 1
 431.701171875 9.5 451.201171875 -34 442.701171875 -51.599609375 c 1
 340.400390625 50.7001953125 l 1
 349.599609375 56.900390625 357.30078125 63 363.30078125 68.2001953125 c 0
 394.80078125 95.599609375 415.900390625 129 415.900390625 151.299804688 c 0
 415.900390625 173.599609375 394.701171875 207 363.30078125 234.400390625 c 0
 341.400390625 253.5 295.599609375 285.599609375 236.099609375 285.599609375 c 0
 176.599609375 285.599609375 130.900390625 253.5 108.900390625 234.400390625 c 0
 77.400390625 207 56.30078125 173.599609375 56.30078125 151.299804688 c 0
 56.30078125 129 77.5 95.599609375 108.900390625 68.2001953125 c 0
 130.80078125 49.099609375 176.599609375 17 236.099609375 17 c 0
 275.099609375 17 308.201171875 30.7998046875 332.599609375 45.7001953125 c 1
 436.30078125 -57.900390625 l 1
 415.5 -68 358.201171875 -38.7998046875 312.30078125 3.5 c 1
 287.5 -5 261.701171875 -10.2001953125 236 -10.2001953125 c 0
 119.80078125 -10.2001953125 0.099609375 92.599609375 0.099609375 151.200195312 c 0
 0.099609375 209.799804688 119.80078125 312.599609375 236 312.599609375 c 0
 352.201171875 312.599609375 471.900390625 209.799804688 471.900390625 151.200195312 c 0
440 -55.2998046875 m 1
 440 -55.2998046875 l 1
 440 -55.2998046875 l 1
245.701171875 145.299804688 m 1
 261.701171875 153.099609375 299.30078125 137.599609375 336.599609375 110.799804688 c 1
 344.900390625 124.5 349.30078125 138.799804688 349.30078125 151.200195312 c 0
 349.30078125 189 309.400390625 245.299804688 235.900390625 245.299804688 c 0
 162.400390625 245.299804688 122.5 188.900390625 122.5 151.200195312 c 0
 122.5 113.400390625 162.400390625 57.099609375 235.900390625 57.099609375 c 0
 246.400390625 57.099609375 256.201171875 58.400390625 265.30078125 60.5 c 1
 243.900390625 93.5 232.400390625 124.799804688 239.30078125 139 c 1
 326 52.2998046875 l 1
 302.900390625 38.5 272.099609375 26 236 26 c 0
 179.400390625 26 135.701171875 56.7001953125 114.701171875 75 c 0
 80.701171875 104.599609375 65.201171875 135.299804688 65.201171875 151.299804688 c 0
 65.201171875 167.299804688 80.701171875 198 114.701171875 227.599609375 c 0
 135.701171875 245.900390625 179.400390625 276.599609375 236 276.599609375 c 0
 292.599609375 276.599609375 336.30078125 245.900390625 357.30078125 227.599609375 c 0
 391.30078125 198 406.80078125 167.299804688 406.80078125 151.299804688 c 0
 406.80078125 135.299804688 391.30078125 104.599609375 357.30078125 75 c 0
 351.30078125 69.7998046875 343.400390625 63.5 333.80078125 57.2001953125 c 1
 245.701171875 145.299804688 l 1
242 142.700195312 m 1
 242 142.700195312 l 1
 242 142.700195312 l 1
EndSplineSet
EndChar

StartChar: r
Encoding: 114 114 43
Width: 498
Flags: HW
LayerCount: 2
Fore
SplineSet
128.05078125 176.099609375 m 1
 124.44921875 165 105.25 100.799804688 105.349609375 -10 c 1
 77.349609375 -9.099609375 42.25 0 24.150390625 20.5 c 1
 24.150390625 20.5 151.44921875 132.299804688 3.05078125 250.299804688 c 1
 3.05078125 250.299804688 65.349609375 319.400390625 310.75 291.599609375 c 0
 556.150390625 263.799804688 521.44921875 149.599609375 242.849609375 150.200195312 c 1
 242.849609375 150.200195312 418.55078125 95.7998046875 494.94921875 -2 c 1
 152.349609375 171.400390625 l 1
 160.55078125 171.299804688 168.44921875 171.299804688 176.150390625 171.299804688 c 0
 410.94921875 171.299804688 426.25 214.599609375 427.25 219.799804688 c 2
 427.349609375 220.200195312 l 1
 427.349609375 220.599609375 l 2
 427.349609375 225.299804688 424.55078125 229.799804688 419.05078125 234.200195312 c 0
 380.650390625 264.700195312 202.650390625 293.400390625 95.25 267.900390625 c 2
 90.05078125 266.700195312 l 1
 128.05078125 176.099609375 l 1
381.650390625 200.599609375 m 0
 348.05078125 190 278.150390625 178 135.94921875 180.700195312 c 1
 102.55078125 260.400390625 l 1
 150.05078125 270.700195312 215.349609375 271.700195312 282.94921875 263.099609375 c 0
 343.75 255.400390625 396.150390625 240.900390625 413.44921875 227.200195312 c 0
 416.25 225 417.94921875 222.799804688 418.25 221.200195312 c 0
 417.349609375 219.400390625 411.349609375 210 381.650390625 200.599609375 c 0
148.150390625 245.5 m 2
 148.150390625 195.700195312 l 1
 148.150390625 195.700195312 360.75 199.799804688 360.75 220.599609375 c 0
 360.75 241.5 148.150390625 245.5 148.150390625 245.5 c 2
177.75 120.700195312 m 1
 152.44921875 83.599609375 195.44921875 20.599609375 195.44921875 20.599609375 c 0
 177.349609375 0.099609375 142.150390625 -9 114.25 -9.900390625 c 1
 114.25 89.900390625 130.44921875 152.5 135.55078125 169.900390625 c 1
 484.94921875 -6.900390625 l 1
 374.75 17.5 177.75 120.700195312 177.75 120.700195312 c 1
EndSplineSet
EndChar

StartChar: s
Encoding: 115 115 44
Width: 466
Flags: HW
LayerCount: 2
Fore
SplineSet
49.6494140625 223.200195312 m 1
 31.849609375 198.599609375 7.75 193 3.6494140625 192.200195312 c 1
 3.6494140625 254.099609375 l 1
 7.75 253.400390625 31.849609375 247.900390625 49.6494140625 223.200195312 c 1
416.450195312 71.7998046875 m 1
 434.149414062 96.400390625 458.25 102 462.450195312 102.799804688 c 1
 462.450195312 40.900390625 l 1
 458.25 41.7001953125 434.149414062 47.2001953125 416.450195312 71.7998046875 c 1
454.950195312 110.200195312 m 1
 444.549804688 107.099609375 424.349609375 98.599609375 408.549804688 76.2998046875 c 1
 364.950195312 76.2998046875 l 1
 334.149414062 132 237.950195312 151.099609375 233.849609375 151.900390625 c 0
 232.950195312 152.099609375 138.649414062 170.799804688 109.450195312 222.200195312 c 1
 118.049804688 229.799804688 148.849609375 254.5 198.950195312 270.099609375 c 0
 253.75 287.200195312 343.450195312 296.700195312 459.849609375 244.700195312 c 0
 459.950195312 244.700195312 460.149414062 244.599609375 460.25 244.599609375 c 1
 456.549804688 233.599609375 l 1
 346.549804688 286.5 205.950195312 278.900390625 155.149414062 223.200195312 c 1
 165.649414062 196.799804688 187.649414062 175.5 238.25 164.200195312 c 0
 310.049804688 146.799804688 352.049804688 149.599609375 454.950195312 110.200195312 c 1
408.549804688 67.2998046875 m 1
 427.849609375 40.099609375 453.649414062 33.400390625 460.149414062 32.099609375 c 1
 368.950195312 -12.599609375 141.049804688 -48 -0.0498046875 33.2001953125 c 1
 2.849609375 41.900390625 l 1
 55.25 18.5 106.849609375 5.2998046875 156.25 2.7001953125 c 0
 162.450195312 2.400390625 168.649414062 2.2001953125 174.849609375 2.2001953125 c 0
 207.950195312 2.2001953125 239.950195312 7 270.149414062 16.5 c 0
 325.25 33.7998046875 357.149414062 61 363.950195312 67.2998046875 c 1
 408.549804688 67.2998046875 l 1
267.549804688 25.099609375 m 0
 212.649414062 7.7998046875 122.849609375 -1.7998046875 6.1494140625 50.2998046875 c 0
 6.0498046875 50.2998046875 5.849609375 50.400390625 5.75 50.400390625 c 1
 9.4501953125 61.400390625 l 1
 119.450195312 8.5 260.049804688 16.099609375 310.849609375 71.7998046875 c 1
 300.349609375 98.2001953125 278.349609375 119.5 227.75 130.799804688 c 0
 155.950195312 148.200195312 113.950195312 145.400390625 11.0498046875 184.799804688 c 1
 21.4501953125 187.900390625 41.75 196.400390625 57.4501953125 218.700195312 c 1
 101.149414062 218.700195312 l 1
 131.950195312 163 228.149414062 143.900390625 232.25 143.099609375 c 0
 233.149414062 142.900390625 327.450195312 124.200195312 356.649414062 72.7998046875 c 1
 348.049804688 65.2998046875 317.450195312 40.7998046875 267.549804688 25.099609375 c 0
57.4501953125 227.700195312 m 1
 38.25 254.900390625 12.349609375 261.599609375 5.849609375 262.900390625 c 1
 97.0498046875 307.599609375 324.950195312 343 466.049804688 261.799804688 c 1
 463.149414062 253.099609375 l 1
 410.75 276.5 359.149414062 289.700195312 309.75 292.299804688 c 0
 270.049804688 294.400390625 231.75 289.799804688 195.849609375 278.5 c 0
 140.75 261.200195312 108.849609375 234 102.049804688 227.700195312 c 1
 57.4501953125 227.700195312 l 1
EndSplineSet
EndChar

StartChar: t
Encoding: 116 116 45
Width: 425
Flags: HW
LayerCount: 2
Fore
SplineSet
216.799804688 149.400390625 m 2
 216.799804688 75.400390625 237.799804688 28.900390625 277.399414062 14.7001953125 c 1
 261.099609375 3.900390625 233.599609375 -0.7001953125 212.5 -0.7001953125 c 0
 191.399414062 -0.7001953125 163.899414062 3.900390625 147.599609375 14.7001953125 c 1
 187.200195312 28.900390625 208.200195312 75.400390625 208.200195312 149.400390625 c 2
 208.200195312 225.900390625 l 1
 207.099609375 227.200195312 l 2
 166.099609375 274.799804688 96.3994140625 298.900390625 0 298.900390625 c 1
 0 310.799804688 l 1
 66 310.799804688 159.5 309.299804688 203.700195312 286.700195312 c 1
 221.299804688 286.700195312 l 1
 265.5 309.200195312 359 310.799804688 425 310.799804688 c 1
 425 298.900390625 l 1
 425 298.900390625 l 1
 328.599609375 298.900390625 259 274.799804688 217.899414062 227.200195312 c 2
 216.799804688 225.900390625 l 1
 216.799804688 149.400390625 l 2
172.700195312 43.599609375 m 1
 172.700195312 149.5 l 2
 172.700195312 183.299804688 155.700195312 277.200195312 0 277.200195312 c 1
 0 289.900390625 l 1
 92.7998046875 289.900390625 159.799804688 267.200195312 199.200195312 222.599609375 c 1
 199.200195312 149.400390625 l 2
 199.200195312 113.099609375 193.899414062 70 172.700195312 43.599609375 c 1
425 289.900390625 m 1
 425 289.900390625 l 1
 425 277.099609375 l 1
 269.299804688 277.099609375 252.299804688 183.200195312 252.299804688 149.400390625 c 0
 252.299804688 108.200195312 252.299804688 67 252.299804688 43.599609375 c 1
 231.099609375 70 225.799804688 113.099609375 225.799804688 149.400390625 c 2
 225.799804688 222.599609375 l 1
 265.200195312 267.200195312 332.200195312 289.900390625 425 289.900390625 c 1
EndSplineSet
EndChar

StartChar: u
Encoding: 117 117 46
Width: 502
Flags: HW
LayerCount: 2
Fore
SplineSet
65.05078125 287.5 m 1
 92.05078125 297.799804688 122.25 305.400390625 152.650390625 310.400390625 c 1
 97.349609375 15.400390625 404.55078125 15.400390625 349.25 310.400390625 c 1
 379.75 305.299804688 410.05078125 297.700195312 437.05078125 287.400390625 c 1
 436.849609375 286.900390625 436.75 286.400390625 436.75 285.799804688 c 0
 436.75 121.700195312 340.55078125 47 251.05078125 47 c 0
 161.650390625 47 65.349609375 121.700195312 65.349609375 285.799804688 c 0
 65.349609375 286.400390625 65.25 287 65.05078125 287.5 c 1
501.849609375 251.200195312 m 1
 456.75 231 422.05078125 153.099609375 474.55078125 71.599609375 c 1
 474.55078125 71.599609375 375.650390625 -3.5 250.94921875 -3.5 c 0
 126.25 -3.5 27.349609375 71.599609375 27.349609375 71.599609375 c 1
 79.94921875 153.200195312 45.349609375 231.200195312 0.150390625 251.299804688 c 1
 15.25 264.299804688 34.55078125 275.200195312 56.25 284.200195312 c 1
 56.650390625 208.700195312 77.55078125 145.200195312 116.849609375 100.5 c 0
 152.25 60.2001953125 199.849609375 38.099609375 251.05078125 38.099609375 c 0
 302.25 38.099609375 349.849609375 60.2998046875 385.25 100.5 c 0
 424.650390625 145.200195312 445.55078125 208.599609375 445.849609375 284.099609375 c 1
 467.44921875 275.099609375 486.75 264.200195312 501.849609375 251.200195312 c 1
EndSplineSet
EndChar

StartChar: v
Encoding: 118 118 47
Width: 516
Flags: HW
LayerCount: 2
Fore
SplineSet
256.5 58.5 m 1
 150.30078125 83.7998046875 45.30078125 193.5 16.30078125 309.5 c 1
 51.5 309.5 l 1
 88 168 206.5 116.299804688 258 116.299804688 c 0
 309.5 116.299804688 428 168 464.5 309.5 c 1
 496.900390625 309.5 l 1
 468.599609375 190.099609375 368 84.900390625 256.5 58.5 c 1
506.19921875 309.5 m 0
 516.099609375 309.5 l 1
 504.30078125 215.400390625 388.400390625 35.2998046875 258 -11.7998046875 c 1
 127.69921875 35.2001953125 11.69921875 215.400390625 -0.099609375 309.5 c 1
 7 309.5 l 1
 21 251.599609375 53.69921875 193.299804688 99.099609375 145.200195312 c 0
 145.400390625 96.2001953125 201 62.2001953125 255.599609375 49.5 c 2
 256.599609375 49.2998046875 l 1
 257.599609375 49.5 l 2
 313.30078125 62.5 368.80078125 95.400390625 413.900390625 142.200195312 c 0
 459.5 189.5 492.30078125 248.900390625 506.19921875 309.5 c 0
EndSplineSet
EndChar

StartChar: w
Encoding: 119 119 48
Width: 499
Flags: HW
LayerCount: 2
Fore
SplineSet
41.8251953125 301.200195312 m 0
 41.9248046875 301.700195312 41.9248046875 302.099609375 42.0244140625 302.599609375 c 2
 45.0244140625 302.599609375 l 1
 52.5244140625 232.799804688 93.0244140625 152.700195312 147.424804688 134.599609375 c 1
 190.024414062 147.599609375 227.825195312 201.799804688 238.825195312 286.099609375 c 1
 245.024414062 286.099609375 l 1
 245.024414062 199.299804688 213.625 143.700195312 187.224609375 112.400390625 c 0
 163.224609375 83.7998046875 138.924804688 69.599609375 131.524414062 65.7001953125 c 1
 77.4248046875 103.5 45.8251953125 154.400390625 37.625 216.799804688 c 0
 31.3251953125 264.200195312 41.724609375 300.799804688 41.8251953125 301.200195312 c 0
312.125 112.099609375 m 0
 285.524414062 143.400390625 253.924804688 199.099609375 253.924804688 286.099609375 c 1
 260.125 286.099609375 l 1
 271.125 201.799804688 308.825195312 147.599609375 351.524414062 134.599609375 c 1
 406.024414062 152.799804688 446.424804688 232.799804688 453.924804688 302.599609375 c 1
 456.924804688 302.599609375 l 1
 456.924804688 302.099609375 457.024414062 301.700195312 457.125 301.299804688 c 0
 457.224609375 300.900390625 467.524414062 264.5 461.424804688 217.200195312 c 0
 455.825195312 174 434.924804688 113 367.524414062 65.7998046875 c 1
 360.224609375 69.599609375 336.125 83.7001953125 312.125 112.099609375 c 0
471.125 302.5 m 1
 568.224609375 145 378.524414062 -7.400390625 378.625 -7.400390625 c 1
 315.924804688 3.2998046875 259.825195312 72.599609375 249.524414062 110 c 1
 239.125 72.599609375 183.125 3.2998046875 120.424804688 -7.400390625 c 1
 120.424804688 -7.400390625 -69.275390625 145 27.9248046875 302.5 c 1
 32.9248046875 302.5 l 1
 31.125 295.5 22.9248046875 260.799804688 28.724609375 216 c 0
 32.4248046875 187.099609375 41.3251953125 160.099609375 55.0244140625 135.599609375 c 0
 72.125 105.099609375 96.9248046875 78.5 128.625 56.7998046875 c 2
 130.724609375 55.400390625 l 1
 133.024414062 56.5 l 2
 134.224609375 57 163.825195312 70.900390625 193.724609375 106.299804688 c 0
 211.325195312 127 225.224609375 150.799804688 235.224609375 177.099609375 c 0
 241.625 193.900390625 246.424804688 211.700195312 249.524414062 230.400390625 c 1
 252.625 211.700195312 257.424804688 193.900390625 263.825195312 177.099609375 c 0
 273.825195312 150.799804688 287.825195312 127 305.325195312 106.299804688 c 0
 335.224609375 71 364.825195312 57.099609375 366.024414062 56.5 c 2
 368.325195312 55.400390625 l 1
 370.424804688 56.7998046875 l 2
 402.125 78.5 426.924804688 105.099609375 444.024414062 135.599609375 c 0
 457.724609375 160 466.625 187.099609375 470.325195312 216 c 0
 476.125 260.799804688 467.924804688 295.5 466.125 302.5 c 1
 471.125 302.5 l 1
EndSplineSet
EndChar

StartChar: x
Encoding: 120 120 49
Width: 368
Flags: HW
LayerCount: 2
Fore
SplineSet
183.899414062 167.099609375 m 1
 137.700195312 207.200195312 108.399414062 243.400390625 97.099609375 274.299804688 c 1
 116.899414062 257.799804688 149.099609375 230.700195312 183.899414062 201.5 c 1
 218.700195312 230.700195312 250.899414062 257.700195312 270.700195312 274.299804688 c 1
 259.399414062 243.5 230.099609375 207.200195312 183.899414062 167.099609375 c 1
205 149.5 m 1
 250.799804688 186.200195312 290.299804688 207.700195312 321.899414062 213.299804688 c 1
 245.899414062 149.5 l 1
 276.5 123.799804688 304.200195312 100.599609375 321.899414062 85.7001953125 c 1
 290.399414062 91.2998046875 250.899414062 112.799804688 205 149.5 c 1
162.899414062 149.5 m 1
 117 112.799804688 77.5 91.400390625 46 85.7001953125 c 1
 63.7001953125 100.599609375 91.3994140625 123.799804688 122 149.5 c 1
 46 213.299804688 l 1
 77.5 207.700195312 117 186.200195312 162.899414062 149.5 c 1
337.899414062 75.2001953125 m 0
 348.799804688 75.2001953125 358.799804688 77.2998046875 367.700195312 81.5 c 1
 369.299804688 59 356.200195312 33.099609375 342.299804688 16.599609375 c 0
 328.399414062 0 305.200195312 -17.400390625 282.799804688 -19.7001953125 c 1
 288.700195312 2 282.899414062 27.2001953125 265.5 55.2998046875 c 0
 249.200195312 81.599609375 222.799804688 110.5 186.899414062 141.299804688 c 2
 184 143.799804688 l 1
 181.099609375 141.299804688 l 2
 145.200195312 110.5 118.799804688 81.599609375 102.5 55.2998046875 c 0
 85.099609375 27.2001953125 79.2998046875 2 85.2001953125 -19.7001953125 c 1
 62.7998046875 -17.2998046875 39.599609375 0.099609375 25.7001953125 16.599609375 c 0
 11.7998046875 33.099609375 -1.2998046875 59 0.2998046875 81.5 c 1
 9.2001953125 77.2998046875 19.099609375 75.2001953125 30.099609375 75.2001953125 c 0
 43.8994140625 75.2001953125 59.2998046875 78.5 76.099609375 85.099609375 c 0
 104.399414062 96.2001953125 137 116.700195312 173 146 c 2
 177.299804688 149.5 l 1
 173 153 l 2
 137 182.299804688 104.399414062 202.799804688 76.099609375 213.900390625 c 0
 45.8994140625 225.799804688 20.3994140625 227 0.2998046875 217.5 c 1
 -1.2998046875 240 11.7998046875 265.900390625 25.7001953125 282.400390625 c 0
 39.599609375 299 62.7998046875 316.400390625 85.2001953125 318.700195312 c 1
 79.2998046875 297 85.099609375 271.799804688 102.5 243.700195312 c 0
 118.799804688 217.400390625 145.200195312 188.5 181.099609375 157.700195312 c 2
 184 155.200195312 l 1
 186.899414062 157.700195312 l 2
 222.799804688 188.5 249.200195312 217.400390625 265.5 243.700195312 c 0
 282.899414062 271.799804688 288.700195312 297 282.799804688 318.700195312 c 1
 305.200195312 316.299804688 328.399414062 298.900390625 342.299804688 282.400390625 c 0
 356.200195312 265.900390625 369.299804688 240 367.700195312 217.5 c 1
 347.599609375 227 322.099609375 225.799804688 291.899414062 213.900390625 c 0
 263.599609375 202.799804688 231 182.299804688 195 153 c 2
 190.700195312 149.5 l 1
 195 146 l 2
 231 116.700195312 263.599609375 96.2001953125 291.899414062 85.099609375 c 0
 308.700195312 78.5 324.099609375 75.2001953125 337.899414062 75.2001953125 c 0
183.899414062 132 m 1
 230.200195312 91.900390625 259.399414062 55.599609375 270.700195312 24.7998046875 c 1
 183.899414062 97.599609375 l 1
 97.099609375 24.7998046875 l 1
 108.399414062 55.599609375 137.700195312 91.900390625 183.899414062 132 c 1
EndSplineSet
EndChar

StartChar: y
Encoding: 121 121 50
Width: 428
Flags: HW
LayerCount: 2
Fore
SplineSet
403.25 295.400390625 m 2
 402.049804688 295.599609375 373.349609375 302.5 354.950195312 302.700195312 c 1
 354.950195312 307.200195312 l 1
 428.25 307.200195312 l 1
 428.25 307.200195312 411.849609375 255 415.049804688 204.200195312 c 1
 396.149414062 217.400390625 l 1
 396.349609375 227.299804688 398.549804688 237 400.75 247.200195312 c 0
 403.450195312 259.799804688 406.649414062 274.099609375 406.649414062 291.099609375 c 2
 406.649414062 294.599609375 l 1
 403.25 295.400390625 l 2
390.149414062 210.5 m 1
 407.75 198.200195312 l 1
 259.549804688 195.5 253.75 116.900390625 253.75 83.599609375 c 2
 253.75 32.400390625 l 1
 236.149414062 42.7998046875 227.25 60 227.25 83.599609375 c 2
 227.25 143.700195312 l 1
 259.349609375 181 285.849609375 210.200195312 390.149414062 210.5 c 1
200.649414062 83.599609375 m 2
 200.649414062 60.099609375 191.75 42.900390625 174.25 32.400390625 c 1
 174.25 83.599609375 l 2
 174.25 116.900390625 168.450195312 195.599609375 20.25 198.200195312 c 1
 37.75 210.5 l 1
 142.049804688 210.200195312 168.450195312 181 200.649414062 143.700195312 c 1
 200.649414062 83.599609375 l 2
252.849609375 22.7998046875 m 0
 260.450195312 18.900390625 268.950195312 16 278.349609375 14.2001953125 c 1
 261.950195312 3.7001953125 234.849609375 -0.7998046875 214.049804688 -0.7998046875 c 0
 193.25 -0.7998046875 166.149414062 3.7001953125 149.75 14.2001953125 c 1
 159.049804688 16 167.549804688 18.900390625 175.049804688 22.7998046875 c 0
 175.450195312 22.900390625 175.950195312 23.099609375 176.349609375 23.2998046875 c 0
 198.25 35 209.75 55.900390625 209.75 83.599609375 c 2
 209.75 147 l 1
 208.649414062 148.299804688 l 2
 189.549804688 170.400390625 174.149414062 187 149.649414062 199.299804688 c 0
 123.149414062 212.599609375 88.4501953125 219 40.75 219.400390625 c 1
 40.25 229.5 38.1494140625 239 35.9501953125 249 c 0
 33.349609375 260.799804688 30.6494140625 273 30.25 287.400390625 c 1
 38.4501953125 289.200195312 59.25 293.5 73.0498046875 293.5 c 1
 73.0498046875 287.700195312 l 1
 59.4501953125 287.700195312 46.6494140625 275.200195312 46.6494140625 275.200195312 c 1
 46.6494140625 243.5 78.1494140625 230.400390625 92.75 230.400390625 c 0
 107.349609375 230.400390625 176.849609375 222.299804688 205.149414062 207.799804688 c 1
 213.950195312 207.799804688 l 1
 222.75 207.799804688 l 1
 251.049804688 222.200195312 320.549804688 230.400390625 335.149414062 230.400390625 c 0
 349.75 230.400390625 381.25 243.400390625 381.25 275.200195312 c 1
 381.25 275.200195312 368.450195312 287.700195312 354.849609375 287.700195312 c 1
 354.849609375 293.5 l 1
 368.649414062 293.5 389.450195312 289.200195312 397.649414062 287.400390625 c 1
 397.25 272.900390625 394.549804688 260.799804688 391.950195312 249 c 0
 389.75 239 387.649414062 229.5 387.149414062 219.400390625 c 1
 339.450195312 219 304.75 212.599609375 278.25 199.299804688 c 0
 253.75 187 238.349609375 170.400390625 219.25 148.299804688 c 2
 218.149414062 147 l 1
 218.149414062 83.599609375 l 2
 218.149414062 55.900390625 229.75 35.099609375 251.549804688 23.2998046875 c 0
 251.950195312 23 252.450195312 22.900390625 252.849609375 22.7998046875 c 0
12.849609375 204.099609375 m 1
 16.0498046875 254.900390625 -0.25 307 -0.25 307 c 1
 73.0498046875 307 l 1
 73.0498046875 302.5 l 1
 54.5498046875 302.5 25.849609375 295.599609375 24.6494140625 295.299804688 c 2
 21.25 294.5 l 1
 21.25 291 l 2
 21.25 274 24.349609375 259.700195312 27.1494140625 247.099609375 c 0
 29.349609375 236.900390625 31.4501953125 227.299804688 31.75 217.299804688 c 1
 12.849609375 204.099609375 l 1
EndSplineSet
EndChar

StartChar: z
Encoding: 122 122 51
Width: 480
Flags: HW
LayerCount: 2
Fore
SplineSet
477.400390625 47.2998046875 m 0
 325.400390625 32.400390625 223 40.599609375 163.900390625 50.099609375 c 0
 120.400390625 57.099609375 93.2998046875 65.7998046875 80.2998046875 70.7001953125 c 1
 408.599609375 222.299804688 l 1
 480 222.299804688 l 1
 480 195.5 l 1
 386.299804688 180.799804688 274.599609375 141.299804688 195.400390625 90.2998046875 c 1
 304.799804688 81.400390625 428.799804688 68 477.799804688 50.5 c 1
 477.799804688 47.2998046875 l 1
 477.700195312 47.2998046875 477.5 47.2998046875 477.400390625 47.2998046875 c 0
300.200195312 249.5 m 0
 348 241.599609375 380.599609375 231.599609375 396 226.299804688 c 1
 68.2001953125 75 l 1
 -0.099609375 75 l 1
 -0.099609375 75 l 1
 -0.099609375 103.200195312 l 1
 93.599609375 117.900390625 205.299804688 157.400390625 284.5 208.400390625 c 1
 175.099609375 217.299804688 51.099609375 230.700195312 2.099609375 248.200195312 c 1
 2.099609375 253.299804688 l 1
 2.2001953125 253.299804688 2.400390625 253.299804688 2.599609375 253.299804688 c 0
 134.700195312 269.200195312 237.400390625 260 300.200195312 249.5 c 0
302.099609375 258.299804688 m 0
 238.700195312 269 135.299804688 278.299804688 2.2001953125 262.200195312 c 1
 2.2001953125 263.200195312 l 1
 85.900390625 305.900390625 257.900390625 307.599609375 372.400390625 291 c 1
 372.400390625 291 l 1
 372.400390625 291 l 1
 425.799804688 283.200195312 466.700195312 271.5 480.099609375 258.099609375 c 1
 480.099609375 231.299804688 l 1
 408.599609375 231.299804688 l 2
 402.599609375 233.700195312 366.299804688 247.599609375 302.099609375 258.299804688 c 0
319.400390625 30.099609375 m 0
 364.700195312 30.099609375 417.400390625 32.400390625 477.799804688 38.2998046875 c 1
 477.799804688 35.5 l 1
 394.099609375 -7.2001953125 222.099609375 -8.900390625 107.599609375 7.7001953125 c 1
 107.599609375 7.7001953125 l 1
 107.599609375 7.7001953125 l 1
 54.2001953125 15.5 13.2998046875 27.2001953125 -0.099609375 40.599609375 c 1
 -0.099609375 66 l 1
 -0.099609375 66 l 1
 68.099609375 66 l 2
 73.7001953125 63.400390625 102.5 50.900390625 161.700195312 41.2998046875 c 0
 197.799804688 35.5 249.900390625 30.099609375 319.400390625 30.099609375 c 0
EndSplineSet
EndChar

StartChar: exclam
Encoding: 33 33 52
Width: 269
Flags: HW
LayerCount: 2
Fore
SplineSet
254 17.2001953125 m 1
 174.299804688 -48.2001953125 174.299804688 -113.599609375 254 -179.099609375 c 1
 174.299804688 -130 94.7001953125 -130 15 -179.099609375 c 1
 94.7001953125 -113.599609375 94.7001953125 -48.2001953125 15 17.2001953125 c 1
 94.7001953125 -31.900390625 174.299804688 -31.900390625 254 17.2001953125 c 1
160.099609375 -101.900390625 m 1
 160.099609375 -59.900390625 l 1
 108.899414062 -59.900390625 l 1
 108.899414062 -101.900390625 l 1
 160.099609375 -101.900390625 l 1
201 553.200195312 m 1
 159.599609375 459.900390625 159.599609375 160.700195312 201 67.5 c 1
 139 113.900390625 l 1
 139 506.799804688 l 1
 201 553.200195312 l 1
134.5 106 m 1
 202.200195312 55.2998046875 l 1
 185.700195312 40 156.599609375 33.599609375 134.5 33.599609375 c 0
 112.399414062 33.599609375 83.2998046875 40 66.7998046875 55.2998046875 c 1
 134.5 106 l 1
130 113.900390625 m 1
 68 67.400390625 l 1
 109.399414062 160.700195312 109.399414062 459.799804688 68 553.099609375 c 1
 130 506.700195312 l 1
 130 113.900390625 l 1
134.5 514.599609375 m 1
 66.7998046875 565.299804688 l 1
 83.2998046875 580.599609375 112.399414062 587 134.5 587 c 0
 156.599609375 587 185.700195312 580.599609375 202.200195312 565.299804688 c 1
 134.5 514.599609375 l 1
EndSplineSet
EndChar

StartChar: quotedbl
Encoding: 34 34 53
Width: 202
Flags: HW
LayerCount: 2
Fore
SplineSet
151.099609375 412.799804688 m 1
 151.099609375 236.400390625 l 1
 137.200195312 243.900390625 125 284.599609375 124.299804688 324.599609375 c 0
 125 364.599609375 137.200195312 405.299804688 151.099609375 412.799804688 c 1
160.099609375 412.799804688 m 1
 174 405.299804688 186.200195312 364.599609375 186.900390625 324.599609375 c 0
 186.200195312 284.599609375 174 243.900390625 160.099609375 236.400390625 c 1
 160.099609375 412.799804688 l 1
41.900390625 412.799804688 m 1
 41.900390625 236.400390625 l 1
 28 243.900390625 15.7998046875 284.599609375 15.099609375 324.599609375 c 0
 15.7998046875 364.599609375 28 405.299804688 41.900390625 412.799804688 c 1
50.900390625 412.799804688 m 1
 64.7998046875 405.299804688 77 364.599609375 77.7001953125 324.599609375 c 0
 77 284.599609375 64.7998046875 243.900390625 50.900390625 236.400390625 c 1
 50.900390625 412.799804688 l 1
EndSplineSet
EndChar

StartChar: quotesingle
Encoding: 39 39 54
Width: 93
Flags: HW
LayerCount: 2
Fore
SplineSet
42 412.799804688 m 1
 42 236.400390625 l 1
 28.099609375 243.900390625 15.900390625 284.599609375 15.2001953125 324.599609375 c 0
 15.900390625 364.599609375 28.099609375 405.299804688 42 412.799804688 c 1
51 412.799804688 m 1
 64.900390625 405.299804688 77.099609375 364.599609375 77.7998046875 324.599609375 c 0
 77.099609375 284.599609375 64.900390625 243.900390625 51 236.400390625 c 1
 51 412.799804688 l 1
EndSplineSet
EndChar

StartChar: question
Encoding: 63 63 55
Width: 528
Flags: HW
LayerCount: 2
Fore
SplineSet
255.400390625 -1.900390625 m 1
 182.599609375 -61.599609375 182.599609375 -121.299804688 255.400390625 -181 c 1
 182.69921875 -136.200195312 110 -136.200195312 37.298828125 -181 c 1
 110 -121.299804688 110 -61.599609375 37.298828125 -1.900390625 c 1
 110 -46.7001953125 182.69921875 -46.7001953125 255.400390625 -1.900390625 c 1
169.69921875 -110.599609375 m 1
 169.69921875 -72.2998046875 l 1
 123 -72.2998046875 l 1
 123 -110.599609375 l 1
 169.69921875 -110.599609375 l 1
61.798828125 437.099609375 m 1
 16.900390625 502.200195312 l 1
 53.298828125 492 l 1
 68 452.900390625 l 1
 64.298828125 449.299804688 61.798828125 443.700195312 61.798828125 437.099609375 c 1
448.19921875 247.700195312 m 0
 422 212.299804688 364.5 180.799804688 281.900390625 156.900390625 c 0
 225 140.299804688 174.099609375 132.5 164.5 131.099609375 c 1
 131.400390625 152 l 1
 183.900390625 152.799804688 l 1
 318.5 163.599609375 422.400390625 232.799804688 422.400390625 316.799804688 c 0
 422.400390625 408.299804688 299.298828125 482.400390625 147.5 482.400390625 c 0
 139.900390625 482.400390625 132.599609375 482.099609375 125.19921875 481.700195312 c 0
 101.5 477.799804688 89 466.700195312 89.900390625 451.900390625 c 1
 85.19921875 456.299804688 80.298828125 457.599609375 76 457 c 1
 62.900390625 491.799804688 l 1
 84.69921875 493.700195312 165.19921875 499.299804688 248 484.299804688 c 0
 376.298828125 461.099609375 449.099609375 402.200195312 464.19921875 309.299804688 c 0
 467.798828125 287.599609375 462.400390625 266.799804688 448.19921875 247.700195312 c 0
126.5 144.400390625 m 1
 158.69921875 124.099609375 l 1
 149.099609375 52 l 1
 142.19921875 50.599609375 135.19921875 46.599609375 129.599609375 41.099609375 c 1
 135.900390625 70.599609375 135.298828125 119.599609375 126.5 144.400390625 c 1
511.099609375 316.700195312 m 0
 511.099609375 251.5 457.5 193.5 373.900390625 155.799804688 c 1
 374.19921875 155.799804688 l 1
 373.19921875 155.400390625 372.298828125 155.099609375 371.298828125 154.700195312 c 0
 353.298828125 146.700195312 334 139.799804688 313.5 133.799804688 c 0
 218.798828125 103 175 104 171.69921875 42.900390625 c 1
 167.5 49.599609375 161.599609375 51.599609375 158.099609375 52.2001953125 c 2
 167.5 122.400390625 l 1
 180.599609375 124.299804688 229.798828125 132.200195312 284.298828125 148.099609375 c 0
 370 173.099609375 427.599609375 204.799804688 455.400390625 242.299804688 c 0
 471.099609375 263.5 477 286.5 473.099609375 310.700195312 c 0
 464.400390625 364.200195312 436.798828125 407.5 391.099609375 439.299804688 c 0
 354.900390625 464.599609375 307.19921875 482.700195312 249.5 493.099609375 c 0
 156.69921875 509.799804688 66.900390625 501.099609375 57.099609375 500.099609375 c 2
 22.298828125 509.900390625 l 1
 61.400390625 518.099609375 103.599609375 522.5 147.599609375 522.5 c 0
 348.400390625 522.5 511.099609375 430.400390625 511.099609375 316.700195312 c 0
167.400390625 22.7001953125 m 0
 167.400390625 21.7998046875 167.69921875 20.900390625 168.19921875 20.2998046875 c 1
 162.400390625 17.400390625 154.099609375 16.2001953125 147.599609375 16.2001953125 c 0
 141.099609375 16.2001953125 132.798828125 17.400390625 127 20.2998046875 c 1
 127.19921875 20.599609375 127.400390625 21 127.5 21.400390625 c 0
 131.298828125 33.900390625 145.900390625 45 156.400390625 43.400390625 c 0
 165.5 42 167.400390625 31.400390625 167.400390625 22.7001953125 c 0
76.099609375 447.599609375 m 0
 80.298828125 449.5 85.900390625 444.900390625 90.298828125 435.799804688 c 1
 72.400390625 429.200195312 l 1
 72.400390625 429.299804688 72.400390625 429.400390625 72.400390625 429.400390625 c 2
 69 437.700195312 71.599609375 445.599609375 76.099609375 447.599609375 c 0
EndSplineSet
EndChar

StartChar: colon
Encoding: 58 58 56
Width: 149
Flags: HW
LayerCount: 2
Fore
SplineSet
134.049804688 -8.7998046875 m 1
 94.25 39.599609375 54.650390625 39.599609375 14.9501953125 -8.7998046875 c 1
 44.75 39.599609375 44.75 87.900390625 14.9501953125 136.299804688 c 1
 54.650390625 87.900390625 94.349609375 87.900390625 134.049804688 136.299804688 c 1
 104.25 87.900390625 104.25 39.599609375 134.049804688 -8.7998046875 c 1
61.75 48.2001953125 m 1
 87.25 48.2001953125 l 1
 87.25 79.2998046875 l 1
 61.75 79.2998046875 l 1
 61.75 48.2001953125 l 1
134.049804688 200.799804688 m 1
 94.25 249.099609375 54.650390625 249.099609375 14.9501953125 200.799804688 c 1
 44.75 249.200195312 44.75 297.5 14.9501953125 345.900390625 c 1
 54.650390625 297.5 94.349609375 297.5 134.049804688 345.900390625 c 1
 104.25 297.5 104.25 249.200195312 134.049804688 200.799804688 c 1
61.75 257.799804688 m 1
 87.25 257.799804688 l 1
 87.25 288.900390625 l 1
 61.75 288.900390625 l 1
 61.75 257.799804688 l 1
EndSplineSet
EndChar

StartChar: semicolon
Encoding: 59 59 57
Width: 185
Flags: HW
LayerCount: 2
Fore
SplineSet
170.19921875 351.299804688 m 1
 123.599609375 313 123.599609375 274.700195312 170.19921875 236.400390625 c 1
 123.599609375 265.200195312 77 265.200195312 30.30078125 236.400390625 c 1
 77 274.700195312 77 313 30.30078125 351.299804688 c 1
 76.900390625 322.5 123.5 322.5 170.19921875 351.299804688 c 1
115.30078125 281.599609375 m 1
 115.30078125 306.200195312 l 1
 85.30078125 306.200195312 l 1
 85.30078125 281.599609375 l 1
 115.30078125 281.599609375 l 1
115.5 95.5 m 0
 121.69921875 117.200195312 127.19921875 136.099609375 140.30078125 140.299804688 c 1
 149.80078125 81.2001953125 114.900390625 -10.7998046875 14.80078125 0.900390625 c 1
 64 49 69.5 111.599609375 61.099609375 136.799804688 c 1
 75.5 130.200195312 84 120.799804688 86.400390625 109 c 0
 94.099609375 70.7001953125 39.19921875 16.7998046875 38.599609375 16.2998046875 c 2
 28 6 l 1
 42.5 8.599609375 l 2
 93.19921875 17.7001953125 105.599609375 60.900390625 115.5 95.5 c 0
95.19921875 110.799804688 m 0
 92.099609375 126.200195312 81.19921875 138 62.80078125 145.900390625 c 1
 82.900390625 158.5 112.5 158.900390625 133.30078125 147.200195312 c 1
 118.80078125 139.900390625 113.19921875 120.200195312 106.80078125 98 c 0
 98.30078125 68.2001953125 88.80078125 35 56 21.7998046875 c 1
 72.80078125 40.900390625 101.599609375 79.099609375 95.19921875 110.799804688 c 0
EndSplineSet
EndChar

StartChar: comma
Encoding: 44 44 58
Width: 163
Flags: HW
LayerCount: 2
Fore
SplineSet
98.9921875 38.7998046875 m 0
 95.7919921875 54.900390625 84.2919921875 67.2998046875 64.9921875 75.5 c 1
 86.1923828125 88.900390625 117.592773438 89.400390625 139.592773438 76.900390625 c 1
 124.392578125 69.2998046875 118.4921875 48.7001953125 111.791992188 25.2998046875 c 0
 102.692382812 -6.2998046875 92.5927734375 -41.7001953125 57.2919921875 -55.2998046875 c 1
 74.6923828125 -35.5 105.692382812 5.2001953125 98.9921875 38.7998046875 c 0
120.392578125 22.7998046875 m 0
 126.9921875 45.7001953125 132.692382812 65.599609375 146.592773438 70.099609375 c 1
 156.692382812 7.900390625 120.192382812 -89 14.7919921875 -76.599609375 c 1
 66.5927734375 -25.7998046875 72.2919921875 40.2001953125 63.2919921875 66.5 c 1
 78.5927734375 59.5 87.6923828125 49.599609375 90.1923828125 37 c 0
 98.2919921875 -3.400390625 40.4921875 -60 39.892578125 -60.599609375 c 2
 29.2919921875 -70.900390625 l 1
 43.7919921875 -68.2998046875 l 2
 96.9921875 -58.7998046875 109.9921875 -13.599609375 120.392578125 22.7998046875 c 0
EndSplineSet
EndChar

StartChar: period
Encoding: 46 46 59
Width: 138
Flags: HW
LayerCount: 2
Fore
SplineSet
123.200195312 -16.2998046875 m 1
 87 27.7001953125 51 27.7001953125 14.7998046875 -16.2998046875 c 1
 41.900390625 27.7998046875 41.900390625 71.7001953125 14.7998046875 115.700195312 c 1
 51 71.7001953125 87.099609375 71.7001953125 123.200195312 115.700195312 c 1
 96.099609375 71.599609375 96.099609375 27.7001953125 123.200195312 -16.2998046875 c 1
57.400390625 35.5 m 1
 80.599609375 35.5 l 1
 80.599609375 63.7998046875 l 1
 57.400390625 63.7998046875 l 1
 57.400390625 35.5 l 1
EndSplineSet
EndChar

